<?xml version="1.0" encoding="UTF-8" standalone="no"?>
<svg width="232px" height="196px" viewBox="0 0 232 196" version="1.1" xmlns="http://www.w3.org/2000/svg" xmlns:xlink="http://www.w3.org/1999/xlink" xmlns:sketch="http://www.bohemiancoding.com/sketch/ns">
    <title>lip-small</title>
    <description>Created with Sketch (http://www.bohemiancoding.com/sketch)</description>
    <defs></defs>
    <g id="Page 1" fill="#D8D8D8" fill-rule="evenodd">
        <g id="LIP Mach 2000" fill="#000000">
            <g id="Page 1" fill="#D8D8D8">
                <g id="Artboard 1">
                    <path d="M97,171 C135.659934,171 167,139.659934 167,101 C167,62.3400656 135.659934,31 97,31 C58.3400656,31 27,62.3400656 27,101 C27,139.659934 58.3400656,171 97,171 Z M97,171" id="Oval 1" fill="#4A4A4A"></path>
                    <g id="WATCH">
                        <path d="M99,165.5 C135.450795,165.5 165,135.950795 165,99.5 C165,63.049205 135.450795,33.5 99,33.5 C62.549205,33.5 33,63.049205 33,99.5 C33,135.950795 62.549205,165.5 99,165.5 L99,165.5 Z M97.5,195.5 C43.652234,195.5 0,151.847766 0,98 C0,44.152234 43.652234,0.5 97.5,0.5 C98.001002,0.5 98.501122,0.503779 99,0.511304 L99,0.5 L209.005271,0.5 C213.420222,0.5 217,4.085202 217,8.507773 L217,13.499998 C205.40202,13.5 196,22.90202 196,34.5 C196,46.09798 205.40202,55.5 217,55.5 L217,187.492227 C217,191.927878 213.420638,195.5 209.005271,195.5 L99,195.5 L99,195.488696 C98.501122,195.496221 98.001002,195.5 97.5,195.5 L97.5,195.5 Z M97.5,195.5" id="Oval 1" fill="#2E2929"></path>
                        <path d="M98,37 L98,45 L100,45 L100,37 L98,37 Z M98,37" id="Rectangle 1" fill="#CF3D3D"></path>
                        <path d="M98,154 L98,162 L100,162 L100,154 L98,154 Z M98,154" id="Rectangle 1 copy" fill="#CF3D3D"></path>
                        <path d="M38,95.5 L38,103.5 L40,103.5 L40,95.5 L38,95.5 Z M38,95.5" id="Rectangle 1 copy 2" fill="#CF3D3D" transform="translate(39.000000, 99.500000) rotate(-90.000000) translate(-39.000000, -99.500000)"></path>
                        <path d="M156.5,95.5 L156.5,103.5 L158.5,103.5 L158.5,95.5 L156.5,95.5 Z M156.5,95.5" id="Rectangle 1 copy" fill="#CF3D3D" transform="translate(157.500000, 99.500000) rotate(-90.000000) translate(-157.500000, -99.500000)"></path>
                        <path d="M103,96.5 L103,130.5 L111,130.5 L111,96.5 L103,96.5 L103,96.5 Z M103,96.5" id="Rectangle 4" fill="#CF3D3D" transform="translate(107.000000, 113.500000) rotate(-29.000000) translate(-107.000000, -113.500000)"></path>
                        <path d="M95,43.5 L95,99.5 L103,99.5 L103,43.5 L95,43.5 L95,43.5 Z M95,43.5" id="Rectangle 4 copy" fill="#FFFEF6" transform="translate(99.000000, 71.500000) rotate(-180.000000) translate(-99.000000, -71.500000)"></path>
                        <path d="M98.5,108.5 C103.194421,108.5 107,104.694421 107,100 C107,95.305579 103.194421,91.5 98.5,91.5 C93.805579,91.5 90,95.305579 90,100 C90,104.694421 93.805579,108.5 98.5,108.5 L98.5,108.5 Z M98.5,108.5" id="dial" fill="#D4D4D4"></path>
                        <path d="M216.5,49.5 C225.060414,49.5 232,42.560414 232,34 C232,25.439586 225.060414,18.5 216.5,18.5 C207.939586,18.5 201,25.439586 201,34 C201,42.560414 207.939586,49.5 216.5,49.5 L216.5,49.5 Z M216.5,49.5" id="Path copy" fill="#CF3D3D"></path>
                    </g>
                </g>
            </g>
        </g>
    </g>
</svg>