<?xml version="1.0" encoding="UTF-8" standalone="no"?>
<svg width="200px" height="200px" viewBox="0 0 200 200" version="1.1" xmlns="http://www.w3.org/2000/svg" xmlns:xlink="http://www.w3.org/1999/xlink" xmlns:sketch="http://www.bohemiancoding.com/sketch/ns">
    <title>dotted</title>
    <description>Created with Sketch (http://www.bohemiancoding.com/sketch)</description>
    <defs>
        <path d="M100,200 C155.228478,200 200,155.228478 200,100 C200,44.7715223 155.228478,0 100,0 C44.7715223,0 0,44.7715223 0,100 C0,155.228478 44.7715223,200 100,200 Z M100,200" id="path-1" stroke="none" fill-rule="evenodd"></path>
        <path d="M0,0 L0,165 L118,165 L118,0 L0,0 Z M0,0" id="path-2" stroke="none" fill-rule="evenodd"></path>
        <mask id="mask-3" fill="white">
            <use xlink:href="#path-2"></use>
        </mask>
        <mask id="mask-4" fill="white">
            <use xlink:href="#path-1"></use>
        </mask>
    </defs>
    <g id="Page 1" stroke="none" stroke-width="1" fill="none" fill-rule="evenodd">
        <g id="Artboard 3" transform="translate(-113.000000, -93.000000)">
            <g id="sketch" transform="translate(113.000000, 93.000000)">
                <use id="Oval 16" xlink:href="#path-1" fill="#BA9FE6"></use>
                <g id="Group" transform="translate(70.000000, 63.000000)" mask="url(#mask-4)">
                    <g id="Dot paper">
                        <use id="Rectangle 19" xlink:href="#path-2" fill="#F5F5F5"></use>
                        <g id="Group" transform="translate(8.000000, 9.000000)" mask="url(#mask-3)" fill="#D2D2D2">
                            <g id="Oval 17">
                                <path d="M1,2 C1.55228478,2 2,1.55228478 2,1 C2,0.447715223 1.55228478,0 1,0 C0.447715223,0 0,0.447715223 0,1 C0,1.55228478 0.447715223,2 1,2 Z M1,2"></path>
                                <path d="M81,122 C81.5522848,122 82,121.552285 82,121 C82,120.447715 81.5522848,120 81,120 C80.4477152,120 80,120.447715 80,121 C80,121.552285 80.4477152,122 81,122 Z M81,122"></path>
                                <path d="M71,122 C71.5522848,122 72,121.552285 72,121 C72,120.447715 71.5522848,120 71,120 C70.4477152,120 70,120.447715 70,121 C70,121.552285 70.4477152,122 71,122 Z M71,122"></path>
                                <path d="M61,122 C61.5522848,122 62,121.552285 62,121 C62,120.447715 61.5522848,120 61,120 C60.4477152,120 60,120.447715 60,121 C60,121.552285 60.4477152,122 61,122 Z M61,122"></path>
                                <path d="M51,122 C51.5522848,122 52,121.552285 52,121 C52,120.447715 51.5522848,120 51,120 C50.4477152,120 50,120.447715 50,121 C50,121.552285 50.4477152,122 51,122 Z M51,122"></path>
                                <path d="M41,122 C41.5522848,122 42,121.552285 42,121 C42,120.447715 41.5522848,120 41,120 C40.4477152,120 40,120.447715 40,121 C40,121.552285 40.4477152,122 41,122 Z M41,122"></path>
                                <path d="M31,122 C31.5522848,122 32,121.552285 32,121 C32,120.447715 31.5522848,120 31,120 C30.4477152,120 30,120.447715 30,121 C30,121.552285 30.4477152,122 31,122 Z M31,122"></path>
                                <path d="M21,122 C21.5522848,122 22,121.552285 22,121 C22,120.447715 21.5522848,120 21,120 C20.4477152,120 20,120.447715 20,121 C20,121.552285 20.4477152,122 21,122 Z M21,122"></path>
                                <path d="M11,122 C11.5522848,122 12,121.552285 12,121 C12,120.447715 11.5522848,120 11,120 C10.4477152,120 10,120.447715 10,121 C10,121.552285 10.4477152,122 11,122 Z M11,122"></path>
                                <path d="M1,122 C1.55228478,122 2,121.552285 2,121 C2,120.447715 1.55228478,120 1,120 C0.447715223,120 0,120.447715 0,121 C0,121.552285 0.447715223,122 1,122 Z M1,122"></path>
                                <path d="M81,112 C81.5522848,112 82,111.552285 82,111 C82,110.447715 81.5522848,110 81,110 C80.4477152,110 80,110.447715 80,111 C80,111.552285 80.4477152,112 81,112 Z M81,112"></path>
                                <path d="M71,112 C71.5522848,112 72,111.552285 72,111 C72,110.447715 71.5522848,110 71,110 C70.4477152,110 70,110.447715 70,111 C70,111.552285 70.4477152,112 71,112 Z M71,112"></path>
                                <path d="M61,112 C61.5522848,112 62,111.552285 62,111 C62,110.447715 61.5522848,110 61,110 C60.4477152,110 60,110.447715 60,111 C60,111.552285 60.4477152,112 61,112 Z M61,112"></path>
                                <path d="M51,112 C51.5522848,112 52,111.552285 52,111 C52,110.447715 51.5522848,110 51,110 C50.4477152,110 50,110.447715 50,111 C50,111.552285 50.4477152,112 51,112 Z M51,112"></path>
                                <path d="M41,112 C41.5522848,112 42,111.552285 42,111 C42,110.447715 41.5522848,110 41,110 C40.4477152,110 40,110.447715 40,111 C40,111.552285 40.4477152,112 41,112 Z M41,112"></path>
                                <path d="M31,112 C31.5522848,112 32,111.552285 32,111 C32,110.447715 31.5522848,110 31,110 C30.4477152,110 30,110.447715 30,111 C30,111.552285 30.4477152,112 31,112 Z M31,112"></path>
                                <path d="M21,112 C21.5522848,112 22,111.552285 22,111 C22,110.447715 21.5522848,110 21,110 C20.4477152,110 20,110.447715 20,111 C20,111.552285 20.4477152,112 21,112 Z M21,112"></path>
                                <path d="M11,112 C11.5522848,112 12,111.552285 12,111 C12,110.447715 11.5522848,110 11,110 C10.4477152,110 10,110.447715 10,111 C10,111.552285 10.4477152,112 11,112 Z M11,112"></path>
                                <path d="M1,112 C1.55228478,112 2,111.552285 2,111 C2,110.447715 1.55228478,110 1,110 C0.447715223,110 0,110.447715 0,111 C0,111.552285 0.447715223,112 1,112 Z M1,112"></path>
                                <path d="M81,102 C81.5522848,102 82,101.552285 82,101 C82,100.447715 81.5522848,100 81,100 C80.4477152,100 80,100.447715 80,101 C80,101.552285 80.4477152,102 81,102 Z M81,102"></path>
                                <path d="M71,102 C71.5522848,102 72,101.552285 72,101 C72,100.447715 71.5522848,100 71,100 C70.4477152,100 70,100.447715 70,101 C70,101.552285 70.4477152,102 71,102 Z M71,102"></path>
                                <path d="M61,102 C61.5522848,102 62,101.552285 62,101 C62,100.447715 61.5522848,100 61,100 C60.4477152,100 60,100.447715 60,101 C60,101.552285 60.4477152,102 61,102 Z M61,102"></path>
                                <path d="M51,102 C51.5522848,102 52,101.552285 52,101 C52,100.447715 51.5522848,100 51,100 C50.4477152,100 50,100.447715 50,101 C50,101.552285 50.4477152,102 51,102 Z M51,102"></path>
                                <path d="M41,102 C41.5522848,102 42,101.552285 42,101 C42,100.447715 41.5522848,100 41,100 C40.4477152,100 40,100.447715 40,101 C40,101.552285 40.4477152,102 41,102 Z M41,102"></path>
                                <path d="M31,102 C31.5522848,102 32,101.552285 32,101 C32,100.447715 31.5522848,100 31,100 C30.4477152,100 30,100.447715 30,101 C30,101.552285 30.4477152,102 31,102 Z M31,102"></path>
                                <path d="M21,102 C21.5522848,102 22,101.552285 22,101 C22,100.447715 21.5522848,100 21,100 C20.4477152,100 20,100.447715 20,101 C20,101.552285 20.4477152,102 21,102 Z M21,102"></path>
                                <path d="M11,102 C11.5522848,102 12,101.552285 12,101 C12,100.447715 11.5522848,100 11,100 C10.4477152,100 10,100.447715 10,101 C10,101.552285 10.4477152,102 11,102 Z M11,102"></path>
                                <path d="M1,102 C1.55228478,102 2,101.552285 2,101 C2,100.447715 1.55228478,100 1,100 C0.447715223,100 0,100.447715 0,101 C0,101.552285 0.447715223,102 1,102 Z M1,102"></path>
                                <path d="M81,92 C81.5522848,92 82,91.5522848 82,91 C82,90.4477152 81.5522848,90 81,90 C80.4477152,90 80,90.4477152 80,91 C80,91.5522848 80.4477152,92 81,92 Z M81,92"></path>
                                <path d="M71,92 C71.5522848,92 72,91.5522848 72,91 C72,90.4477152 71.5522848,90 71,90 C70.4477152,90 70,90.4477152 70,91 C70,91.5522848 70.4477152,92 71,92 Z M71,92"></path>
                                <path d="M61,92 C61.5522848,92 62,91.5522848 62,91 C62,90.4477152 61.5522848,90 61,90 C60.4477152,90 60,90.4477152 60,91 C60,91.5522848 60.4477152,92 61,92 Z M61,92"></path>
                                <path d="M51,92 C51.5522848,92 52,91.5522848 52,91 C52,90.4477152 51.5522848,90 51,90 C50.4477152,90 50,90.4477152 50,91 C50,91.5522848 50.4477152,92 51,92 Z M51,92"></path>
                                <path d="M41,92 C41.5522848,92 42,91.5522848 42,91 C42,90.4477152 41.5522848,90 41,90 C40.4477152,90 40,90.4477152 40,91 C40,91.5522848 40.4477152,92 41,92 Z M41,92"></path>
                                <path d="M31,92 C31.5522848,92 32,91.5522848 32,91 C32,90.4477152 31.5522848,90 31,90 C30.4477152,90 30,90.4477152 30,91 C30,91.5522848 30.4477152,92 31,92 Z M31,92"></path>
                                <path d="M21,92 C21.5522848,92 22,91.5522848 22,91 C22,90.4477152 21.5522848,90 21,90 C20.4477152,90 20,90.4477152 20,91 C20,91.5522848 20.4477152,92 21,92 Z M21,92"></path>
                                <path d="M11,92 C11.5522848,92 12,91.5522848 12,91 C12,90.4477152 11.5522848,90 11,90 C10.4477152,90 10,90.4477152 10,91 C10,91.5522848 10.4477152,92 11,92 Z M11,92"></path>
                                <path d="M1,92 C1.55228478,92 2,91.5522848 2,91 C2,90.4477152 1.55228478,90 1,90 C0.447715223,90 0,90.4477152 0,91 C0,91.5522848 0.447715223,92 1,92 Z M1,92"></path>
                                <path d="M81,82 C81.5522848,82 82,81.5522848 82,81 C82,80.4477152 81.5522848,80 81,80 C80.4477152,80 80,80.4477152 80,81 C80,81.5522848 80.4477152,82 81,82 Z M81,82"></path>
                                <path d="M71,82 C71.5522848,82 72,81.5522848 72,81 C72,80.4477152 71.5522848,80 71,80 C70.4477152,80 70,80.4477152 70,81 C70,81.5522848 70.4477152,82 71,82 Z M71,82"></path>
                                <path d="M61,82 C61.5522848,82 62,81.5522848 62,81 C62,80.4477152 61.5522848,80 61,80 C60.4477152,80 60,80.4477152 60,81 C60,81.5522848 60.4477152,82 61,82 Z M61,82"></path>
                                <path d="M51,82 C51.5522848,82 52,81.5522848 52,81 C52,80.4477152 51.5522848,80 51,80 C50.4477152,80 50,80.4477152 50,81 C50,81.5522848 50.4477152,82 51,82 Z M51,82"></path>
                                <path d="M41,82 C41.5522848,82 42,81.5522848 42,81 C42,80.4477152 41.5522848,80 41,80 C40.4477152,80 40,80.4477152 40,81 C40,81.5522848 40.4477152,82 41,82 Z M41,82"></path>
                                <path d="M31,82 C31.5522848,82 32,81.5522848 32,81 C32,80.4477152 31.5522848,80 31,80 C30.4477152,80 30,80.4477152 30,81 C30,81.5522848 30.4477152,82 31,82 Z M31,82"></path>
                                <path d="M21,82 C21.5522848,82 22,81.5522848 22,81 C22,80.4477152 21.5522848,80 21,80 C20.4477152,80 20,80.4477152 20,81 C20,81.5522848 20.4477152,82 21,82 Z M21,82"></path>
                                <path d="M11,82 C11.5522848,82 12,81.5522848 12,81 C12,80.4477152 11.5522848,80 11,80 C10.4477152,80 10,80.4477152 10,81 C10,81.5522848 10.4477152,82 11,82 Z M11,82"></path>
                                <path d="M1,82 C1.55228478,82 2,81.5522848 2,81 C2,80.4477152 1.55228478,80 1,80 C0.447715223,80 0,80.4477152 0,81 C0,81.5522848 0.447715223,82 1,82 Z M1,82"></path>
                                <path d="M81,72 C81.5522848,72 82,71.5522848 82,71 C82,70.4477152 81.5522848,70 81,70 C80.4477152,70 80,70.4477152 80,71 C80,71.5522848 80.4477152,72 81,72 Z M81,72"></path>
                                <path d="M71,72 C71.5522848,72 72,71.5522848 72,71 C72,70.4477152 71.5522848,70 71,70 C70.4477152,70 70,70.4477152 70,71 C70,71.5522848 70.4477152,72 71,72 Z M71,72"></path>
                                <path d="M61,72 C61.5522848,72 62,71.5522848 62,71 C62,70.4477152 61.5522848,70 61,70 C60.4477152,70 60,70.4477152 60,71 C60,71.5522848 60.4477152,72 61,72 Z M61,72"></path>
                                <path d="M51,72 C51.5522848,72 52,71.5522848 52,71 C52,70.4477152 51.5522848,70 51,70 C50.4477152,70 50,70.4477152 50,71 C50,71.5522848 50.4477152,72 51,72 Z M51,72"></path>
                                <path d="M41,72 C41.5522848,72 42,71.5522848 42,71 C42,70.4477152 41.5522848,70 41,70 C40.4477152,70 40,70.4477152 40,71 C40,71.5522848 40.4477152,72 41,72 Z M41,72"></path>
                                <path d="M31,72 C31.5522848,72 32,71.5522848 32,71 C32,70.4477152 31.5522848,70 31,70 C30.4477152,70 30,70.4477152 30,71 C30,71.5522848 30.4477152,72 31,72 Z M31,72"></path>
                                <path d="M21,72 C21.5522848,72 22,71.5522848 22,71 C22,70.4477152 21.5522848,70 21,70 C20.4477152,70 20,70.4477152 20,71 C20,71.5522848 20.4477152,72 21,72 Z M21,72"></path>
                                <path d="M11,72 C11.5522848,72 12,71.5522848 12,71 C12,70.4477152 11.5522848,70 11,70 C10.4477152,70 10,70.4477152 10,71 C10,71.5522848 10.4477152,72 11,72 Z M11,72"></path>
                                <path d="M1,72 C1.55228478,72 2,71.5522848 2,71 C2,70.4477152 1.55228478,70 1,70 C0.447715223,70 0,70.4477152 0,71 C0,71.5522848 0.447715223,72 1,72 Z M1,72"></path>
                                <path d="M81,62 C81.5522848,62 82,61.5522848 82,61 C82,60.4477152 81.5522848,60 81,60 C80.4477152,60 80,60.4477152 80,61 C80,61.5522848 80.4477152,62 81,62 Z M81,62"></path>
                                <path d="M71,62 C71.5522848,62 72,61.5522848 72,61 C72,60.4477152 71.5522848,60 71,60 C70.4477152,60 70,60.4477152 70,61 C70,61.5522848 70.4477152,62 71,62 Z M71,62"></path>
                                <path d="M61,62 C61.5522848,62 62,61.5522848 62,61 C62,60.4477152 61.5522848,60 61,60 C60.4477152,60 60,60.4477152 60,61 C60,61.5522848 60.4477152,62 61,62 Z M61,62"></path>
                                <path d="M51,62 C51.5522848,62 52,61.5522848 52,61 C52,60.4477152 51.5522848,60 51,60 C50.4477152,60 50,60.4477152 50,61 C50,61.5522848 50.4477152,62 51,62 Z M51,62"></path>
                                <path d="M41,62 C41.5522848,62 42,61.5522848 42,61 C42,60.4477152 41.5522848,60 41,60 C40.4477152,60 40,60.4477152 40,61 C40,61.5522848 40.4477152,62 41,62 Z M41,62"></path>
                                <path d="M31,62 C31.5522848,62 32,61.5522848 32,61 C32,60.4477152 31.5522848,60 31,60 C30.4477152,60 30,60.4477152 30,61 C30,61.5522848 30.4477152,62 31,62 Z M31,62"></path>
                                <path d="M21,62 C21.5522848,62 22,61.5522848 22,61 C22,60.4477152 21.5522848,60 21,60 C20.4477152,60 20,60.4477152 20,61 C20,61.5522848 20.4477152,62 21,62 Z M21,62"></path>
                                <path d="M11,62 C11.5522848,62 12,61.5522848 12,61 C12,60.4477152 11.5522848,60 11,60 C10.4477152,60 10,60.4477152 10,61 C10,61.5522848 10.4477152,62 11,62 Z M11,62"></path>
                                <path d="M1,62 C1.55228478,62 2,61.5522848 2,61 C2,60.4477152 1.55228478,60 1,60 C0.447715223,60 0,60.4477152 0,61 C0,61.5522848 0.447715223,62 1,62 Z M1,62"></path>
                                <path d="M81,52 C81.5522848,52 82,51.5522848 82,51 C82,50.4477152 81.5522848,50 81,50 C80.4477152,50 80,50.4477152 80,51 C80,51.5522848 80.4477152,52 81,52 Z M81,52"></path>
                                <path d="M71,52 C71.5522848,52 72,51.5522848 72,51 C72,50.4477152 71.5522848,50 71,50 C70.4477152,50 70,50.4477152 70,51 C70,51.5522848 70.4477152,52 71,52 Z M71,52"></path>
                                <path d="M61,52 C61.5522848,52 62,51.5522848 62,51 C62,50.4477152 61.5522848,50 61,50 C60.4477152,50 60,50.4477152 60,51 C60,51.5522848 60.4477152,52 61,52 Z M61,52"></path>
                                <path d="M51,52 C51.5522848,52 52,51.5522848 52,51 C52,50.4477152 51.5522848,50 51,50 C50.4477152,50 50,50.4477152 50,51 C50,51.5522848 50.4477152,52 51,52 Z M51,52"></path>
                                <path d="M41,52 C41.5522848,52 42,51.5522848 42,51 C42,50.4477152 41.5522848,50 41,50 C40.4477152,50 40,50.4477152 40,51 C40,51.5522848 40.4477152,52 41,52 Z M41,52"></path>
                                <path d="M31,52 C31.5522848,52 32,51.5522848 32,51 C32,50.4477152 31.5522848,50 31,50 C30.4477152,50 30,50.4477152 30,51 C30,51.5522848 30.4477152,52 31,52 Z M31,52"></path>
                                <path d="M21,52 C21.5522848,52 22,51.5522848 22,51 C22,50.4477152 21.5522848,50 21,50 C20.4477152,50 20,50.4477152 20,51 C20,51.5522848 20.4477152,52 21,52 Z M21,52"></path>
                                <path d="M11,52 C11.5522848,52 12,51.5522848 12,51 C12,50.4477152 11.5522848,50 11,50 C10.4477152,50 10,50.4477152 10,51 C10,51.5522848 10.4477152,52 11,52 Z M11,52"></path>
                                <path d="M1,52 C1.55228478,52 2,51.5522848 2,51 C2,50.4477152 1.55228478,50 1,50 C0.447715223,50 0,50.4477152 0,51 C0,51.5522848 0.447715223,52 1,52 Z M1,52"></path>
                                <path d="M81,42 C81.5522848,42 82,41.5522848 82,41 C82,40.4477152 81.5522848,40 81,40 C80.4477152,40 80,40.4477152 80,41 C80,41.5522848 80.4477152,42 81,42 Z M81,42"></path>
                                <path d="M71,42 C71.5522848,42 72,41.5522848 72,41 C72,40.4477152 71.5522848,40 71,40 C70.4477152,40 70,40.4477152 70,41 C70,41.5522848 70.4477152,42 71,42 Z M71,42"></path>
                                <path d="M61,42 C61.5522848,42 62,41.5522848 62,41 C62,40.4477152 61.5522848,40 61,40 C60.4477152,40 60,40.4477152 60,41 C60,41.5522848 60.4477152,42 61,42 Z M61,42"></path>
                                <path d="M51,42 C51.5522848,42 52,41.5522848 52,41 C52,40.4477152 51.5522848,40 51,40 C50.4477152,40 50,40.4477152 50,41 C50,41.5522848 50.4477152,42 51,42 Z M51,42"></path>
                                <path d="M41,42 C41.5522848,42 42,41.5522848 42,41 C42,40.4477152 41.5522848,40 41,40 C40.4477152,40 40,40.4477152 40,41 C40,41.5522848 40.4477152,42 41,42 Z M41,42"></path>
                                <path d="M31,42 C31.5522848,42 32,41.5522848 32,41 C32,40.4477152 31.5522848,40 31,40 C30.4477152,40 30,40.4477152 30,41 C30,41.5522848 30.4477152,42 31,42 Z M31,42"></path>
                                <path d="M21,42 C21.5522848,42 22,41.5522848 22,41 C22,40.4477152 21.5522848,40 21,40 C20.4477152,40 20,40.4477152 20,41 C20,41.5522848 20.4477152,42 21,42 Z M21,42"></path>
                                <path d="M11,42 C11.5522848,42 12,41.5522848 12,41 C12,40.4477152 11.5522848,40 11,40 C10.4477152,40 10,40.4477152 10,41 C10,41.5522848 10.4477152,42 11,42 Z M11,42"></path>
                                <path d="M1,42 C1.55228478,42 2,41.5522848 2,41 C2,40.4477152 1.55228478,40 1,40 C0.447715223,40 0,40.4477152 0,41 C0,41.5522848 0.447715223,42 1,42 Z M1,42"></path>
                                <path d="M81,32 C81.5522848,32 82,31.5522848 82,31 C82,30.4477152 81.5522848,30 81,30 C80.4477152,30 80,30.4477152 80,31 C80,31.5522848 80.4477152,32 81,32 Z M81,32"></path>
                                <path d="M71,32 C71.5522848,32 72,31.5522848 72,31 C72,30.4477152 71.5522848,30 71,30 C70.4477152,30 70,30.4477152 70,31 C70,31.5522848 70.4477152,32 71,32 Z M71,32"></path>
                                <path d="M61,32 C61.5522848,32 62,31.5522848 62,31 C62,30.4477152 61.5522848,30 61,30 C60.4477152,30 60,30.4477152 60,31 C60,31.5522848 60.4477152,32 61,32 Z M61,32"></path>
                                <path d="M51,32 C51.5522848,32 52,31.5522848 52,31 C52,30.4477152 51.5522848,30 51,30 C50.4477152,30 50,30.4477152 50,31 C50,31.5522848 50.4477152,32 51,32 Z M51,32"></path>
                                <path d="M41,32 C41.5522848,32 42,31.5522848 42,31 C42,30.4477152 41.5522848,30 41,30 C40.4477152,30 40,30.4477152 40,31 C40,31.5522848 40.4477152,32 41,32 Z M41,32"></path>
                                <path d="M31,32 C31.5522848,32 32,31.5522848 32,31 C32,30.4477152 31.5522848,30 31,30 C30.4477152,30 30,30.4477152 30,31 C30,31.5522848 30.4477152,32 31,32 Z M31,32"></path>
                                <path d="M21,32 C21.5522848,32 22,31.5522848 22,31 C22,30.4477152 21.5522848,30 21,30 C20.4477152,30 20,30.4477152 20,31 C20,31.5522848 20.4477152,32 21,32 Z M21,32"></path>
                                <path d="M11,32 C11.5522848,32 12,31.5522848 12,31 C12,30.4477152 11.5522848,30 11,30 C10.4477152,30 10,30.4477152 10,31 C10,31.5522848 10.4477152,32 11,32 Z M11,32"></path>
                                <path d="M1,32 C1.55228478,32 2,31.5522848 2,31 C2,30.4477152 1.55228478,30 1,30 C0.447715223,30 0,30.4477152 0,31 C0,31.5522848 0.447715223,32 1,32 Z M1,32"></path>
                                <path d="M81,22 C81.5522848,22 82,21.5522848 82,21 C82,20.4477152 81.5522848,20 81,20 C80.4477152,20 80,20.4477152 80,21 C80,21.5522848 80.4477152,22 81,22 Z M81,22"></path>
                                <path d="M71,22 C71.5522848,22 72,21.5522848 72,21 C72,20.4477152 71.5522848,20 71,20 C70.4477152,20 70,20.4477152 70,21 C70,21.5522848 70.4477152,22 71,22 Z M71,22"></path>
                                <path d="M61,22 C61.5522848,22 62,21.5522848 62,21 C62,20.4477152 61.5522848,20 61,20 C60.4477152,20 60,20.4477152 60,21 C60,21.5522848 60.4477152,22 61,22 Z M61,22"></path>
                                <path d="M51,22 C51.5522848,22 52,21.5522848 52,21 C52,20.4477152 51.5522848,20 51,20 C50.4477152,20 50,20.4477152 50,21 C50,21.5522848 50.4477152,22 51,22 Z M51,22"></path>
                                <path d="M41,22 C41.5522848,22 42,21.5522848 42,21 C42,20.4477152 41.5522848,20 41,20 C40.4477152,20 40,20.4477152 40,21 C40,21.5522848 40.4477152,22 41,22 Z M41,22"></path>
                                <path d="M31,22 C31.5522848,22 32,21.5522848 32,21 C32,20.4477152 31.5522848,20 31,20 C30.4477152,20 30,20.4477152 30,21 C30,21.5522848 30.4477152,22 31,22 Z M31,22"></path>
                                <path d="M21,22 C21.5522848,22 22,21.5522848 22,21 C22,20.4477152 21.5522848,20 21,20 C20.4477152,20 20,20.4477152 20,21 C20,21.5522848 20.4477152,22 21,22 Z M21,22"></path>
                                <path d="M11,22 C11.5522848,22 12,21.5522848 12,21 C12,20.4477152 11.5522848,20 11,20 C10.4477152,20 10,20.4477152 10,21 C10,21.5522848 10.4477152,22 11,22 Z M11,22"></path>
                                <path d="M1,22 C1.55228478,22 2,21.5522848 2,21 C2,20.4477152 1.55228478,20 1,20 C0.447715223,20 0,20.4477152 0,21 C0,21.5522848 0.447715223,22 1,22 Z M1,22"></path>
                                <path d="M81,12 C81.5522848,12 82,11.5522848 82,11 C82,10.4477152 81.5522848,10 81,10 C80.4477152,10 80,10.4477152 80,11 C80,11.5522848 80.4477152,12 81,12 Z M81,12"></path>
                                <path d="M71,12 C71.5522848,12 72,11.5522848 72,11 C72,10.4477152 71.5522848,10 71,10 C70.4477152,10 70,10.4477152 70,11 C70,11.5522848 70.4477152,12 71,12 Z M71,12"></path>
                                <path d="M61,12 C61.5522848,12 62,11.5522848 62,11 C62,10.4477152 61.5522848,10 61,10 C60.4477152,10 60,10.4477152 60,11 C60,11.5522848 60.4477152,12 61,12 Z M61,12"></path>
                                <path d="M51,12 C51.5522848,12 52,11.5522848 52,11 C52,10.4477152 51.5522848,10 51,10 C50.4477152,10 50,10.4477152 50,11 C50,11.5522848 50.4477152,12 51,12 Z M51,12"></path>
                                <path d="M41,12 C41.5522848,12 42,11.5522848 42,11 C42,10.4477152 41.5522848,10 41,10 C40.4477152,10 40,10.4477152 40,11 C40,11.5522848 40.4477152,12 41,12 Z M41,12"></path>
                                <path d="M31,12 C31.5522848,12 32,11.5522848 32,11 C32,10.4477152 31.5522848,10 31,10 C30.4477152,10 30,10.4477152 30,11 C30,11.5522848 30.4477152,12 31,12 Z M31,12"></path>
                                <path d="M21,12 C21.5522848,12 22,11.5522848 22,11 C22,10.4477152 21.5522848,10 21,10 C20.4477152,10 20,10.4477152 20,11 C20,11.5522848 20.4477152,12 21,12 Z M21,12"></path>
                                <path d="M11,12 C11.5522848,12 12,11.5522848 12,11 C12,10.4477152 11.5522848,10 11,10 C10.4477152,10 10,10.4477152 10,11 C10,11.5522848 10.4477152,12 11,12 Z M11,12"></path>
                                <path d="M1,12 C1.55228478,12 2,11.5522848 2,11 C2,10.4477152 1.55228478,10 1,10 C0.447715223,10 0,10.4477152 0,11 C0,11.5522848 0.447715223,12 1,12 Z M1,12"></path>
                                <path d="M81,2 C81.5522848,2 82,1.55228478 82,1 C82,0.447715223 81.5522848,0 81,0 C80.4477152,0 80,0.447715223 80,1 C80,1.55228478 80.4477152,2 81,2 Z M81,2"></path>
                                <path d="M71,2 C71.5522848,2 72,1.55228478 72,1 C72,0.447715223 71.5522848,0 71,0 C70.4477152,0 70,0.447715223 70,1 C70,1.55228478 70.4477152,2 71,2 Z M71,2"></path>
                                <path d="M61,2 C61.5522848,2 62,1.55228478 62,1 C62,0.447715223 61.5522848,0 61,0 C60.4477152,0 60,0.447715223 60,1 C60,1.55228478 60.4477152,2 61,2 Z M61,2"></path>
                                <path d="M51,2 C51.5522848,2 52,1.55228478 52,1 C52,0.447715223 51.5522848,0 51,0 C50.4477152,0 50,0.447715223 50,1 C50,1.55228478 50.4477152,2 51,2 Z M51,2"></path>
                                <path d="M41,2 C41.5522848,2 42,1.55228478 42,1 C42,0.447715223 41.5522848,0 41,0 C40.4477152,0 40,0.447715223 40,1 C40,1.55228478 40.4477152,2 41,2 Z M41,2"></path>
                                <path d="M31,2 C31.5522848,2 32,1.55228478 32,1 C32,0.447715223 31.5522848,0 31,0 C30.4477152,0 30,0.447715223 30,1 C30,1.55228478 30.4477152,2 31,2 Z M31,2"></path>
                                <path d="M21,2 C21.5522848,2 22,1.55228478 22,1 C22,0.447715223 21.5522848,0 21,0 C20.4477152,0 20,0.447715223 20,1 C20,1.55228478 20.4477152,2 21,2 Z M21,2"></path>
                                <path d="M11,2 C11.5522848,2 12,1.55228478 12,1 C12,0.447715223 11.5522848,0 11,0 C10.4477152,0 10,0.447715223 10,1 C10,1.55228478 10.4477152,2 11,2 Z M11,2"></path>
                            </g>
                            <g id="Group copy" transform="translate(90.000000, 0.000000)">
                                <path d="M1,2 C1.55228478,2 2,1.55228478 2,1 C2,0.447715223 1.55228478,0 1,0 C0.447715223,0 0,0.447715223 0,1 C0,1.55228478 0.447715223,2 1,2 Z M1,2" id="Oval 17"></path>
                                <path d="M31,122 C31.5522848,122 32,121.552285 32,121 C32,120.447715 31.5522848,120 31,120 C30.4477152,120 30,120.447715 30,121 C30,121.552285 30.4477152,122 31,122 Z M31,122" id="Oval 17"></path>
                                <path d="M21,122 C21.5522848,122 22,121.552285 22,121 C22,120.447715 21.5522848,120 21,120 C20.4477152,120 20,120.447715 20,121 C20,121.552285 20.4477152,122 21,122 Z M21,122" id="Oval 17"></path>
                                <path d="M11,122 C11.5522848,122 12,121.552285 12,121 C12,120.447715 11.5522848,120 11,120 C10.4477152,120 10,120.447715 10,121 C10,121.552285 10.4477152,122 11,122 Z M11,122" id="Oval 17"></path>
                                <path d="M1,122 C1.55228478,122 2,121.552285 2,121 C2,120.447715 1.55228478,120 1,120 C0.447715223,120 0,120.447715 0,121 C0,121.552285 0.447715223,122 1,122 Z M1,122" id="Oval 17"></path>
                                <path d="M31,112 C31.5522848,112 32,111.552285 32,111 C32,110.447715 31.5522848,110 31,110 C30.4477152,110 30,110.447715 30,111 C30,111.552285 30.4477152,112 31,112 Z M31,112" id="Oval 17"></path>
                                <path d="M21,112 C21.5522848,112 22,111.552285 22,111 C22,110.447715 21.5522848,110 21,110 C20.4477152,110 20,110.447715 20,111 C20,111.552285 20.4477152,112 21,112 Z M21,112" id="Oval 17"></path>
                                <path d="M11,112 C11.5522848,112 12,111.552285 12,111 C12,110.447715 11.5522848,110 11,110 C10.4477152,110 10,110.447715 10,111 C10,111.552285 10.4477152,112 11,112 Z M11,112" id="Oval 17"></path>
                                <path d="M1,112 C1.55228478,112 2,111.552285 2,111 C2,110.447715 1.55228478,110 1,110 C0.447715223,110 0,110.447715 0,111 C0,111.552285 0.447715223,112 1,112 Z M1,112" id="Oval 17"></path>
                                <path d="M31,102 C31.5522848,102 32,101.552285 32,101 C32,100.447715 31.5522848,100 31,100 C30.4477152,100 30,100.447715 30,101 C30,101.552285 30.4477152,102 31,102 Z M31,102" id="Oval 17"></path>
                                <path d="M21,102 C21.5522848,102 22,101.552285 22,101 C22,100.447715 21.5522848,100 21,100 C20.4477152,100 20,100.447715 20,101 C20,101.552285 20.4477152,102 21,102 Z M21,102" id="Oval 17"></path>
                                <path d="M11,102 C11.5522848,102 12,101.552285 12,101 C12,100.447715 11.5522848,100 11,100 C10.4477152,100 10,100.447715 10,101 C10,101.552285 10.4477152,102 11,102 Z M11,102" id="Oval 17"></path>
                                <path d="M1,102 C1.55228478,102 2,101.552285 2,101 C2,100.447715 1.55228478,100 1,100 C0.447715223,100 0,100.447715 0,101 C0,101.552285 0.447715223,102 1,102 Z M1,102" id="Oval 17"></path>
                                <path d="M31,92 C31.5522848,92 32,91.5522848 32,91 C32,90.4477152 31.5522848,90 31,90 C30.4477152,90 30,90.4477152 30,91 C30,91.5522848 30.4477152,92 31,92 Z M31,92" id="Oval 17"></path>
                                <path d="M21,92 C21.5522848,92 22,91.5522848 22,91 C22,90.4477152 21.5522848,90 21,90 C20.4477152,90 20,90.4477152 20,91 C20,91.5522848 20.4477152,92 21,92 Z M21,92" id="Oval 17"></path>
                                <path d="M11,92 C11.5522848,92 12,91.5522848 12,91 C12,90.4477152 11.5522848,90 11,90 C10.4477152,90 10,90.4477152 10,91 C10,91.5522848 10.4477152,92 11,92 Z M11,92" id="Oval 17"></path>
                                <path d="M1,92 C1.55228478,92 2,91.5522848 2,91 C2,90.4477152 1.55228478,90 1,90 C0.447715223,90 0,90.4477152 0,91 C0,91.5522848 0.447715223,92 1,92 Z M1,92" id="Oval 17"></path>
                                <path d="M31,82 C31.5522848,82 32,81.5522848 32,81 C32,80.4477152 31.5522848,80 31,80 C30.4477152,80 30,80.4477152 30,81 C30,81.5522848 30.4477152,82 31,82 Z M31,82" id="Oval 17"></path>
                                <path d="M21,82 C21.5522848,82 22,81.5522848 22,81 C22,80.4477152 21.5522848,80 21,80 C20.4477152,80 20,80.4477152 20,81 C20,81.5522848 20.4477152,82 21,82 Z M21,82" id="Oval 17"></path>
                                <path d="M11,82 C11.5522848,82 12,81.5522848 12,81 C12,80.4477152 11.5522848,80 11,80 C10.4477152,80 10,80.4477152 10,81 C10,81.5522848 10.4477152,82 11,82 Z M11,82" id="Oval 17"></path>
                                <path d="M1,82 C1.55228478,82 2,81.5522848 2,81 C2,80.4477152 1.55228478,80 1,80 C0.447715223,80 0,80.4477152 0,81 C0,81.5522848 0.447715223,82 1,82 Z M1,82" id="Oval 17"></path>
                                <path d="M31,72 C31.5522848,72 32,71.5522848 32,71 C32,70.4477152 31.5522848,70 31,70 C30.4477152,70 30,70.4477152 30,71 C30,71.5522848 30.4477152,72 31,72 Z M31,72" id="Oval 17"></path>
                                <path d="M21,72 C21.5522848,72 22,71.5522848 22,71 C22,70.4477152 21.5522848,70 21,70 C20.4477152,70 20,70.4477152 20,71 C20,71.5522848 20.4477152,72 21,72 Z M21,72" id="Oval 17"></path>
                                <path d="M11,72 C11.5522848,72 12,71.5522848 12,71 C12,70.4477152 11.5522848,70 11,70 C10.4477152,70 10,70.4477152 10,71 C10,71.5522848 10.4477152,72 11,72 Z M11,72" id="Oval 17"></path>
                                <path d="M1,72 C1.55228478,72 2,71.5522848 2,71 C2,70.4477152 1.55228478,70 1,70 C0.447715223,70 0,70.4477152 0,71 C0,71.5522848 0.447715223,72 1,72 Z M1,72" id="Oval 17"></path>
                                <path d="M31,62 C31.5522848,62 32,61.5522848 32,61 C32,60.4477152 31.5522848,60 31,60 C30.4477152,60 30,60.4477152 30,61 C30,61.5522848 30.4477152,62 31,62 Z M31,62" id="Oval 17"></path>
                                <path d="M21,62 C21.5522848,62 22,61.5522848 22,61 C22,60.4477152 21.5522848,60 21,60 C20.4477152,60 20,60.4477152 20,61 C20,61.5522848 20.4477152,62 21,62 Z M21,62" id="Oval 17"></path>
                                <path d="M11,62 C11.5522848,62 12,61.5522848 12,61 C12,60.4477152 11.5522848,60 11,60 C10.4477152,60 10,60.4477152 10,61 C10,61.5522848 10.4477152,62 11,62 Z M11,62" id="Oval 17"></path>
                                <path d="M1,62 C1.55228478,62 2,61.5522848 2,61 C2,60.4477152 1.55228478,60 1,60 C0.447715223,60 0,60.4477152 0,61 C0,61.5522848 0.447715223,62 1,62 Z M1,62" id="Oval 17"></path>
                                <path d="M31,52 C31.5522848,52 32,51.5522848 32,51 C32,50.4477152 31.5522848,50 31,50 C30.4477152,50 30,50.4477152 30,51 C30,51.5522848 30.4477152,52 31,52 Z M31,52" id="Oval 17"></path>
                                <path d="M21,52 C21.5522848,52 22,51.5522848 22,51 C22,50.4477152 21.5522848,50 21,50 C20.4477152,50 20,50.4477152 20,51 C20,51.5522848 20.4477152,52 21,52 Z M21,52" id="Oval 17"></path>
                                <path d="M11,52 C11.5522848,52 12,51.5522848 12,51 C12,50.4477152 11.5522848,50 11,50 C10.4477152,50 10,50.4477152 10,51 C10,51.5522848 10.4477152,52 11,52 Z M11,52" id="Oval 17"></path>
                                <path d="M1,52 C1.55228478,52 2,51.5522848 2,51 C2,50.4477152 1.55228478,50 1,50 C0.447715223,50 0,50.4477152 0,51 C0,51.5522848 0.447715223,52 1,52 Z M1,52" id="Oval 17"></path>
                                <path d="M31,42 C31.5522848,42 32,41.5522848 32,41 C32,40.4477152 31.5522848,40 31,40 C30.4477152,40 30,40.4477152 30,41 C30,41.5522848 30.4477152,42 31,42 Z M31,42" id="Oval 17"></path>
                                <path d="M21,42 C21.5522848,42 22,41.5522848 22,41 C22,40.4477152 21.5522848,40 21,40 C20.4477152,40 20,40.4477152 20,41 C20,41.5522848 20.4477152,42 21,42 Z M21,42" id="Oval 17"></path>
                                <path d="M11,42 C11.5522848,42 12,41.5522848 12,41 C12,40.4477152 11.5522848,40 11,40 C10.4477152,40 10,40.4477152 10,41 C10,41.5522848 10.4477152,42 11,42 Z M11,42" id="Oval 17"></path>
                                <path d="M1,42 C1.55228478,42 2,41.5522848 2,41 C2,40.4477152 1.55228478,40 1,40 C0.447715223,40 0,40.4477152 0,41 C0,41.5522848 0.447715223,42 1,42 Z M1,42" id="Oval 17"></path>
                                <path d="M31,32 C31.5522848,32 32,31.5522848 32,31 C32,30.4477152 31.5522848,30 31,30 C30.4477152,30 30,30.4477152 30,31 C30,31.5522848 30.4477152,32 31,32 Z M31,32" id="Oval 17"></path>
                                <path d="M21,32 C21.5522848,32 22,31.5522848 22,31 C22,30.4477152 21.5522848,30 21,30 C20.4477152,30 20,30.4477152 20,31 C20,31.5522848 20.4477152,32 21,32 Z M21,32" id="Oval 17"></path>
                                <path d="M11,32 C11.5522848,32 12,31.5522848 12,31 C12,30.4477152 11.5522848,30 11,30 C10.4477152,30 10,30.4477152 10,31 C10,31.5522848 10.4477152,32 11,32 Z M11,32" id="Oval 17"></path>
                                <path d="M1,32 C1.55228478,32 2,31.5522848 2,31 C2,30.4477152 1.55228478,30 1,30 C0.447715223,30 0,30.4477152 0,31 C0,31.5522848 0.447715223,32 1,32 Z M1,32" id="Oval 17"></path>
                                <path d="M31,22 C31.5522848,22 32,21.5522848 32,21 C32,20.4477152 31.5522848,20 31,20 C30.4477152,20 30,20.4477152 30,21 C30,21.5522848 30.4477152,22 31,22 Z M31,22" id="Oval 17"></path>
                                <path d="M21,22 C21.5522848,22 22,21.5522848 22,21 C22,20.4477152 21.5522848,20 21,20 C20.4477152,20 20,20.4477152 20,21 C20,21.5522848 20.4477152,22 21,22 Z M21,22" id="Oval 17"></path>
                                <path d="M11,22 C11.5522848,22 12,21.5522848 12,21 C12,20.4477152 11.5522848,20 11,20 C10.4477152,20 10,20.4477152 10,21 C10,21.5522848 10.4477152,22 11,22 Z M11,22" id="Oval 17"></path>
                                <path d="M1,22 C1.55228478,22 2,21.5522848 2,21 C2,20.4477152 1.55228478,20 1,20 C0.447715223,20 0,20.4477152 0,21 C0,21.5522848 0.447715223,22 1,22 Z M1,22" id="Oval 17"></path>
                                <path d="M31,12 C31.5522848,12 32,11.5522848 32,11 C32,10.4477152 31.5522848,10 31,10 C30.4477152,10 30,10.4477152 30,11 C30,11.5522848 30.4477152,12 31,12 Z M31,12" id="Oval 17"></path>
                                <path d="M21,12 C21.5522848,12 22,11.5522848 22,11 C22,10.4477152 21.5522848,10 21,10 C20.4477152,10 20,10.4477152 20,11 C20,11.5522848 20.4477152,12 21,12 Z M21,12" id="Oval 17"></path>
                                <path d="M11,12 C11.5522848,12 12,11.5522848 12,11 C12,10.4477152 11.5522848,10 11,10 C10.4477152,10 10,10.4477152 10,11 C10,11.5522848 10.4477152,12 11,12 Z M11,12" id="Oval 17"></path>
                                <path d="M1,12 C1.55228478,12 2,11.5522848 2,11 C2,10.4477152 1.55228478,10 1,10 C0.447715223,10 0,10.4477152 0,11 C0,11.5522848 0.447715223,12 1,12 Z M1,12" id="Oval 17"></path>
                                <path d="M31,2 C31.5522848,2 32,1.55228478 32,1 C32,0.447715223 31.5522848,0 31,0 C30.4477152,0 30,0.447715223 30,1 C30,1.55228478 30.4477152,2 31,2 Z M31,2" id="Oval 17"></path>
                                <path d="M21,2 C21.5522848,2 22,1.55228478 22,1 C22,0.447715223 21.5522848,0 21,0 C20.4477152,0 20,0.447715223 20,1 C20,1.55228478 20.4477152,2 21,2 Z M21,2" id="Oval 17"></path>
                                <path d="M11,2 C11.5522848,2 12,1.55228478 12,1 C12,0.447715223 11.5522848,0 11,0 C10.4477152,0 10,0.447715223 10,1 C10,1.55228478 10.4477152,2 11,2 Z M11,2" id="Oval 17"></path>
                            </g>
                        </g>
                    </g>
                </g>
                <g id="Group" transform="translate(-59.000000, -54.000000)" mask="url(#mask-4)"></g>
                <g id="pen" transform="translate(42.000000, 46.000000)" mask="url(#mask-4)">
                    <path d="M2.32792279,0 L9.67207721,0 C10.4044018,0 11,0.594177242 11,1.32713201 L11,115 L9,115 L9,117 L11,117 L11,118.672868 C11,119.410939 10.4054687,120 9.67207721,120 L2.32792279,120 C1.59559822,120 1,119.405823 1,118.672868 L1,117 L3,117 L3,115 L1,115 L1,1.32713201 C1,0.589061379 1.59453128,0 2.32792279,0 Z M2.32792279,0" id="Rectangle 12" fill="#96D7CB"></path>
                    <g id="cap" transform="translate(1.000000, 5.000000)" fill="#DBDADD">
                        <path d="M0,30 L0,32 L10,32 L10,30 L0,30 Z M0,30" id="Rectangle copy"></path>
                        <path d="M10,0 L10,2 L16,2 L16,0 L10,0 Z M10,0" id="Rectangle 18"></path>
                        <path d="M14,2 L14,28 L16,28 L16,2 L14,2 Z M14,2" id="Rectangle 19"></path>
                        <path d="M10,28 L16,28 L16,34 L10,34 Z M11,30 L11,32 L14,32 L14,30 Z M11,30" id="Rectangle 20"></path>
                    </g>
                    <path d="M1.99539757,0 C1.44565467,0 1,0.437881351 1,1.00292933 L1,7 L11,7 L11,1.00292933 C11,0.449026756 10.5443356,0 10.0046024,0 L1.99539757,0 Z M1.99539757,0" id="Rectangle 35" fill="#DBDADD"></path>
                </g>
            </g>
        </g>
    </g>
</svg>