<?xml version="1.0" encoding="UTF-8" standalone="no"?>
<svg width="200px" height="200px" viewBox="0 0 200 200" version="1.1" xmlns="http://www.w3.org/2000/svg" xmlns:xlink="http://www.w3.org/1999/xlink" xmlns:sketch="http://www.bohemiancoding.com/sketch/ns">
    <title>mockup</title>
    <description>Created with Sketch (http://www.bohemiancoding.com/sketch)</description>
    <defs>
        <path d="M100,200 C155.228478,200 200,155.228478 200,100 C200,44.7715223 155.228478,0 100,0 C44.7715223,0 0,44.7715223 0,100 C0,155.228478 44.7715223,200 100,200 Z M100,200" id="path-1" stroke="none" fill-rule="evenodd"></path>
        <mask id="mask-2" fill="white">
            <use xlink:href="#path-1"></use>
        </mask>
    </defs>
    <g id="Page 1" stroke="none" stroke-width="1" fill="none" fill-rule="evenodd">
        <g id="Artboard 2" transform="translate(-77.000000, -82.000000)">
            <g id="Group" transform="translate(77.000000, 82.000000)">
                <use id="Oval 9" xlink:href="#path-1" fill="#71BFB1"></use>
                <g id="Group copy" transform="translate(36.000000, 36.000000)" mask="url(#mask-2)">
                    <g id="brows">
                        <g id="Group">
                            <path d="M1.5009573,4.1877551 C0.672001471,4.1877551 0,4.86103555 0,5.68163228 L0,18.1469388 L140,18.1469388 L140,5.68163228 C140,4.8565867 139.328803,4.1877551 138.499043,4.1877551 L1.5009573,4.1877551 Z M1.5009573,4.1877551" id="nav" fill="#D4D4D4"></path>
                            <g transform="translate(7.000000, 9.771429)" fill="#F3F0F0">
                                <path d="M1.4,2.79183673 C2.17319869,2.79183673 2.8,2.16686283 2.8,1.39591837 C2.8,0.624973903 2.17319869,0 1.4,0 C0.626801312,0 0,0.624973903 0,1.39591837 C0,2.16686283 0.626801312,2.79183673 1.4,2.79183673 Z M1.4,2.79183673" id="Oval 1"></path>
                                <path d="M7,2.79183673 C7.77319869,2.79183673 8.4,2.16686283 8.4,1.39591837 C8.4,0.624973903 7.77319869,0 7,0 C6.22680131,0 5.6,0.624973903 5.6,1.39591837 C5.6,2.16686283 6.22680131,2.79183673 7,2.79183673 Z M7,2.79183673" id="Oval 1 copy"></path>
                                <path d="M12.6,2.79183673 C13.3731987,2.79183673 14,2.16686283 14,1.39591837 C14,0.624973903 13.3731987,0 12.6,0 C11.8268013,0 11.2,0.624973903 11.2,1.39591837 C11.2,2.16686283 11.8268013,2.79183673 12.6,2.79183673 Z M12.6,2.79183673" id="Oval 1 copy 2"></path>
                            </g>
                            <path d="M0,18.1469388 L0,227.534694 L140,227.534694 L140,18.1469388 L0,18.1469388 Z M0,18.1469388" id="Rectangle 4" fill="#F5F5F5"></path>
                            <g></g>
                            <path d="M0,18.1469388 L0,75.3795918 L140,75.3795918 L140,18.1469388 L0,18.1469388 Z M0,18.1469388" id="Rectangle 5" fill="#4A4A4A"></path>
                            <path d="M18.2038588,99.8204082 C17.428529,99.8204082 16.8,100.439293 16.8,101.215001 L16.8,104.009488 C16.8,104.779701 17.424847,105.404082 18.2038588,105.404082 L121.796141,105.404082 C122.571471,105.404082 123.2,104.785197 123.2,104.009488 L123.2,101.215001 C123.2,100.444789 122.575153,99.8204082 121.796141,99.8204082 L18.2038588,99.8204082 Z M18.2038588,99.8204082" id="Rectangle 6 copy" fill="#D4D4D4"></path>
                            <path d="M18.2038588,110.987755 C17.428529,110.987755 16.8,111.60664 16.8,112.382348 L16.8,115.176835 C16.8,115.947048 17.424847,116.571429 18.2038588,116.571429 L121.796141,116.571429 C122.571471,116.571429 123.2,115.952544 123.2,115.176835 L123.2,112.382348 C123.2,111.612136 122.575153,110.987755 121.796141,110.987755 L18.2038588,110.987755 Z M18.2038588,110.987755" id="Rectangle 6 copy 2" fill="#D4D4D4"></path>
                            <path d="M18.2038588,122.155102 C17.428529,122.155102 16.8,122.773987 16.8,123.549695 L16.8,126.344182 C16.8,127.114395 17.424847,127.738776 18.2038588,127.738776 L121.796141,127.738776 C122.571471,127.738776 123.2,127.119891 123.2,126.344182 L123.2,123.549695 C123.2,122.779483 122.575153,122.155102 121.796141,122.155102 L18.2038588,122.155102 Z M18.2038588,122.155102" id="Rectangle 6 copy 3" fill="#D4D4D4"></path>
                            <path d="M18.2038588,133.322449 C17.428529,133.322449 16.8,133.941334 16.8,134.717042 L16.8,137.511529 C16.8,138.281742 17.424847,138.906122 18.2038588,138.906122 L121.796141,138.906122 C122.571471,138.906122 123.2,138.287238 123.2,137.511529 L123.2,134.717042 C123.2,133.94683 122.575153,133.322449 121.796141,133.322449 L18.2038588,133.322449 Z M18.2038588,133.322449" id="Rectangle 6 copy 4" fill="#D4D4D4"></path>
                        </g>
                    </g>
                    <g id="Group" transform="translate(16.800000, 129.820408)"></g>
                </g>
                <g transform="translate(70.000000, 60.000000)" mask="url(#mask-2)">
                    <g id="brows">
                        <g id="Group">
                            <path d="M1.5009573,4.1877551 C0.672001471,4.1877551 0,4.86103555 0,5.68163228 L0,18.1469388 L140,18.1469388 L140,5.68163228 C140,4.8565867 139.328803,4.1877551 138.499043,4.1877551 L1.5009573,4.1877551 Z M1.5009573,4.1877551" id="nav" fill="#D4D4D4"></path>
                            <g transform="translate(7.000000, 9.771429)" fill="#F3F0F0">
                                <path d="M1.4,2.79183673 C2.17319869,2.79183673 2.8,2.16686283 2.8,1.39591837 C2.8,0.624973903 2.17319869,0 1.4,0 C0.626801312,0 0,0.624973903 0,1.39591837 C0,2.16686283 0.626801312,2.79183673 1.4,2.79183673 Z M1.4,2.79183673" id="Oval 1"></path>
                                <path d="M7,2.79183673 C7.77319869,2.79183673 8.4,2.16686283 8.4,1.39591837 C8.4,0.624973903 7.77319869,0 7,0 C6.22680131,0 5.6,0.624973903 5.6,1.39591837 C5.6,2.16686283 6.22680131,2.79183673 7,2.79183673 Z M7,2.79183673" id="Oval 1 copy"></path>
                                <path d="M12.6,2.79183673 C13.3731987,2.79183673 14,2.16686283 14,1.39591837 C14,0.624973903 13.3731987,0 12.6,0 C11.8268013,0 11.2,0.624973903 11.2,1.39591837 C11.2,2.16686283 11.8268013,2.79183673 12.6,2.79183673 Z M12.6,2.79183673" id="Oval 1 copy 2"></path>
                            </g>
                            <path d="M0,18.1469388 L0,227.534694 L140,227.534694 L140,18.1469388 L0,18.1469388 Z M0,18.1469388" id="Rectangle 4" fill="#F5F5F5"></path>
                            <g></g>
                            <path d="M0,18.1469388 L0,75.3795918 L140,75.3795918 L140,18.1469388 L0,18.1469388 Z M0,18.1469388" id="Rectangle 5" fill="#EC9E92"></path>
                            <path d="M18.2038588,129.820408 C17.428529,129.820408 16.8,130.439293 16.8,131.215001 L16.8,134.009488 C16.8,134.779701 17.424847,135.404082 18.2038588,135.404082 L121.796141,135.404082 C122.571471,135.404082 123.2,134.785197 123.2,134.009488 L123.2,131.215001 C123.2,130.444789 122.575153,129.820408 121.796141,129.820408 L18.2038588,129.820408 Z M18.2038588,129.820408" id="Rectangle 6 copy" fill="#D4D4D4"></path>
                            <g transform="translate(16.800000, 93.526531)" fill="#EC9E92">
                                <path d="M10.5,20.9387755 C16.2989902,20.9387755 21,16.2514712 21,10.4693878 C21,4.68730427 16.2989902,0 10.5,0 C4.70100984,0 0,4.68730427 0,10.4693878 C0,16.2514712 4.70100984,20.9387755 10.5,20.9387755 Z M10.5,20.9387755" id="Oval 10"></path>
                                <path d="M53.9,20.9387755 C59.6989902,20.9387755 64.4,16.2514712 64.4,10.4693878 C64.4,4.68730427 59.6989902,0 53.9,0 C48.1010098,0 43.4,4.68730427 43.4,10.4693878 C43.4,16.2514712 48.1010098,20.9387755 53.9,20.9387755 Z M53.9,20.9387755" id="Oval 10 copy"></path>
                                <path d="M97.3,20.9387755 C103.09899,20.9387755 107.8,16.2514712 107.8,10.4693878 C107.8,4.68730427 103.09899,0 97.3,0 C91.5010098,0 86.8,4.68730427 86.8,10.4693878 C86.8,16.2514712 91.5010098,20.9387755 97.3,20.9387755 Z M97.3,20.9387755" id="Oval 10 copy 2"></path>
                            </g>
                        </g>
                    </g>
                    <g transform="translate(16.800000, 129.820408)"></g>
                </g>
            </g>
        </g>
    </g>
</svg>