<?xml version="1.0" encoding="UTF-8" standalone="no"?>
<svg width="600px" height="400px" viewBox="0 0 600 400" version="1.1" xmlns="http://www.w3.org/2000/svg" xmlns:xlink="http://www.w3.org/1999/xlink" xmlns:sketch="http://www.bohemiancoding.com/sketch/ns">
    <title>Artboard 1</title>
    <description>Created with Sketch (http://www.bohemiancoding.com/sketch)</description>
    <defs></defs>
    <g id="Page 1" fill="#D8D8D8" fill-rule="evenodd">
        <g id="Artboard 1">
            <path d="M0,0 L0,400 L600,400 L600,0 L0,0 Z M0,0" id="Rectangle 1" fill="#5BBDA4"></path>
            <path d="M162.936,200.104 L169.56,200.104 C172.872,200.104 175.656,197.416 175.656,193.96 C175.656,190.696 172.872,188.2 169.56,188.2 L162.936,188.2 Z M157.992,216.088 L157.992,184.312 C157.992,183.832 158.376,183.4 158.904,183.4 L169.848,183.4 C175.752,183.4 180.6,188.2 180.6,194.008 C180.6,199.96 175.752,204.808 169.896,204.808 L162.936,204.808 L162.936,216.088 C162.936,216.568 162.504,217 162.024,217 L158.904,217 C158.376,217 157.992,216.568 157.992,216.088 Z M183.44,198.712 C183.44,198.232 183.872,197.8 184.352,197.8 L185.744,197.8 C186.08,197.8 186.464,198.088 186.56,198.472 L187.088,200.104 C187.424,199.624 189.2,197.32 192.704,197.32 C194.528,197.32 196.736,197.8 196.208,199.096 L195.056,201.448 C194.816,201.976 194.336,202.072 193.904,201.88 C193.616,201.736 192.896,201.544 192.272,201.544 C189.488,201.544 188.144,203.56 187.952,203.896 L187.952,216.088 C187.952,216.904 187.424,217 186.656,217 L184.352,217 C183.872,217 183.44,216.568 183.44,216.088 Z M196.984,207.352 C196.984,201.928 201.304,197.32 206.68,197.32 C212.056,197.32 216.376,201.928 216.376,207.352 C216.376,212.872 212.056,217.48 206.68,217.48 C201.304,217.48 196.984,212.872 196.984,207.352 Z M201.256,207.352 C201.256,210.664 203.656,213.352 206.68,213.352 C209.704,213.352 212.104,210.664 212.104,207.352 C212.104,204.136 209.704,201.496 206.68,201.496 C203.656,201.496 201.256,204.136 201.256,207.352 Z M222.432,189.976 C220.896,189.976 219.696,188.728 219.696,187.192 C219.696,185.608 220.896,184.36 222.432,184.36 C224.016,184.36 225.264,185.608 225.264,187.192 C225.264,188.728 224.016,189.976 222.432,189.976 Z M220.176,222.952 L220.176,198.712 C220.176,198.184 220.608,197.8 221.088,197.8 L223.872,197.8 C224.352,197.8 224.784,198.184 224.784,198.712 L224.784,222.952 C224.784,228.904 221.232,231.88 216.624,231.88 C214.032,231.88 212.016,230.776 211.152,229.96 C210.816,229.72 210.768,229.192 210.96,228.856 L212.16,226.696 C212.4,226.264 212.88,226.264 213.36,226.552 C213.984,226.984 215.376,227.752 216.528,227.752 C218.688,227.752 220.176,226.216 220.176,222.952 Z M228.632,207.4 C228.632,201.976 232.472,197.32 238.232,197.32 C243.224,197.32 247.064,201.064 247.064,206.2 C247.064,206.536 247.016,207.16 246.968,207.496 C246.92,207.976 246.536,208.312 246.104,208.312 L233.048,208.312 C233.192,210.904 235.448,213.448 238.568,213.448 C240.296,213.448 241.88,212.68 242.84,212.056 C243.416,211.72 243.752,211.528 244.136,212.008 L245.48,213.832 C245.816,214.216 245.96,214.6 245.384,215.08 C243.992,216.28 241.496,217.48 238.28,217.48 C232.472,217.48 228.632,212.92 228.632,207.4 Z M233.288,205.288 L242.6,205.288 C242.456,202.984 240.536,201.016 238.184,201.016 C235.592,201.016 233.576,202.888 233.288,205.288 Z M249.232,207.448 C249.232,201.784 253.984,197.32 259.312,197.32 C262.24,197.32 264.496,198.52 266.272,200.728 C266.608,201.16 266.512,201.736 266.08,202.072 L264.496,203.512 C263.92,204.04 263.584,203.656 263.2,203.32 C262.336,202.36 260.944,201.496 259.36,201.496 C256.24,201.496 253.792,204.136 253.792,207.4 C253.792,210.712 256.192,213.352 259.312,213.352 C261.76,213.352 262.768,212.104 263.776,211.144 C264.208,210.712 264.64,210.712 265.072,211.048 L266.368,212.104 C266.848,212.488 267.04,212.968 266.704,213.448 C265.168,215.896 262.576,217.48 259.264,217.48 C253.888,217.48 249.232,213.208 249.232,207.448 Z M271.752,201.784 L269.736,201.784 C269.208,201.784 268.824,201.352 268.824,200.872 L268.824,198.712 C268.824,198.184 269.208,197.8 269.736,197.8 L271.752,197.8 L271.752,192.472 C271.752,191.992 272.184,191.56 272.664,191.56 L275.4,191.512 C275.88,191.512 276.264,191.944 276.264,192.424 L276.264,197.8 L281.16,197.8 C281.688,197.8 282.072,198.184 282.072,198.712 L282.072,200.872 C282.072,201.352 281.688,201.784 281.16,201.784 L276.264,201.784 L276.264,211.288 C276.264,212.92 276.888,213.208 277.8,213.208 C278.808,213.208 280.152,212.632 280.728,212.344 C281.352,212.056 281.64,212.344 281.832,212.776 L282.696,214.888 C282.936,215.416 282.744,215.8 282.264,216.04 C281.784,216.328 278.952,217.48 276.648,217.48 C272.856,217.48 271.752,215.176 271.752,211.768 Z M297.544,216.088 L297.544,184.312 C297.544,183.832 297.928,183.4 298.456,183.4 L309.4,183.4 C315.304,183.4 320.152,188.2 320.152,194.008 C320.152,199.96 315.304,204.808 309.448,204.808 L302.488,204.808 L302.488,216.088 C302.488,216.568 302.056,217 301.576,217 L298.456,217 C297.928,217 297.544,216.568 297.544,216.088 Z M302.488,200.104 L309.112,200.104 C312.424,200.104 315.208,197.416 315.208,193.96 C315.208,190.696 312.424,188.2 309.112,188.2 L302.488,188.2 Z M322.992,216.088 L322.992,198.712 C322.992,198.232 323.424,197.8 323.904,197.8 L325.296,197.8 C325.632,197.8 326.016,198.088 326.112,198.472 L326.64,200.104 C326.976,199.624 328.752,197.32 332.256,197.32 C334.08,197.32 336.288,197.8 335.76,199.096 L334.608,201.448 C334.368,201.976 333.888,202.072 333.456,201.88 C333.168,201.736 332.448,201.544 331.824,201.544 C329.04,201.544 327.696,203.56 327.504,203.896 L327.504,216.088 C327.504,216.904 326.976,217 326.208,217 L323.904,217 C323.424,217 322.992,216.568 322.992,216.088 Z M336.536,207.352 C336.536,201.928 340.856,197.32 346.232,197.32 C351.608,197.32 355.928,201.928 355.928,207.352 C355.928,212.872 351.608,217.48 346.232,217.48 C340.856,217.48 336.536,212.872 336.536,207.352 Z M340.808,207.352 C340.808,210.664 343.208,213.352 346.232,213.352 C349.256,213.352 351.656,210.664 351.656,207.352 C351.656,204.136 349.256,201.496 346.232,201.496 C343.208,201.496 340.808,204.136 340.808,207.352 Z M364.336,216.184 L364.336,230.488 C364.336,231.016 364,231.4 363.328,231.4 L360.64,231.4 C360.16,231.4 359.728,230.968 359.728,230.488 L359.728,198.712 C359.728,198.232 360.16,197.8 360.64,197.8 L362.08,197.8 C362.464,197.8 362.704,197.992 362.896,198.424 L363.376,199.672 C363.712,199.336 365.68,197.32 369.232,197.32 C374.512,197.32 378.4,201.928 378.4,207.448 C378.4,213.064 374.272,217.48 369.04,217.48 C366.544,217.48 364.672,216.376 364.336,216.184 Z M364.24,211.96 C364.24,211.96 365.92,213.352 368.464,213.352 C371.632,213.352 373.936,210.712 373.936,207.448 C373.936,204.232 371.92,201.496 368.656,201.496 C365.872,201.496 364.432,203.704 364.24,204.28 Z M380.808,207.352 C380.808,201.928 385.128,197.32 390.504,197.32 C395.88,197.32 400.2,201.928 400.2,207.352 C400.2,212.872 395.88,217.48 390.504,217.48 C385.128,217.48 380.808,212.872 380.808,207.352 Z M385.08,207.352 C385.08,210.664 387.48,213.352 390.504,213.352 C393.528,213.352 395.928,210.664 395.928,207.352 C395.928,204.136 393.528,201.496 390.504,201.496 C387.48,201.496 385.08,204.136 385.08,207.352 Z M403.136,215.512 C402.848,215.32 402.656,214.888 402.848,214.504 L403.856,212.632 C404.048,212.248 404.576,212.104 405.056,212.392 C405.056,212.392 407.168,213.64 409.52,213.64 C410.96,213.64 411.872,213.064 411.872,212.008 C411.872,210.712 410.816,210.088 408.176,208.888 C405.2,207.592 402.704,205.768 402.704,202.6 C402.704,200.2 404.672,197.32 409.28,197.32 C411.968,197.32 413.984,198.184 414.944,198.808 C415.376,199.096 415.616,199.72 415.328,200.2 L414.464,201.832 C414.224,202.264 413.6,202.408 413.216,202.216 C413.216,202.216 411.104,201.208 409.28,201.208 C407.648,201.208 407.12,201.928 407.12,202.648 C407.12,203.896 408.32,204.424 410.192,205.24 C413.696,206.776 416.576,208.264 416.576,211.864 C416.576,214.84 413.744,217.48 409.472,217.48 C406.256,217.48 404.144,216.328 403.136,215.512 Z M418.792,211.048 C418.792,207.544 421.576,204.856 426.472,204.856 C428.488,204.856 430.264,205.432 430.264,205.432 C430.312,202.408 429.736,201.208 427.288,201.208 C425.08,201.208 422.92,201.784 421.912,202.072 C421.336,202.216 421,201.832 420.856,201.304 L420.472,199.528 C420.328,198.904 420.664,198.568 421.096,198.424 C421.432,198.28 424.168,197.32 427.72,197.32 C433.864,197.32 434.44,201.064 434.44,205.864 L434.44,216.088 C434.44,216.568 434.008,217 433.528,217 L432.184,217 C431.752,217 431.56,216.808 431.368,216.328 L430.888,215.032 C429.832,216.04 427.96,217.48 424.984,217.48 C421.384,217.48 418.792,215.032 418.792,211.048 Z M422.968,211 C422.968,212.728 424.12,214.072 425.896,214.072 C427.816,214.072 429.64,212.632 430.216,211.672 L430.216,208.6 C429.928,208.408 428.584,207.832 426.856,207.832 C424.552,207.832 422.968,209.032 422.968,211 Z M439.488,216.088 L439.488,184.312 C439.488,183.832 439.92,183.4 440.4,183.4 L443.136,183.4 C443.616,183.4 444.048,183.832 444.048,184.312 L444.048,216.088 C444.048,216.568 443.616,217 443.136,217 L440.4,217 C439.92,217 439.488,216.568 439.488,216.088 Z M439.488,216.088" id="Project Proposal" fill="#F9F9F7"></path>
        </g>
    </g>
</svg>