<?xml version="1.0" encoding="UTF-8" standalone="no"?>
<svg width="700px" height="500px" viewBox="0 0 700 500" version="1.1" xmlns="http://www.w3.org/2000/svg" xmlns:xlink="http://www.w3.org/1999/xlink" xmlns:sketch="http://www.bohemiancoding.com/sketch/ns">
    <title>Mach 2000</title>
    <description>Created with Sketch (http://www.bohemiancoding.com/sketch)</description>
    <defs></defs>
    <g id="Page 1" fill="#D8D8D8" fill-rule="evenodd">
        <g id="Artboard 1">
            <path d="M0,0 L0,500 L700,500 L700,0 L0,0 Z M0,0" id="Rectangle 1" fill="#73C7B2"></path>
            <g id="WATCH">
                <path d="M322,347 C374.467054,347 417,304.467054 417,252 C417,199.532946 374.467054,157 322,157 C269.532946,157 227,199.532946 227,252 C227,304.467054 269.532946,347 322,347 Z M320,390 C242.680131,390 180,327.319869 180,250 C180,172.680131 242.680131,110 320,110 C320.667771,110 321.33445,110.004675 322,110.013995 L322,110 L484.000217,110 C488.410085,110 492,113.583153 492,118.003197 L492,128.999998 C475.431457,129 462,142.431457 462,159 C462,175.568543 475.431457,189 492,189 L492,381.996803 C492,386.408735 488.418375,390 484.000217,390 L322,390 L322,389.986005 C321.33445,389.995325 320.667771,390 320,390 Z M320,390" id="Oval 1" fill="#2E2929"></path>
                <path d="M330,248 L330,307 L342,307 L342,248 L330,248 Z M330,248" id="Rectangle 4" fill="#CF3D3D" transform="translate(336.000000, 277.500000) rotate(-30.000000) translate(-336.000000, -277.500000)"></path>
                <path d="M316,172 L316,252 L328,252 L328,172 L316,172 Z M316,172" id="Rectangle 4 copy" fill="#FFFEF6" transform="translate(322.000000, 212.000000) rotate(-180.000000) translate(-322.000000, -212.000000)"></path>
                <path d="M322,264 C328.627417,264 334,258.627417 334,252 C334,245.372583 328.627417,240 322,240 C315.372583,240 310,245.372583 310,252 C310,258.627417 315.372583,264 322,264 Z M322,264" id="dial" fill="#D4D4D4"></path>
                <path d="M492,181.5 C504.426407,181.5 514.5,171.426407 514.5,159 C514.5,146.573593 504.426407,136.5 492,136.5 C479.573593,136.5 469.5,146.573593 469.5,159 C469.5,171.426407 479.573593,181.5 492,181.5 Z M492,181.5" id="Path copy" fill="#CF3D3D"></path>
            </g>
        </g>
    </g>
</svg>