<?xml version="1.0" encoding="UTF-8" standalone="no"?>
<svg width="200px" height="200px" viewBox="0 0 200 200" version="1.1" xmlns="http://www.w3.org/2000/svg" xmlns:xlink="http://www.w3.org/1999/xlink" xmlns:sketch="http://www.bohemiancoding.com/sketch/ns">
    <title>mic</title>
    <description>Created with Sketch (http://www.bohemiancoding.com/sketch)</description>
    <defs></defs>
    <g id="Page 1" fill="#D8D8D8" fill-rule="evenodd">
        <g id="mic">
            <path d="M0,0 L0,200 L200,200 L200,0 L0,0 Z M0,0" id="Rectangle 1 copy" fill="#F9EA89"></path>
            <g id="Group copy" fill="#705B90">
                <path d="M98.5043947,25 L102.495605,25 C113.542909,25 122.5,33.9551347 122.5,45.0018531 L122.5,70 L78.5,70 L78.5,45.0018531 C78.5,33.9585781 87.4562726,25 98.5043947,25 Z M122.5,80.5333333 L122.5,94.9981469 C122.5,106.041422 113.543727,115 102.495605,115 L98.5043947,115 C87.4570914,115 78.5,106.044865 78.5,94.9981469 L78.5,80.5333333 Z M122.5,80.5333333" id="Rectangle 2" fill="#313541"></path>
                <path d="M79.5071897,163 C77.2940799,163 75.5,164.796521 75.5,166.995826 L75.5,171.004174 C75.5,173.211008 77.2942683,175 79.5071897,175 L121.49281,175 C123.70592,175 125.5,173.203479 125.5,171.004174 L125.5,166.995826 C125.5,164.788992 123.705732,163 121.49281,163 L79.5071897,163 Z M79.5071897,163" id="Rectangle 4" fill="#313541"></path>
                <path d="M97.5065045,135 C95.2937732,135 93.5,136.785246 93.5,138.990179 L93.5,167.009821 C93.5,169.213536 95.2939455,171 97.5065045,171 L102.493495,171 C104.706227,171 106.5,169.214754 106.5,167.009821 L106.5,138.990179 C106.5,136.786464 104.706054,135 102.493495,135 L97.5065045,135 Z M97.5065045,135" id="Rectangle 8" fill="#313541"></path>
                <path d="M133,94.9958343 L133,86.0052207 C133,83.7931984 134.796521,82 136.995826,82 L141.004174,82 C143.211008,82 145,83.7934446 145,86.0053857 L145,94.9963697 C145,119.847056 124.852814,140 100,140 C75.1417218,140 55,119.851188 55,94.9963697 L55,86.0053857 C55,83.7932723 56.7965212,82 58.9958262,82 L63.0041738,82 C65.2110077,82 67,83.7933707 67,86.0052207 L67,94.9958343 C67,113.223532 81.770596,128 100,128 C118.225397,128 133,113.223499 133,94.9958343 Z M133,94.9958343" id="Rectangle 5" fill="#313541"></path>
            </g>
        </g>
    </g>
</svg>