<?xml version="1.0" encoding="UTF-8" standalone="no"?>
<svg width="800px" height="600px" viewBox="0 0 800 600" version="1.1" xmlns="http://www.w3.org/2000/svg" xmlns:xlink="http://www.w3.org/1999/xlink" xmlns:sketch="http://www.bohemiancoding.com/sketch/ns">
    <title>Username Quandary</title>
    <description>Created with Sketch (http://www.bohemiancoding.com/sketch)</description>
    <defs></defs>
    <g id="Large icons" fill="#D8D8D8" fill-rule="evenodd">
        <g id="Face copy 2">
            <path d="M0,0 L0,600 L800,600 L800,0 L0,0 Z M0,0" id="Rectangle 99" fill="#E4A181"></path>
            <g id="Group">
                <path d="M334.996077,286 C323.952549,286 315,294.947292 315,305.99252 L315,320.00748 C315,331.049044 323.953979,340 334.996077,340 L436.003923,340 C447.047451,340 456,331.052708 456,320.00748 L456,305.99252 C456,294.950956 447.046021,286 436.003923,286 L334.996077,286 Z M334.996077,286" id="Rectangle 104" fill="#262020"></path>
                <path d="M368.241211,263.46875 C368.241211,263.468752 374.137888,276.020507 385.5,276.020508 C396.862112,276.020508 404.027832,263.46875 404.027832,263.46875 C418.600956,277.905678 442,287 442,287 L329,287 C329,287 353.492538,278.079585 368.241211,263.46875 Z M368.241211,263.46875" id="Triangle 16" fill="#262020"></path>
            </g>
            <path d="M368.009573,273.179891 C368,312.358398 384.868164,337.079102 384.868164,337.079102 C384.868164,337.079102 404,311.849609 404,272 C404,263.715728 406.767578,252.225586 386,252.225586 C365.232422,252.225586 368,263.715728 368,272 C368,272.391307 368.003221,272.784649 368.009573,273.179891 Z M368.009573,273.179891" id="Oval 44" fill="#FFFEF6"></path>
            <path d="M386,275 C395.388841,275 403,269.179702 403,262 C403,254.820298 395.388841,249 386,249 C376.611159,249 369,254.820298 369,262 C369,269.179702 376.611159,275 386,275 Z M386,275" id="Oval 45" fill="#D0AA85"></path>
            <path d="M363,245.979683 C369.416992,263.869141 378.020274,270 386,270 C396.470383,270 403.652345,259.996094 409.000001,245.979683 C410.570559,241.86319 411,238.603403 411,233 C410.999999,212.565463 399.807119,196 386,196 C372.192881,196 360.892415,212.566084 361,233 C361.025677,237.876849 361.733349,242.448481 363,245.979683 Z M363,245.979683" id="Oval 43" fill="#E1C1A1"></path>
            <path d="M361,205 C361,193.951876 369.952005,185 380.994863,185 L391.005137,185 C402.046578,185 411,193.954305 411,205 L411,218.234358 C418.9674,219.150892 424,220.498115 424,222 C424,224.761424 406.986822,227 386,227 C365.013178,227 348,224.761424 348,222 C348,220.498115 353.0326,219.150892 361,218.234358 Z M361,205" id="Rectangle 102" fill="#262020"></path>
            <path d="M382.17334,288.241257 C382.17334,283.868763 384.821289,279 386,279 C387.178711,279 390.085449,283.868763 390.085449,288.241257 C390.085449,291.079033 389.295131,294.125841 388.136431,295.915057 C390.352363,299.598606 393,307.65555 393,317.002088 C393,319.063049 392.97418,321.061306 392.930838,322.963797 C388.693955,332.159666 384.858887,337.248535 384.858887,337.248535 C384.858887,337.248535 382.317197,333.496033 379.20816,326.611642 C379.086283,323.513531 379,320.193298 379,317.002088 C379,307.603676 381.677108,299.509212 383.900424,295.854131 C382.839394,294.057241 382.17334,291.047074 382.17334,288.241257 Z M382.17334,288.241257" id="Oval 46" fill="#9C2C22"></path>
        </g>
    </g>
</svg>