<?xml version="1.0" encoding="UTF-8" standalone="no"?>
<svg width="800px" height="600px" viewBox="0 0 800 600" version="1.1" xmlns="http://www.w3.org/2000/svg" xmlns:xlink="http://www.w3.org/1999/xlink" xmlns:sketch="http://www.bohemiancoding.com/sketch/ns">
    <title>Heart Flat Smaller</title>
    <description>Created with Sketch (http://www.bohemiancoding.com/sketch)</description>
    <defs></defs>
    <g id="Page 1" fill="#D8D8D8" fill-rule="evenodd">
        <g id="heart curved copy">
            <path d="M0,0 L0,600 L800,600 L800,0 L0,0 Z M0,0" id="Rectangle 1" fill="#EBEBEB"></path>
            <g id="Group">
                <path d="M306.914803,312.551231 C302.707724,304.896244 300.234016,296.171624 300.015779,286.894516 C300.005286,286.497059 300,286.100163 300,285.70391 C300,254.319068 325.561596,229 357.093426,229 C374.192759,229 389.536389,236.445738 400,248.242543 C410.463611,236.445738 425.807241,229 442.906574,229 C474.438404,229 500,254.319068 500,285.551724 C500,286.100163 499.994714,286.497059 499.984221,286.894516 C499.765984,296.171626 497.292275,304.896247 493.085195,312.551235 C471.822079,356.818047 408.335307,400.03448 400,400.034483 C391.664692,400.034486 328.177917,356.818046 306.914803,312.551231 Z M306.914803,312.551231" id="Path" fill="#C65766"></path>
            </g>
        </g>
    </g>
</svg>