<?xml version="1.0" encoding="UTF-8" standalone="no"?>
<svg width="800px" height="600px" viewBox="0 0 800 600" version="1.1" xmlns="http://www.w3.org/2000/svg" xmlns:xlink="http://www.w3.org/1999/xlink" xmlns:sketch="http://www.bohemiancoding.com/sketch/ns">
    <title>Artboard 1</title>
    <description>Created with Sketch (http://www.bohemiancoding.com/sketch)</description>
    <defs></defs>
    <g id="Page 1" fill="#D8D8D8" fill-rule="evenodd">
        <g id="Artboard 1">
            <path d="M0,0 L0,600 L800,600 L800,0 L0,0 Z M0,0" id="base copy" fill="#BC5B4C"></path>
            <g id="Ecrit.es" fill="#AB6660">
                <path d="M333.997293,256.5 C333.446503,256.5 333,256.938918 333,257.503071 L333,278.496929 C333,279.05091 333.448161,279.5 333.997293,279.5 L479.002707,279.5 C479.553497,279.5 480,279.061082 480,278.496929 L480,257.503071 C480,256.94909 479.551839,256.5 479.002707,256.5 Z M290.99227,120 L498.005802,120 C515.672297,120 530,134.329349 530,152.005497 L530,451.99298 C530,456.41169 526.417221,460 521.997639,460 L298.002361,460 C293.578922,460 290,456.415135 290,451.99298 L290,121.005725 C290,120.443359 290.444254,120 290.99227,120 Z M333.997293,306.5 C333.446503,306.5 333,306.938918 333,307.503071 L333,328.496929 C333,329.05091 333.448161,329.5 333.997293,329.5 L479.002707,329.5 C479.553497,329.5 480,329.061082 480,328.496929 L480,307.503071 C480,306.94909 479.551839,306.5 479.002707,306.5 Z M333.997293,356.5 C333.446503,356.5 333,356.938918 333,357.503071 L333,378.496929 C333,379.05091 333.448161,379.5 333.997293,379.5 L479.002707,379.5 C479.553497,379.5 480,379.061082 480,378.496929 L480,357.503071 C480,356.94909 479.551839,356.5 479.002707,356.5 Z M333.492062,193.5 C332.944161,193.5 332.5,193.947365 332.5,194.498154 L332.5,222.501846 C332.5,223.053111 332.940014,223.5 333.492062,223.5 L425.507938,223.5 C426.055839,223.5 426.5,223.052635 426.5,222.501846 L426.5,194.498154 C426.5,193.946889 426.059986,193.5 425.507938,193.5 Z M333.492062,193.5" id="Rectangle 1" fill="#EC9E92"></path>
                <g id="Group" fill="#D8D8D8">
                    <path d="M326,120 L326,208 L237.999246,208 C233.588105,208 230,204.416657 230,199.99638 L230,152.003386 C230,134.334575 244.512207,120 261.999966,120 Z M267,135 C254.849736,135 245,144.855331 245,156.999674 L245,191.003509 C245,192.10614 245.898855,193 247.004923,193 L289,193 L289,156.999674 C289,144.849589 279.152936,135 267,135 Z M267,135" id="Path" fill="#EC9E92"></path>
                </g>
                <g id="Body" fill="#C6766F"></g>
            </g>
        </g>
    </g>
</svg>