<?xml version="1.0" encoding="UTF-8" standalone="no"?>
<svg width="800px" height="600px" viewBox="0 0 800 600" version="1.1" xmlns="http://www.w3.org/2000/svg" xmlns:xlink="http://www.w3.org/1999/xlink" xmlns:sketch="http://www.bohemiancoding.com/sketch/ns">
    <title>Slice 1</title>
    <description>Created with Sketch (http://www.bohemiancoding.com/sketch)</description>
    <defs></defs>
    <g id="Page 1" fill="#D8D8D8" fill-rule="evenodd">
        <path d="M0,0 L0,600 L800,600 L800,0 L0,0 Z M0,0" id="Rectangle 1" fill="#BF362A"></path>
        <path d="M237.649412,325.586209 C239.310854,325.004704 240.889224,324.4232 242.384522,323.841695 C242.882955,323.675551 243.298315,323.592478 243.713676,323.592478 C244.793613,323.592478 245.624334,324.090911 245.873551,325.253921 C246.039695,325.669281 246.122767,326.084642 246.122767,326.41693 C246.122767,327.081507 245.873551,327.57994 245.541262,328.078372 C251.190165,323.675551 255.842203,318.192791 259.24816,311.879311 L252.519319,311.879311 C251.273238,311.879311 250.525589,310.799374 250.525589,309.387148 C250.525589,307.974922 251.273238,306.978057 252.519319,306.978057 L260.660386,306.978057 L260.660386,299.501567 L250.774805,299.501567 C249.362579,299.501567 248.698002,298.587774 248.698002,297.009404 C248.698002,295.514106 249.362579,294.517241 250.774805,294.517241 L260.660386,294.517241 L260.660386,287.456112 L252.353175,287.456112 C251.024021,287.456112 250.276372,286.293102 250.276372,284.880876 C250.276372,283.468651 251.024021,282.471785 252.353175,282.471785 L260.660386,282.471785 L260.660386,275.826017 L252.020886,275.826017 C250.608661,275.826017 249.77794,274.663007 249.77794,273.167709 C249.77794,271.506267 250.608661,270.592474 252.020886,270.592474 L260.577314,270.592474 C259.331232,268.515671 257.835934,266.438869 256.839069,265.109715 C256.423708,264.611282 256.257564,264.029778 256.257564,263.531345 C256.257564,262.700624 256.755997,262.036047 257.66979,261.620686 C258.168222,261.37147 258.666655,261.288398 259.082016,261.288398 C260.161953,261.288398 261.075746,261.786831 261.740323,262.700624 C263.152549,264.445138 265.229352,267.68495 266.807722,270.592474 L275.281076,270.592474 C277.191735,267.934167 279.019321,265.026643 280.016187,262.866768 C280.597691,261.703759 281.511485,261.122254 282.674494,261.122254 C283.089855,261.122254 283.588287,261.205326 284.08672,261.37147 C285.083585,261.703759 285.831234,262.368335 285.831234,263.365201 C285.831234,263.863633 285.66509,264.362066 285.332801,265.026643 C284.419008,266.521941 282.92371,268.598743 281.428412,270.592474 L295.13531,270.592474 C296.547536,270.592474 297.378257,271.506267 297.378257,273.167709 C297.378257,274.663007 296.547536,275.826017 295.13531,275.826017 L279.434682,275.826017 L279.434682,282.471785 L287.077316,282.471785 C291.646282,282.471785 293.640012,284.133228 293.640012,288.785266 L293.640012,294.517241 L296.29832,294.517241 C297.627473,294.517241 298.375122,295.347962 298.375122,297.009404 C298.375122,298.587774 297.627473,299.501567 296.29832,299.501567 L293.640012,299.501567 L293.640012,305.565831 C293.640012,310.217869 291.646282,311.879311 287.077316,311.879311 L280.846908,311.879311 C284.917441,318.608152 290.649416,323.758623 297.212113,328.161444 C297.959762,328.742949 298.375122,329.656742 298.375122,330.570535 C298.375122,331.235112 298.208978,331.899689 297.793618,332.481194 C297.129041,333.394987 296.215247,333.810348 295.384526,333.810348 C294.803022,333.810348 294.221517,333.644203 293.806156,333.311915 C288.157253,329.241382 282.092989,322.595613 278.437817,315.866772 C278.936249,318.442008 279.434682,321.931036 279.434682,325.586209 L279.434682,336.717871 C279.434682,338.130097 278.520889,338.877746 276.776374,338.877746 C275.114932,338.877746 274.118067,338.130097 274.118067,336.717871 L274.118067,311.879311 L265.977,311.879311 L265.977,336.717871 C265.977,338.130097 265.063207,338.877746 263.235621,338.877746 C261.574179,338.877746 260.660386,338.130097 260.660386,336.717871 L260.660386,325.503137 C260.660386,322.927902 261.158818,318.691224 261.657251,315.866772 C258.08515,323.26019 253.35004,329.241382 246.870416,334.142636 C246.371983,334.557997 245.873551,334.724141 245.292046,334.724141 C244.461325,334.724141 243.630604,334.30878 243.049099,333.394987 C242.633738,332.813482 242.467594,332.231978 242.467594,331.650473 C242.467594,330.819752 242.799883,329.989031 243.547532,329.490598 C243.713676,329.324454 243.87982,329.241382 244.129036,329.075238 L243.796748,329.241382 C237.317124,331.816617 229.508345,334.142636 223.194865,335.388718 C222.945649,335.47179 222.696433,335.47179 222.447216,335.47179 C221.201135,335.47179 220.204269,334.724141 219.871981,333.062699 C219.788909,332.813482 219.788909,332.481194 219.788909,332.231978 C219.788909,330.819752 220.536558,329.822886 222.114928,329.57367 C225.188596,328.992165 228.677624,328.161444 232.166653,327.247651 L232.166653,301.412226 L222.530288,301.412226 C221.034991,301.412226 220.287342,300.415361 220.287342,298.670846 C220.287342,297.092476 221.034991,296.178683 222.530288,296.178683 L232.166653,296.178683 L232.166653,287.705328 L228.013048,287.705328 C226.600822,287.705328 225.853173,286.791535 225.853173,285.296237 C225.853173,283.717867 226.600822,282.721002 228.013048,282.721002 L243.630604,282.721002 C245.042829,282.721002 245.790478,283.717867 245.790478,285.296237 C245.790478,286.791535 245.042829,287.705328 243.630604,287.705328 L237.649412,287.705328 L237.649412,296.178683 L244.876685,296.178683 C246.288911,296.178683 247.03656,297.009404 247.03656,298.670846 C247.03656,300.332288 246.288911,301.412226 244.876685,301.412226 L237.649412,301.412226 Z M279.434682,306.978057 L286.246595,306.978057 C287.741893,306.978057 288.489542,306.562696 288.489542,304.984326 L288.489542,299.501567 L279.434682,299.501567 Z M274.118067,299.501567 L265.977,299.501567 L265.977,306.978057 L274.118067,306.978057 Z M274.118067,275.826017 L265.977,275.826017 L265.977,282.471785 L274.118067,282.471785 Z M265.977,287.456112 L265.977,294.517241 L274.118067,294.517241 L274.118067,287.456112 Z M279.434682,294.517241 L288.489542,294.517241 L288.489542,289.449842 C288.489542,287.871472 287.741893,287.456112 286.246595,287.456112 L279.434682,287.456112 Z M223.028721,305.648903 C223.36101,305.565831 223.693298,305.482759 224.025586,305.482759 C225.105524,305.482759 226.019317,306.147336 226.351605,307.310345 C227.680759,311.131662 228.926841,315.866772 229.67449,320.269594 C229.757562,320.51881 229.757562,320.684955 229.757562,320.851099 C229.757562,322.180253 229.092985,323.010974 227.680759,323.343262 C227.431543,323.426334 227.182326,323.426334 226.93311,323.426334 C225.853173,323.426334 224.856307,322.844829 224.607091,321.515676 C223.859442,317.36207 222.613361,312.460816 221.367279,308.805643 C221.284207,308.473355 221.201135,308.224139 221.201135,307.89185 C221.201135,306.894985 221.865712,306.064264 223.028721,305.648903 Z M245.790478,305.482759 C246.953488,305.731975 247.784209,306.396552 247.784209,307.725706 C247.784209,307.89185 247.784209,308.141067 247.701137,308.307211 C247.202704,311.962383 246.371983,315.285268 245.042829,318.94044 C244.710541,320.10345 243.713676,320.601883 242.799883,320.601883 C242.467594,320.601883 242.135306,320.51881 241.886089,320.435738 C240.806152,320.020378 240.224647,319.272729 240.224647,318.275864 C240.224647,317.943575 240.307719,317.528215 240.390791,317.112854 C241.553801,314.039186 242.218378,310.799374 242.799883,307.310345 C243.049099,305.89812 243.87982,305.399687 244.959757,305.399687 C245.292046,305.399687 245.541262,305.399687 245.790478,305.482759 Z M231.66822,264.52821 C232.582013,263.115984 234.077311,262.451408 235.489537,262.451408 C236.901763,262.451408 238.397061,263.115984 239.310854,264.611282 C242.135306,268.931032 244.959757,272.170844 248.282642,275.16144 C248.864146,275.742945 249.196435,276.490594 249.196435,277.155171 C249.196435,277.902819 248.864146,278.650468 248.282642,279.231973 C247.784209,279.89655 246.870416,280.228838 246.039695,280.228838 C245.375118,280.228838 244.793613,279.979622 244.212108,279.48119 C241.387657,276.73981 238.563205,273.416926 236.486402,270.010969 C236.071042,269.346392 235.821826,269.014104 235.489537,269.014104 C235.240321,269.014104 234.991105,269.346392 234.658816,269.844825 C232.000509,274.496863 228.013048,279.48119 223.693298,283.468651 C223.111793,283.967083 222.364144,284.2163 221.699567,284.2163 C220.785774,284.2163 219.871981,283.800939 219.290476,283.05329 C218.875116,282.471785 218.708972,281.890281 218.708972,281.225704 C218.708972,280.394983 219.124332,279.48119 219.705837,278.982757 C224.108658,275.244512 228.179192,270.260186 231.66822,264.52821 Z M344.720128,282.139497 C343.390974,282.139497 342.560253,281.05956 342.560253,279.564262 C342.560253,277.985892 343.390974,276.822882 344.720128,276.822882 L361.999126,276.822882 C363.32828,276.822882 364.159001,277.985892 364.159001,279.564262 C364.159001,281.05956 363.32828,282.139497 361.999126,282.139497 Z M340.06809,317.278998 L375.872168,317.278998 C380.27499,317.278998 382.351792,319.106585 382.351792,323.26019 L382.351792,331.484329 C382.351792,335.637934 380.27499,337.548592 375.872168,337.548592 L339.735801,337.548592 C335.33298,337.548592 333.256177,335.637934 333.256177,331.484329 L333.256177,323.426334 C333.256177,319.106585 335.416052,317.278998 340.06809,317.278998 Z M341.729532,332.398122 L373.878437,332.398122 C375.456807,332.398122 376.204456,331.982761 376.204456,330.487463 L376.204456,324.340127 C376.204456,322.844829 375.456807,322.429469 373.878437,322.429469 L341.729532,322.429469 C340.151162,322.429469 339.403513,322.844829 339.403513,324.340127 L339.403513,330.487463 C339.403513,331.982761 340.151162,332.398122 341.729532,332.398122 Z M355.021069,268.764888 C354.190348,268.017239 353.608843,267.68495 353.027339,267.68495 C352.362762,267.68495 351.781257,268.100311 351.033608,268.764888 C343.474046,276.324449 331.01323,284.133228 319.715424,288.619121 C319.216991,288.785266 318.718558,288.868338 318.303198,288.868338 C317.057116,288.868338 316.060251,288.120689 315.561818,286.957679 C315.312602,286.459247 315.22953,285.960814 315.22953,285.462381 C315.22953,284.2163 315.894107,283.136362 317.140188,282.721002 C327.939562,278.816613 339.818873,271.506267 347.378435,263.946705 C348.956805,262.368335 350.950536,261.620686 352.861194,261.620686 C354.854925,261.620686 356.931728,262.451408 358.510098,264.029778 C365.737371,271.007835 378.447403,278.068964 390.077498,282.305641 C391.489724,282.804074 392.154301,283.884011 392.154301,285.130093 C392.154301,285.628525 392.071229,286.043886 391.988157,286.542319 C391.489724,287.954544 390.409787,288.702193 389.163705,288.702193 C388.748345,288.702193 388.332984,288.619121 387.917624,288.452977 C375.53988,283.634795 362.829847,276.324449 355.021069,268.764888 Z M332.342384,312.294672 C330.764014,321.100315 327.358057,329.490598 322.373731,335.305646 C321.709154,336.136367 320.878433,336.468655 319.96464,336.468655 C319.133919,336.468655 318.303198,336.219439 317.638621,335.637934 C316.974044,335.056429 316.558683,334.142636 316.558683,333.228843 C316.558683,332.564266 316.8079,331.816617 317.306332,331.15204 C324.865894,322.263325 327.690346,310.467086 327.773418,292.191222 C327.773418,287.871472 330.099437,286.126958 334.585331,286.126958 L372.216995,286.126958 C376.619817,286.126958 379.028908,287.871472 379.028908,292.191222 L379.028908,306.479624 C379.028908,310.550158 376.785961,312.294672 372.216995,312.294672 Z M333.422321,301.661442 C333.339249,303.322884 333.173105,305.316615 332.923889,307.144201 L370.638625,307.144201 C372.300067,307.144201 373.047716,306.728841 373.047716,305.150471 L373.047716,301.661442 Z M333.75461,296.677116 L373.047716,296.677116 L373.047716,293.271159 C373.047716,291.692789 372.300067,291.277429 370.638625,291.277429 L336.246773,291.277429 C334.585331,291.277429 333.837682,291.692789 333.837682,293.271159 Z M457.605891,287.040751 L457.605891,276.73981 L442.154479,276.73981 C440.576109,276.73981 439.745388,275.5768 439.745388,273.915358 C439.745388,272.336988 440.576109,271.090907 442.154479,271.090907 L457.605891,271.090907 L457.605891,263.946705 C457.605891,262.368335 458.768901,261.537614 460.596487,261.537614 C462.507146,261.537614 463.753227,262.368335 463.753227,263.946705 L463.753227,271.090907 L481.115298,271.090907 C482.610595,271.090907 483.358244,272.253916 483.358244,273.832286 C483.358244,275.5768 482.610595,276.73981 481.115298,276.73981 L463.753227,276.73981 L463.753227,287.040751 L484.35511,287.040751 C485.767336,287.040751 486.681129,288.120689 486.681129,289.782131 C486.681129,291.526645 485.767336,292.772727 484.35511,292.772727 L475.798683,292.772727 L475.798683,302.076803 L484.188965,302.076803 C485.684263,302.076803 486.514984,303.239812 486.514984,304.901254 C486.514984,306.645769 485.684263,307.808778 484.188965,307.808778 L475.798683,307.808778 L475.798683,330.072103 C475.798683,335.721006 472.808087,337.880881 466.660751,337.880881 C463.337867,337.880881 460.762631,337.631665 458.519684,337.133232 C456.941314,336.800943 456.276737,335.804078 456.276737,334.391852 C456.276737,334.142636 456.276737,333.810348 456.35981,333.478059 C456.692098,331.899689 457.605891,331.068968 458.851973,331.068968 C459.101189,331.068968 459.350405,331.068968 459.599622,331.15204 C461.593352,331.650473 464.085516,331.816617 465.913102,331.816617 C468.98677,331.816617 469.734419,331.15204 469.734419,328.161444 L469.734419,307.808778 L439.246956,307.808778 C437.668585,307.808778 436.754792,306.645769 436.754792,304.901254 C436.754792,303.239812 437.668585,302.076803 439.246956,302.076803 L469.734419,302.076803 L469.734419,292.772727 L439.163883,292.772727 C437.585513,292.772727 436.754792,291.526645 436.754792,289.865203 C436.754792,288.203761 437.585513,287.040751 439.163883,287.040751 Z M434.67799,272.503133 L434.67799,323.26019 C434.67799,327.9953 432.435043,329.905959 427.949149,329.905959 L418.894289,329.905959 C414.242251,329.905959 411.999304,327.9953 411.999304,323.26019 L411.999304,272.503133 C411.999304,267.768022 414.242251,265.857364 418.894289,265.857364 L427.949149,265.857364 C432.435043,265.857364 434.67799,267.768022 434.67799,272.503133 Z M418.063568,293.603448 L428.613726,293.603448 L428.613726,273.666142 C428.613726,271.921628 427.866077,271.506267 426.287707,271.506267 L420.472659,271.506267 C418.811217,271.506267 418.063568,271.921628 418.063568,273.666142 Z M418.063568,299.169279 L418.063568,321.931036 C418.063568,323.758623 418.811217,324.090911 420.472659,324.090911 L426.287707,324.090911 C427.866077,324.090911 428.613726,323.758623 428.613726,321.931036 L428.613726,299.169279 Z M449.381753,312.128528 C452.123132,314.620691 455.446016,318.52508 457.772035,321.764892 C458.436612,322.678685 458.685829,323.426334 458.685829,324.173983 C458.685829,325.087776 458.187396,325.835425 457.356675,326.583074 C456.692098,327.164579 455.944449,327.496867 455.113728,327.496867 C454.116863,327.496867 453.119997,326.998435 452.455421,326.00157 C450.212474,322.761757 446.972661,319.023513 444.480498,316.448277 C443.815921,315.7837 443.483633,315.036051 443.483633,314.371475 C443.483633,313.457681 443.982066,312.62696 444.812787,311.879311 C445.560436,311.297807 446.225013,311.04859 446.972661,311.04859 C447.803383,311.04859 448.551032,311.380879 449.381753,312.128528 Z M515.830208,301.412226 C515.830208,298.006269 516.079424,294.184952 516.577857,290.52978 C514.33491,294.268025 511.510458,298.089342 508.519863,301.246082 C507.855286,301.993731 507.024565,302.409091 506.110772,302.409091 C505.363123,302.409091 504.532401,302.076803 503.784753,301.412226 C503.037104,300.747649 502.621743,299.916928 502.621743,299.003135 C502.621743,298.255486 502.954031,297.507837 503.535536,296.84326 C512.175035,288.203761 519.568453,275.742945 523.555914,263.780561 C523.971275,262.451408 524.885068,261.786831 526.214221,261.786831 C526.629582,261.786831 527.211087,261.869903 527.792591,262.036047 C529.287889,262.53448 530.035538,263.448273 530.035538,264.611282 C530.035538,265.026643 529.952466,265.358931 529.869394,265.774292 C527.958736,271.173979 525.466572,276.490594 522.392905,281.807209 L522.392905,335.970222 C522.392905,337.631665 521.063751,338.462386 519.07002,338.462386 C517.242434,338.462386 515.830208,337.631665 515.830208,335.970222 Z M551.883503,284.2163 L577.885072,281.557992 L578.051216,281.557992 C579.38037,281.557992 580.211091,282.721002 580.377235,284.299372 L580.377235,284.63166 C580.377235,286.126958 579.795731,287.456112 578.383505,287.622256 L552.631152,290.280563 C553.628017,297.424765 555.123315,303.489029 557.117045,309.05486 C560.356857,317.943575 564.842751,324.83856 569.245573,328.493733 C570.159366,329.241382 570.907015,329.656742 571.571592,329.656742 C572.319241,329.656742 572.900746,329.075238 573.399178,327.912228 C574.229899,325.752353 574.894476,322.512541 575.143693,319.023513 C575.226765,317.611287 576.22363,316.697494 577.802,316.697494 L578.466577,316.697494 C580.377235,316.863638 581.291028,317.860503 581.291028,319.438873 L581.291028,319.937306 C580.875668,325.170848 579.629586,330.487463 577.718928,333.561131 C576.389774,336.053295 574.229899,337.216304 571.90388,337.216304 C570.242438,337.216304 568.414852,336.551727 566.836482,335.388718 C560.356857,330.570535 555.040243,322.844829 551.218926,312.2116 C549.059051,306.645769 547.397609,299.418495 546.151527,290.94514 L529.287889,292.689655 L528.955601,292.689655 C527.460303,292.689655 526.629582,291.443573 526.629582,289.865203 C526.54651,289.615987 526.54651,289.36677 526.54651,289.117554 C526.54651,287.7884 527.211087,286.791535 528.54024,286.625391 L545.403878,284.880876 C544.739301,278.899685 544.323941,272.336988 544.157797,265.275859 C544.157797,263.282129 545.570022,262.285263 547.480681,262.285263 C549.391339,262.285263 550.969709,263.282129 550.969709,265.275859 C551.052781,272.336988 551.38507,278.567396 551.883503,284.2163 Z M562.849021,263.863633 C566.088833,266.438869 570.076294,270.094041 572.983818,273.416926 C573.48225,273.99843 573.731467,274.746079 573.731467,275.410656 C573.731467,276.241377 573.399178,277.072098 572.734601,277.736675 C571.986952,278.401252 571.156231,278.733541 570.32551,278.733541 C569.577861,278.733541 568.74714,278.401252 568.165636,277.653603 C565.507328,274.579935 561.769083,270.84169 558.612343,268.183383 C557.864694,267.518806 557.532406,266.854229 557.532406,266.10658 C557.532406,265.358931 557.864694,264.611282 558.612343,264.029778 C559.27692,263.365201 560.024569,263.115984 560.772218,263.115984 C561.519867,263.115984 562.184444,263.365201 562.849021,263.863633 Z M562.849021,263.863633" id="鎌倉時代" fill="#FFFEF6"></path>
    </g>
</svg>