<?xml version="1.0" encoding="UTF-8" standalone="no"?>
<svg width="800px" height="600px" viewBox="0 0 800 600" version="1.1" xmlns="http://www.w3.org/2000/svg" xmlns:xlink="http://www.w3.org/1999/xlink" xmlns:sketch="http://www.bohemiancoding.com/sketch/ns">
    <title>Heart</title>
    <description>Created with Sketch (http://www.bohemiancoding.com/sketch)</description>
    <defs>
        <linearGradient x1="50%" y1="12.175219%" x2="50%" y2="76.6943359%" id="linearGradient-1">
            <stop stop-color="#E3E0E0" stop-opacity="0" offset="0%"></stop>
            <stop stop-color="#FFFFFF" offset="100%"></stop>
        </linearGradient>
        <linearGradient x1="50%" y1="12.175219%" x2="50%" y2="76.6943359%" id="linearGradient-2">
            <stop stop-color="#941F2F" offset="0%"></stop>
            <stop stop-color="#FFFFFF" stop-opacity="0" offset="100%"></stop>
        </linearGradient>
        <linearGradient x1="50%" y1="-11.7124496%" x2="50%" y2="100%" id="linearGradient-3">
            <stop stop-color="#9B2C3B" offset="0%"></stop>
            <stop stop-color="#B53E4F" offset="30.4297558%"></stop>
            <stop stop-color="#CC394D" offset="100%"></stop>
        </linearGradient>
    </defs>
    <g id="Page 1" fill="#D8D8D8" fill-rule="evenodd">
        <g id="Artboard 1">
            <path d="M0,0 L0,600 L800,600 L800,0 L0,0 Z M0,0" id="Rectangle 1" fill="#EAEAEA"></path>
            <path d="M300.923875,178 C327.25685,178 350.886039,189.492857 367,207.701797 C383.113961,189.492857 406.74315,178 433.076125,178 C481.635143,178 521,217.081206 521,265.290323 C521,266.136865 520.99186,266.749492 520.975701,267.362987 C520.639615,281.682654 516.830103,295.14953 510.3512,306.965374 C477.606002,375.29334 379.836373,441.999995 367,442 C354.163626,442.000005 256.393992,375.293339 223.6488,306.965372 C217.169895,295.149525 213.360385,281.682652 213.024301,267.363061 C213.00814,266.749492 213,266.136865 213,265.525229 C213,217.081206 252.364857,178 300.923875,178 Z M300.923875,178" id="Oval 3" opacity="0.2" fill="url(#linearGradient-1)"></path>
            <g id="Group">
                <path d="M304.356401,188 C329.321429,188 351.723128,198.970454 367,216.351715 C382.276872,198.970454 404.678571,188 429.643599,188 C475.68007,188 513,225.304788 513,271.322581 C513,272.130644 512.992283,272.715425 512.976963,273.301033 C512.658336,286.969806 509.046721,299.824551 502.904385,311.103312 C471.860236,376.325461 379.169549,439.999995 367,440 C354.830451,440.000005 262.139758,376.32546 231.095616,311.103309 C224.953278,299.824547 221.341664,286.969804 221.023039,273.301103 C221.007717,272.715425 221,272.130644 221,271.546809 C221,225.304788 258.31993,188 304.356401,188 Z M304.356401,188" id="Oval 3" fill="url(#linearGradient-2)"></path>
                <path d="M232.026464,312.149285 C225.9262,301.049554 222.339324,288.398855 222.022879,274.947049 C222.007664,274.370735 222,273.795237 222,273.22067 C222,227.712648 259.064314,191 304.785467,191 C329.579501,191 351.827764,201.79632 367,218.901688 C382.172236,201.79632 404.420499,191 429.214533,191 C474.935686,191 512,227.712648 512,273 C512,273.795237 511.992336,274.370735 511.977121,274.947049 C511.660676,288.398857 508.073799,301.049558 501.973533,312.149291 C471.142015,376.336168 379.086195,438.999995 367,439 C354.913804,439.000005 262.857979,376.336167 232.026464,312.149285 Z M232.026464,312.149285" id="Path" fill="url(#linearGradient-3)"></path>
            </g>
        </g>
    </g>
</svg>