<?xml version="1.0" encoding="UTF-8" standalone="no"?>
<svg width="800px" height="600px" viewBox="0 0 800 600" version="1.1" xmlns="http://www.w3.org/2000/svg" xmlns:xlink="http://www.w3.org/1999/xlink" xmlns:sketch="http://www.bohemiancoding.com/sketch/ns">
    <title>Artboard 1</title>
    <description>Created with Sketch (http://www.bohemiancoding.com/sketch)</description>
    <defs></defs>
    <g id="Page 1" fill="#D8D8D8" fill-rule="evenodd">
        <g id="Artboard 1">
            <path d="M0,0 L0,600 L800,600 L800,0 L0,0 Z M0,0" id="base copy" fill="#BC5B4C"></path>
            <g id="Ecrit.es" fill="#AB6660">
                <path d="M357.084983,273.272425 C356.805025,273.272425 356.578073,273.491155 356.578073,273.764924 L356.578073,284.24172 C356.578073,284.51372 356.801409,284.734219 357.084983,284.734219 L429.326977,284.734219 C429.606936,284.734219 429.833887,284.515489 429.833887,284.24172 L429.833887,273.764924 C429.833887,273.492925 429.610551,273.272425 429.326977,273.272425 Z M335.656746,205.249169 L439.754559,205.249169 C448.042711,205.249169 454.750831,211.964479 454.750831,220.248232 L454.750831,374.183194 C454.750831,374.453123 454.52373,374.684385 454.243586,374.684385 L335.656746,374.684385 C335.376901,374.684385 335.149502,374.459994 335.149502,374.183194 L335.149502,205.750361 C335.149502,205.480432 335.376603,205.249169 335.656746,205.249169 Z M357.084983,298.189369 C356.805025,298.189369 356.578073,298.408099 356.578073,298.681868 L356.578073,309.158664 C356.578073,309.430663 356.801409,309.651163 357.084983,309.651163 L429.326977,309.651163 C429.606936,309.651163 429.833887,309.432433 429.833887,309.158664 L429.833887,298.681868 C429.833887,298.409868 429.610551,298.189369 429.326977,298.189369 Z M357.084983,323.106312 C356.805025,323.106312 356.578073,323.325042 356.578073,323.598811 L356.578073,334.075607 C356.578073,334.347607 356.801409,334.568106 357.084983,334.568106 L429.326977,334.568106 C429.606936,334.568106 429.833887,334.349377 429.833887,334.075607 L429.833887,323.598811 C429.833887,323.326812 429.610551,323.106312 429.326977,323.106312 Z M356.823287,241.877076 C356.550247,241.877076 356.328904,242.100016 356.328904,242.374495 L356.328904,256.329824 C356.328904,256.604541 356.558853,256.827243 356.823287,256.827243 L402.678374,256.827243 C402.951415,256.827243 403.172757,256.604303 403.172757,256.329824 L403.172757,242.374495 C403.172757,242.099778 402.942808,241.877076 402.678374,241.877076 Z M356.823287,241.877076" id="Rectangle 1" fill="#EC9E92"></path>
                <g id="Group" fill="#D8D8D8">
                    <path d="M353.089701,205.249169 L353.089701,249.10299 L309.235505,249.10299 C307.037262,249.10299 305.249169,247.317271 305.249169,245.114475 L305.249169,221.197701 C305.249169,212.392645 312.481166,205.249169 321.195996,205.249169 Z M312.724252,223.733938 L312.724252,240.632978 C312.724252,241.182462 313.162251,241.627907 313.723384,241.627907 L333.652032,241.627907 C334.203837,241.627907 334.651163,241.1739 334.651163,240.632978 L334.651163,223.733938 C334.651163,217.664173 329.747667,212.741631 323.687697,212.724298 C317.629784,212.741614 312.724252,217.65448 312.724252,223.733938 Z M312.724252,223.733938" id="Path" fill="#EC9E92"></path>
                </g>
                <g id="Body" fill="#C6766F"></g>
            </g>
        </g>
    </g>
</svg>