<?xml version="1.0" encoding="UTF-8" standalone="no"?>
<svg width="200px" height="200px" viewBox="0 0 200 200" version="1.1" xmlns="http://www.w3.org/2000/svg" xmlns:xlink="http://www.w3.org/1999/xlink" xmlns:sketch="http://www.bohemiancoding.com/sketch/ns">
    <title>mic</title>
    <description>Created with Sketch (http://www.bohemiancoding.com/sketch)</description>
    <defs></defs>
    <g id="Page 1" fill="#D8D8D8" fill-rule="evenodd">
        <g id="mic">
            <path d="M0,0 L0,200 L200,200 L200,0 L0,0 Z M0,0" id="Rectangle 1 copy" fill="#F9EA89"></path>
            <g id="Group copy" fill="#705B90">
                <path d="M99.981559,59 L102.018441,59 C108.085328,59 113,63.919574 113,69.9881761 L113,84 L89,84 L89,69.9881761 C89,63.9195685 93.9166114,59 99.981559,59 Z M113,90 L113,98.0118239 C113,104.080432 108.083389,109 102.018441,109 L99.981559,109 C93.914672,109 89,104.080426 89,98.0118239 L89,90 Z M113,90" id="Rectangle 2" fill="#313541"></path>
                <path d="M89.197113,135 C87.983681,135 87,135.980957 87,137.207212 L87,140.792788 C87,142.011797 87.980117,143 89.197113,143 L112.802887,143 C114.016319,143 115,142.019043 115,140.792788 L115,137.207212 C115,135.988203 114.019883,135 112.802887,135 L89.197113,135 Z M89.197113,135" id="Rectangle 4" fill="#313541"></path>
                <path d="M99.2072123,119 C97.9882026,119 97,119.991803 97,121.197561 L97,136.802439 C97,138.016118 97.980957,139 99.2072123,139 L102.792788,139 C104.011797,139 105,138.008197 105,136.802439 L105,121.197561 C105,119.983882 104.019043,119 102.792788,119 L99.2072123,119 Z M99.2072123,119" id="Rectangle 8" fill="#313541"></path>
                <path d="M119.333333,97.1701155 L119.333333,92.1902312 C119.333333,90.9805999 120.317023,90 121.534725,90 L123.798608,90 C125.014403,90 126,90.9819803 126,92.1903214 L126,97.1704109 C126,110.881134 114.807119,122 101,122 C87.1898454,122 76,110.883414 76,97.1704109 L76,92.1903214 C76,90.9806403 76.9836896,90 78.2013922,90 L80.4652745,90 C81.6810698,90 82.6666667,90.9819398 82.6666667,92.1902312 L82.6666667,97.1701155 C82.6666667,107.226776 90.8725533,115.37931 101,115.37931 C111.12522,115.37931 119.333333,107.226758 119.333333,97.1701155 Z M119.333333,97.1701155" id="Rectangle 5" fill="#313541"></path>
            </g>
        </g>
    </g>
</svg>