<?xml version="1.0" encoding="UTF-8" standalone="no"?>
<svg width="687px" height="583px" viewBox="0 0 687 583" version="1.1" xmlns="http://www.w3.org/2000/svg" xmlns:xlink="http://www.w3.org/1999/xlink" xmlns:sketch="http://www.bohemiancoding.com/sketch/ns">
    <title>small-branch</title>
    <description>Created with Sketch (http://www.bohemiancoding.com/sketch)</description>
    <defs></defs>
    <g id="Page 1" fill="#D8D8D8" fill-rule="evenodd">
        <g id="Artboard 2">
            <path d="M-56.5,-8.5 L-56.5,591.5 L743.5,591.5 L743.5,-8.5 L-56.5,-8.5 L-56.5,-8.5 Z M-56.5,-8.5" id="Rectangle 99 copy" fill="#FFDBCC"></path>
            <g id="brance copy">
                <path d="M367.076923,406.384615 C324.593479,406.384615 290.153846,371.944982 290.153846,329.461538 C290.153846,329.240997 290.154774,329.020674 290.156626,328.800597 C290.154774,328.684521 290.153846,328.568223 290.153846,328.451708 L290.153846,298.179487 L266.814944,298.179487 C254.198949,298.179487 244,287.962395 244,275.358974 C244,262.752782 254.214597,252.538462 266.814944,252.538462 L290.153846,252.538462 L290.153846,212.522651 C290.153846,200.645818 299.796944,191 311.692308,191 C323.563467,191 333.230769,200.636021 333.230769,212.522651 L333.230769,252.538462 L362.210697,252.538462 C362.787708,252.538462 363.359659,252.559833 363.925813,252.601828 C364.970949,252.559718 366.021454,252.538462 367.076923,252.538462 C409.560367,252.538462 444,286.978095 444,329.461538 C444,371.944982 409.560367,406.384615 367.076923,406.384615 L367.076923,406.384615 Z M367.88989,362.325231 C387.007441,362.325231 402.505274,347.975385 402.505274,330.273949 C402.505274,312.572515 387.007441,298.222667 367.88989,298.222667 L333.274505,298.222667 L333.274505,330.273949 C333.274505,347.975385 348.772341,362.325231 367.88989,362.325231 L367.88989,362.325231 Z M367.88989,362.325231" id="Oval 46" fill="#FF4B00"></path>
                <path d="M290.153846,252.538462 L290.153846,298.179487 L333.230769,298.179487 L333.230769,252.538462 L290.153846,252.538462 L290.153846,252.538462 Z M290.153846,252.538462" id="Rectangle 107" fill="#AF0000"></path>
            </g>
        </g>
    </g>
</svg>