<?xml version="1.0" encoding="utf-8"?>
<!-- Generator: Adobe Illustrator 16.2.1, SVG Export Plug-In . SVG Version: 6.00 Build 0)  -->
<!DOCTYPE svg PUBLIC "-//W3C//DTD SVG 1.1//EN" "http://www.w3.org/Graphics/SVG/1.1/DTD/svg11.dtd">
<svg version="1.1" xmlns="http://www.w3.org/2000/svg" xmlns:xlink="http://www.w3.org/1999/xlink" x="0px" y="0px" width="800px"
	 height="400px" viewBox="0 0 800 400" enable-background="new 0 0 800 400" xml:space="preserve">
<g id="Layer_2">
	<rect fill-rule="evenodd" clip-rule="evenodd" fill="#444F5F" width="800" height="400"/>
</g>
<g id="Layer_1">
	<path fill-rule="evenodd" clip-rule="evenodd" fill="#FFFFFF" d="M467.5,203.943c-0.002-2.115-0.102-4.565-3.176-3.335
		c-8.266,3.306-16.426,6.876-24.998,10.497c2.043,1.676,3.432,3.221,5.154,4.148c3.869,2.086,3.676,4.512,1.668,7.951
		c-8.275,14.164-20.258,23.066-36.338,26.48c-3,0.637-4.375,0.465-4.336-3.348c0.203-20.16,0.148-40.322,0.027-60.483
		c-0.016-2.548,0.738-3.678,3.072-4.701c10.371-4.545,15.803-14.804,13.564-25.065c-2.318-10.632-11.461-18.103-22.147-18.098
		c-10.683,0.005-19.814,7.485-22.131,18.126c-2.234,10.266,3.274,20.627,13.611,25.012c2.412,1.023,3.04,2.242,3.026,4.74
		c-0.11,20.161-0.172,40.323,0.035,60.483c0.04,3.848-1.382,3.961-4.352,3.332c-14.915-3.156-26.578-11.008-34.817-23.859
		c-4.366-6.811-4.334-6.828,1.98-11.982c0.967-0.789,1.904-1.611,3.292-2.789c-8.437-3.543-16.396-6.824-24.302-10.234
		c-3.267-1.41-3.82,0.365-3.827,2.936c-0.021,7.963-0.008,15.928-0.008,24.25c1.272-0.426,2.296-0.555,3.066-1.064
		c4.763-3.154,7.059-1.66,9.892,3.279c23.835,41.57,82.471,42.523,108.122,1.969c1.584-2.504,2.613-6.494,4.752-7.193
		c2.197-0.721,5.434,1.762,8.232,2.797c0.201,0.074,0.539-0.227,0.938-0.408C467.502,219.6,467.508,211.771,467.5,203.943z
		 M399.843,171.854c-6.17-0.11-11.435-5.639-11.167-11.727c0.263-5.975,5.566-11.011,11.487-10.908
		c5.952,0.103,11.131,5.305,11.182,11.23C411.396,166.563,405.951,171.963,399.843,171.854z"/>
</g>
</svg>
