<?xml version="1.0" encoding="UTF-8" standalone="no"?>
<svg width="200px" height="200px" viewBox="0 0 200 200" version="1.1" xmlns="http://www.w3.org/2000/svg" xmlns:xlink="http://www.w3.org/1999/xlink" xmlns:sketch="http://www.bohemiancoding.com/sketch/ns">
    <title>anchor-cms-mini</title>
    <description>Created with Sketch (http://www.bohemiancoding.com/sketch)</description>
    <defs></defs>
    <g id="Page 1" stroke="none" stroke-width="1" fill="none" fill-rule="evenodd">
        <g id="anchor-cms-mini">
            <g id="Group">
                <g id="Layer_2" fill="#444F5F">
                    <path d="M0,0 L0,200 L200,200 L200,0 L0,0 Z M0,0" id="Rectangle"></path>
                </g>
                <g id="Layer_1" transform="translate(75.000000, 80.000000)" fill="#FFFFFF">
                    <path d="M49.8161765,24.6113971 C49.8154412,23.8338235 49.7786765,22.9330882 48.6485294,23.3852941 C45.6095588,24.6007353 42.6095588,25.9132353 39.4580882,27.2444853 C40.2091912,27.8606618 40.7198529,28.4286765 41.3529412,28.7694853 C42.7753676,29.5363971 42.7044118,30.4283088 41.9661765,31.6926471 C38.9238971,36.9 34.5183824,40.1727941 28.6066176,41.4279412 C27.5036765,41.6621324 26.9981618,41.5988971 27.0125,40.1970588 C27.0871324,32.7852941 27.0669118,25.3727941 27.0224265,17.9606618 C27.0165441,17.0238971 27.29375,16.6084559 28.1518382,16.2323529 C31.9647059,14.5613971 33.9617647,10.7897059 33.1386029,7.01727941 C32.2863971,3.10845588 28.925,0.361764706 24.9963235,0.363602941 C21.06875,0.365441176 17.7117647,3.11544118 16.8599265,7.02757353 C16.0386029,10.8018382 18.0636029,14.6110294 21.8639706,16.2231618 C22.7507353,16.5992647 22.9816176,17.0474265 22.9764706,17.9658088 C22.9360294,25.3779412 22.9132353,32.7904412 22.9893382,40.2022059 C23.0040441,41.6169118 22.48125,41.6584559 21.3893382,41.4272059 C15.9058824,40.2669118 11.6180147,37.3801471 8.58897059,32.6555147 C6.98382353,30.1514706 6.99558824,30.1452206 9.31691176,28.2503676 C9.67242647,27.9602941 10.0169118,27.6580882 10.5272059,27.225 C7.42536765,25.9224265 4.49926471,24.7161765 1.59264706,23.4625 C0.391544118,22.9441176 0.188235294,23.5966912 0.185661765,24.5419118 C0.177941176,27.4694853 0.182720588,30.3977941 0.182720588,33.4573529 C0.650367647,33.3007353 1.02683824,33.2533088 1.30992647,33.0661765 C3.06102941,31.9066176 3.90514706,32.4558824 4.94669118,34.2716912 C13.7095588,49.5547794 35.2669118,49.9051471 44.6974265,34.9955882 C45.2797794,34.075 45.6580882,32.6080882 46.4444853,32.3511029 C47.2522059,32.0860294 48.4422794,32.9988971 49.4709559,33.3794118 C49.5448529,33.4066176 49.6691176,33.2959559 49.8158088,33.2294118 C49.8169118,30.3676471 49.8191176,27.4893382 49.8161765,24.6113971 L49.8161765,24.6113971 Z M24.9422794,12.8139706 C22.6738971,12.7735294 20.7382353,10.7408088 20.8367647,8.50257353 C20.9334559,6.30588235 22.8830882,4.45441176 25.0599265,4.49227941 C27.2481618,4.53014706 29.1522059,6.44264706 29.1709559,8.62095588 C29.1897059,10.86875 27.1878676,12.8540441 24.9422794,12.8139706 L24.9422794,12.8139706 Z M24.9422794,12.8139706" id="Shape"></path>
                </g>
            </g>
        </g>
    </g>
</svg>