<?xml version="1.0" encoding="UTF-8" standalone="no"?>
<svg width="1285px" height="248px" viewBox="0 0 1285 248" version="1.1" xmlns="http://www.w3.org/2000/svg" xmlns:xlink="http://www.w3.org/1999/xlink" xmlns:sketch="http://www.bohemiancoding.com/sketch/ns">
    <title>Artboard 2</title>
    <description>Created with Sketch (http://www.bohemiancoding.com/sketch)</description>
    <defs></defs>
    <g id="Page 1" fill="#D8D8D8" fill-rule="evenodd">
        <g id="Artboard 2">
            <path d="M0,0 L0,250 L1285,250 L1285,0 L0,0 Z M0,0" id="Rectangle 2 copy" fill="#3085C6"></path>
            <g id="box copy">
                <path d="M163,139.5 C163,125.413642 174.417631,114 188.501993,114 L190,114 C190,94.117748 206.565463,78 227,78 C230.699578,78 234.272338,78.5282983 237.642937,79.5115882 C244.265522,73.6139222 253.186606,70 263,70 C282.367199,70 298.258949,84.0758284 299.866228,102.002736 C314.885263,102.227276 327,116.243077 327,133.5 C327,150.89697 314.687831,165 299.5,165 C299.004016,165 298.511098,164.98496 298.021588,164.955255 C297.517525,164.984945 297.009525,165 296.498007,165 L188.501993,165 C174.418921,165 163,153.583261 163,139.5 Z M163,139.5" id="Rectangle 1 copy" fill="#B5C6DF"></path>
                <path d="M163,135.5 C163,121.413642 174.417631,110 188.501993,110 L190,110 C190,90.117748 206.565463,74 227,74 C230.699578,74 234.272338,74.5282983 237.642937,75.5115882 C244.265522,69.6139222 253.186606,66 263,66 C282.367199,66 298.258949,80.0758284 299.866228,98.0027362 C314.885263,98.227276 327,112.243077 327,129.5 C327,146.89697 314.687831,161 299.5,161 C299.004016,161 298.511098,160.98496 298.021588,160.955255 C297.517525,160.984945 297.009525,161 296.498007,161 L188.501993,161 C174.418921,161 163,149.583261 163,135.5 Z M163,135.5" id="Rectangle 1 copy" fill="#FCFCFC"></path>
                <path d="M163,134.5 C163,120.413642 174.417631,109 188.501993,109 L190,109 C190,89.117748 206.565463,73 227,73 C230.699578,73 234.272338,73.5282983 237.642937,74.5115882 C244.265522,68.6139222 253.186606,65 263,65 C282.367199,65 298.258949,79.0758284 299.866228,97.0027362 C314.885263,97.227276 327,111.243077 327,128.5 C327,145.89697 314.687831,160 299.5,160 C299.004016,160 298.511098,159.98496 298.021588,159.955255 C297.517525,159.984945 297.009525,160 296.498007,160 L188.501993,160 C174.418921,160 163,148.583261 163,134.5 Z M163,134.5" id="Rectangle 1" fill="#F4F8FC"></path>
            </g>
            <g id="box copy 2">
                <path d="M369,75.5 C369,61.4136424 380.417631,50 394.501993,50 L396,50 C396,30.117748 412.565463,14 433,14 C436.699578,14 440.272338,14.5282983 443.642937,15.5115882 C450.265522,9.6139222 459.186606,6 469,6 C488.367199,6 504.258949,20.0758284 505.866228,38.0027362 C520.885263,38.227276 533,52.2430775 533,69.5 C533,86.8969705 520.687831,101 505.5,101 C505.004016,101 504.511098,100.98496 504.021588,100.955255 C503.517525,100.984945 503.009525,101 502.498007,101 L394.501993,101 C380.418921,101 369,89.5832611 369,75.5 Z M369,75.5" id="Rectangle 1 copy" fill="#B5C6DF"></path>
                <path d="M369,71.5 C369,57.4136424 380.417631,46 394.501993,46 L396,46 C396,26.117748 412.565463,10 433,10 C436.699578,10 440.272338,10.5282983 443.642937,11.5115882 C450.265522,5.6139222 459.186606,2 469,2 C488.367199,2 504.258949,16.0758284 505.866228,34.0027362 C520.885263,34.227276 533,48.2430775 533,65.5 C533,82.8969705 520.687831,97 505.5,97 C505.004016,97 504.511098,96.9849597 504.021588,96.9552547 C503.517525,96.9849453 503.009525,97 502.498007,97 L394.501993,97 C380.418921,97 369,85.5832611 369,71.5 Z M369,71.5" id="Rectangle 1 copy" fill="#FCFCFC"></path>
                <path d="M369,70.5 C369,56.4136424 380.417631,45 394.501993,45 L396,45 C396,25.117748 412.565463,9 433,9 C436.699578,9 440.272338,9.52829828 443.642937,10.5115882 C450.265522,4.6139222 459.186606,1 469,1 C488.367199,1 504.258949,15.0758284 505.866228,33.0027362 C520.885263,33.227276 533,47.2430775 533,64.5 C533,81.8969705 520.687831,96 505.5,96 C505.004016,96 504.511098,95.9849597 504.021588,95.9552547 C503.517525,95.9849453 503.009525,96 502.498007,96 L394.501993,96 C380.418921,96 369,84.5832611 369,70.5 Z M369,70.5" id="Rectangle 1" fill="#F4F8FC"></path>
            </g>
            <g id="box copy 3">
                <path d="M616,199.5 C616,185.413642 627.417631,174 641.501993,174 L643,174 C643,154.117748 659.565463,138 680,138 C683.699578,138 687.272338,138.528298 690.642937,139.511588 C697.265522,133.613922 706.186606,130 716,130 C735.367199,130 751.258949,144.075828 752.866228,162.002736 C767.885263,162.227276 780,176.243077 780,193.5 C780,210.89697 767.687831,225 752.5,225 C752.004016,225 751.511098,224.98496 751.021588,224.955255 C750.517525,224.984945 750.009525,225 749.498007,225 L641.501993,225 C627.418921,225 616,213.583261 616,199.5 Z M616,199.5" id="Rectangle 1 copy" fill="#B5C6DF"></path>
                <path d="M616,195.5 C616,181.413642 627.417631,170 641.501993,170 L643,170 C643,150.117748 659.565463,134 680,134 C683.699578,134 687.272338,134.528298 690.642937,135.511588 C697.265522,129.613922 706.186606,126 716,126 C735.367199,126 751.258949,140.075828 752.866228,158.002736 C767.885263,158.227276 780,172.243077 780,189.5 C780,206.89697 767.687831,221 752.5,221 C752.004016,221 751.511098,220.98496 751.021588,220.955255 C750.517525,220.984945 750.009525,221 749.498007,221 L641.501993,221 C627.418921,221 616,209.583261 616,195.5 Z M616,195.5" id="Rectangle 1 copy" fill="#FCFCFC"></path>
                <path d="M616,194.5 C616,180.413642 627.417631,169 641.501993,169 L643,169 C643,149.117748 659.565463,133 680,133 C683.699578,133 687.272338,133.528298 690.642937,134.511588 C697.265522,128.613922 706.186606,125 716,125 C735.367199,125 751.258949,139.075828 752.866228,157.002736 C767.885263,157.227276 780,171.243077 780,188.5 C780,205.89697 767.687831,220 752.5,220 C752.004016,220 751.511098,219.98496 751.021588,219.955255 C750.517525,219.984945 750.009525,220 749.498007,220 L641.501993,220 C627.418921,220 616,208.583261 616,194.5 Z M616,194.5" id="Rectangle 1" fill="#F4F8FC"></path>
            </g>
            <g id="box copy 4">
                <path d="M900,199.5 C900,185.413642 911.417631,174 925.501993,174 L927,174 C927,154.117748 943.565463,138 964,138 C967.699578,138 971.272338,138.528298 974.642937,139.511588 C981.265522,133.613922 990.186606,130 1000,130 C1019.3672,130 1035.25895,144.075828 1036.86623,162.002736 C1051.88526,162.227276 1064,176.243077 1064,193.5 C1064,210.89697 1051.68783,225 1036.5,225 C1036.00402,225 1035.5111,224.98496 1035.02159,224.955255 C1034.51752,224.984945 1034.00952,225 1033.49801,225 L925.501993,225 C911.418921,225 900,213.583261 900,199.5 Z M900,199.5" id="Rectangle 1 copy" fill="#B5C6DF"></path>
                <path d="M900,195.5 C900,181.413642 911.417631,170 925.501993,170 L927,170 C927,150.117748 943.565463,134 964,134 C967.699578,134 971.272338,134.528298 974.642937,135.511588 C981.265522,129.613922 990.186606,126 1000,126 C1019.3672,126 1035.25895,140.075828 1036.86623,158.002736 C1051.88526,158.227276 1064,172.243077 1064,189.5 C1064,206.89697 1051.68783,221 1036.5,221 C1036.00402,221 1035.5111,220.98496 1035.02159,220.955255 C1034.51752,220.984945 1034.00952,221 1033.49801,221 L925.501993,221 C911.418921,221 900,209.583261 900,195.5 Z M900,195.5" id="Rectangle 1 copy" fill="#FCFCFC"></path>
                <path d="M900,194.5 C900,180.413642 911.417631,169 925.501993,169 L927,169 C927,149.117748 943.565463,133 964,133 C967.699578,133 971.272338,133.528298 974.642937,134.511588 C981.265522,128.613922 990.186606,125 1000,125 C1019.3672,125 1035.25895,139.075828 1036.86623,157.002736 C1051.88526,157.227276 1064,171.243077 1064,188.5 C1064,205.89697 1051.68783,220 1036.5,220 C1036.00402,220 1035.5111,219.98496 1035.02159,219.955255 C1034.51752,219.984945 1034.00952,220 1033.49801,220 L925.501993,220 C911.418921,220 900,208.583261 900,194.5 Z M900,194.5" id="Rectangle 1" fill="#F4F8FC"></path>
            </g>
            <g id="box copy 5">
                <path d="M684,157.5 C684,143.413642 695.417631,132 709.501993,132 L711,132 C711,112.117748 727.565463,96 748,96 C751.699578,96 755.272338,96.5282983 758.642937,97.5115882 C765.265522,91.6139222 774.186606,88 784,88 C803.367199,88 819.258949,102.075828 820.866228,120.002736 C835.885263,120.227276 848,134.243077 848,151.5 C848,168.89697 835.687831,183 820.5,183 C820.004016,183 819.511098,182.98496 819.021588,182.955255 C818.517525,182.984945 818.009525,183 817.498007,183 L709.501993,183 C695.418921,183 684,171.583261 684,157.5 Z M684,157.5" id="Rectangle 1 copy" fill="#B5C6DF"></path>
                <path d="M684,153.5 C684,139.413642 695.417631,128 709.501993,128 L711,128 C711,108.117748 727.565463,92 748,92 C751.699578,92 755.272338,92.5282983 758.642937,93.5115882 C765.265522,87.6139222 774.186606,84 784,84 C803.367199,84 819.258949,98.0758284 820.866228,116.002736 C835.885263,116.227276 848,130.243077 848,147.5 C848,164.89697 835.687831,179 820.5,179 C820.004016,179 819.511098,178.98496 819.021588,178.955255 C818.517525,178.984945 818.009525,179 817.498007,179 L709.501993,179 C695.418921,179 684,167.583261 684,153.5 Z M684,153.5" id="Rectangle 1 copy" fill="#FCFCFC"></path>
                <path d="M684,152.5 C684,138.413642 695.417631,127 709.501993,127 L711,127 C711,107.117748 727.565463,91 748,91 C751.699578,91 755.272338,91.5282983 758.642937,92.5115882 C765.265522,86.6139222 774.186606,83 784,83 C803.367199,83 819.258949,97.0758284 820.866228,115.002736 C835.885263,115.227276 848,129.243077 848,146.5 C848,163.89697 835.687831,178 820.5,178 C820.004016,178 819.511098,177.98496 819.021588,177.955255 C818.517525,177.984945 818.009525,178 817.498007,178 L709.501993,178 C695.418921,178 684,166.583261 684,152.5 Z M684,152.5" id="Rectangle 1" fill="#F4F8FC"></path>
            </g>
        </g>
    </g>
</svg>