<?xml version="1.0" encoding="UTF-8" standalone="no"?>
<svg width="200px" height="200px" viewBox="0 0 200 200" version="1.1" xmlns="http://www.w3.org/2000/svg" xmlns:xlink="http://www.w3.org/1999/xlink" xmlns:sketch="http://www.bohemiancoding.com/sketch/ns">
    <title>Artboard 2</title>
    <description>Created with Sketch (http://www.bohemiancoding.com/sketch)</description>
    <defs></defs>
    <g id="Page 1" fill="#D8D8D8" fill-rule="evenodd">
        <g id="Artboard 2">
            <g id="Slice 1 copy" fill="#000000">
                <g id="Page 1" fill="#D8D8D8">
                    <path d="M0,0 L0,200 L200,200 L200,0 L0,0 L0,0 Z M0,0" id="Rectangle 1" fill="#BF362A"></path>
                    <path d="M28.3580264,111.188034 C29.0911866,110.933761 29.7876888,110.679487 30.447533,110.425214 C30.6674812,110.352564 30.8507711,110.316239 31.0340613,110.316239 C31.5106153,110.316239 31.8771954,110.534188 31.9871697,111.042735 C32.0604856,111.224359 32.0971436,111.405983 32.0971436,111.551282 C32.0971436,111.84188 31.9871697,112.059829 31.8405374,112.277778 C34.3332821,110.352564 36.3861307,107.955128 37.8891094,105.194444 L34.9198104,105.194444 C34.3699405,105.194444 34.0400184,104.722222 34.0400184,104.104701 C34.0400184,103.487179 34.3699405,103.051282 34.9198104,103.051282 L38.5122957,103.051282 L38.5122957,99.7820511 L34.1499922,99.7820511 C33.526806,99.7820511 33.2335418,99.3824786 33.2335418,98.6923076 C33.2335418,98.0384614 33.526806,97.6025641 34.1499922,97.6025641 L38.5122957,97.6025641 L38.5122957,94.5149573 L34.8464944,94.5149573 C34.2599661,94.5149573 33.930044,94.0064101 33.930044,93.3888886 C33.930044,92.7713676 34.2599661,92.3354699 34.8464944,92.3354699 L38.5122957,92.3354699 L38.5122957,89.4294872 L34.6998621,89.4294872 C34.0766763,89.4294872 33.7100962,88.92094 33.7100962,88.2670938 C33.7100962,87.5405981 34.0766763,87.1410256 34.6998621,87.1410256 L38.4756377,87.1410256 C37.9257674,86.2329058 37.2659232,85.3247864 36.8260272,84.7435897 C36.6427369,84.5256408 36.569421,84.2713676 36.569421,84.0534188 C36.569421,83.6901709 36.7893692,83.3995726 37.1926072,83.2179484 C37.412555,83.1089742 37.6325032,83.0726495 37.8157935,83.0726495 C38.2923475,83.0726495 38.6955855,83.2905984 38.9888497,83.6901709 C39.612036,84.4529913 40.5284864,85.8696579 41.2249886,87.1410256 L44.9641053,87.1410256 C45.8072398,85.9786326 46.6137159,84.7072649 47.0536124,83.7628204 C47.3102181,83.2542736 47.7134566,83 48.2266686,83 C48.4099588,83 48.6299066,83.0363247 48.8498548,83.1089742 C49.2897508,83.2542736 49.619673,83.5448715 49.619673,83.9807693 C49.619673,84.1987177 49.546357,84.4166666 49.3997247,84.7072649 C48.9964867,85.3611111 48.3366425,86.2692305 47.6767982,87.1410256 L53.7253702,87.1410256 C54.3485565,87.1410256 54.7151366,87.5405981 54.7151366,88.2670938 C54.7151366,88.92094 54.3485565,89.4294872 53.7253702,89.4294872 L46.7970062,89.4294872 L46.7970062,92.3354699 L50.1695433,92.3354699 C52.185734,92.3354699 53.065526,93.061966 53.065526,95.096154 L53.065526,97.6025641 L54.2385826,97.6025641 C54.8251105,97.6025641 55.1550326,97.965812 55.1550326,98.6923076 C55.1550326,99.3824786 54.8251105,99.7820511 54.2385826,99.7820511 L53.065526,99.7820511 L53.065526,102.433761 C53.065526,104.467949 52.185734,105.194444 50.1695433,105.194444 L47.4201925,105.194444 C49.2164349,108.136752 51.7458375,110.388889 54.6418207,112.314102 C54.9717428,112.568376 55.1550326,112.967949 55.1550326,113.367521 C55.1550326,113.65812 55.0817167,113.948718 54.8984269,114.202992 C54.6051627,114.602564 54.2019242,114.784188 53.8353441,114.784188 C53.5787384,114.784188 53.3221322,114.711538 53.1388419,114.566239 C50.6460973,112.786325 47.9700624,109.880342 46.3571102,106.938034 C46.577058,108.064103 46.7970062,109.589744 46.7970062,111.188034 L46.7970062,116.055555 C46.7970062,116.673077 46.3937681,117 45.6239496,117 C44.8907894,117 44.4508934,116.673077 44.4508934,116.055555 L44.4508934,105.194444 L40.8584081,105.194444 L40.8584081,116.055555 C40.8584081,116.673077 40.45517,117 39.6486939,117 C38.9155338,117 38.5122957,116.673077 38.5122957,116.055555 L38.5122957,111.151709 C38.5122957,110.025641 38.7322435,108.173077 38.9521917,106.938034 C37.3758971,110.17094 35.2863905,112.786325 32.4270657,114.929487 C32.2071175,115.111111 31.9871697,115.183761 31.7305635,115.183761 C31.3639834,115.183761 30.9974034,115.002137 30.7407972,114.602564 C30.5575069,114.348291 30.484191,114.094017 30.484191,113.839744 C30.484191,113.476496 30.6308233,113.113248 30.9607454,112.895299 C31.0340613,112.82265 31.1073772,112.786325 31.2173511,112.713675 L31.0707193,112.786325 C28.2113946,113.912393 24.7655411,114.929487 21.9795323,115.474359 C21.8695584,115.510684 21.7595845,115.510684 21.6496102,115.510684 C21.0997402,115.510684 20.6598438,115.183761 20.5132119,114.457265 C20.476554,114.348291 20.476554,114.202992 20.476554,114.094017 C20.476554,113.476496 20.8064761,113.040598 21.5029783,112.931624 C22.8593247,112.67735 24.398961,112.314102 25.9385977,111.91453 L25.9385977,100.617521 L21.6862681,100.617521 C21.0264243,100.617521 20.6965022,100.181624 20.6965022,99.4188033 C20.6965022,98.7286324 21.0264243,98.3290598 21.6862681,98.3290598 L25.9385977,98.3290598 L25.9385977,94.6239315 L24.1056973,94.6239315 C23.482511,94.6239315 23.1525889,94.224359 23.1525889,93.5705128 C23.1525889,92.8803419 23.482511,92.4444445 24.1056973,92.4444445 L30.9974034,92.4444445 C31.6205892,92.4444445 31.9505113,92.8803419 31.9505113,93.5705128 C31.9505113,94.224359 31.6205892,94.6239315 30.9974034,94.6239315 L28.3580264,94.6239315 L28.3580264,98.3290598 L31.5472733,98.3290598 C32.1704595,98.3290598 32.5003817,98.6923076 32.5003817,99.4188033 C32.5003817,100.145299 32.1704595,100.617521 31.5472733,100.617521 L28.3580264,100.617521 L28.3580264,111.188034 Z M46.7970062,103.051282 L49.8029632,103.051282 C50.4628075,103.051282 50.7927296,102.869658 50.7927296,102.179487 L50.7927296,99.7820511 L46.7970062,99.7820511 L46.7970062,103.051282 Z M44.4508934,99.7820511 L40.8584081,99.7820511 L40.8584081,103.051282 L44.4508934,103.051282 L44.4508934,99.7820511 Z M44.4508934,89.4294872 L40.8584081,89.4294872 L40.8584081,92.3354699 L44.4508934,92.3354699 L44.4508934,89.4294872 Z M40.8584081,94.5149573 L40.8584081,97.6025641 L44.4508934,97.6025641 L44.4508934,94.5149573 L40.8584081,94.5149573 Z M46.7970062,97.6025641 L50.7927296,97.6025641 L50.7927296,95.3867519 C50.7927296,94.696581 50.4628075,94.5149573 49.8029632,94.5149573 L46.7970062,94.5149573 L46.7970062,97.6025641 Z M21.9062163,102.470085 C22.0528486,102.433761 22.1994805,102.397436 22.3461124,102.397436 C22.8226668,102.397436 23.2259048,102.688034 23.3725367,103.196581 C23.959065,104.867521 24.5089353,106.938034 24.8388574,108.863248 C24.8755154,108.972222 24.8755154,109.044872 24.8755154,109.117521 C24.8755154,109.698718 24.5822513,110.061966 23.959065,110.207265 C23.8490911,110.24359 23.7391168,110.24359 23.6291429,110.24359 C23.1525889,110.24359 22.7126924,109.989316 22.6027185,109.40812 C22.2727964,107.59188 21.7229265,105.448718 21.1730562,103.850427 C21.1363982,103.705128 21.0997402,103.596154 21.0997402,103.450855 C21.0997402,103.014957 21.3930044,102.651709 21.9062163,102.470085 L21.9062163,102.470085 Z M31.9505113,102.397436 C32.4637237,102.50641 32.8303038,102.797008 32.8303038,103.378205 C32.8303038,103.450855 32.8303038,103.559829 32.7936458,103.632479 C32.5736976,105.230769 32.2071175,106.683761 31.6205892,108.282051 C31.4739573,108.790598 31.0340613,109.008547 30.6308233,109.008547 C30.484191,109.008547 30.3375591,108.972222 30.2275848,108.935897 C29.7510308,108.754274 29.4944246,108.427351 29.4944246,107.991453 C29.4944246,107.846154 29.5310826,107.66453 29.5677406,107.482906 C30.0809529,106.138889 30.3742171,104.722222 30.6308233,103.196581 C30.7407972,102.57906 31.1073772,102.361111 31.5839312,102.361111 C31.7305635,102.361111 31.8405374,102.361111 31.9505113,102.397436 L31.9505113,102.397436 Z M25.7186495,84.4893161 C26.1218875,83.8717946 26.7817317,83.5811967 27.404918,83.5811967 C28.0281043,83.5811967 28.6879485,83.8717946 29.0911866,84.5256408 C30.3375591,86.4145299 31.5839312,87.8311965 33.050252,89.1388889 C33.3068577,89.3931625 33.45349,89.7200856 33.45349,90.0106839 C33.45349,90.3376066 33.3068577,90.6645297 33.050252,90.9188033 C32.8303038,91.2094016 32.4270657,91.3547006 32.0604856,91.3547006 C31.7672215,91.3547006 31.5106153,91.2457264 31.2540091,91.0277779 C30.007637,89.8290598 28.7612645,88.3760685 27.844814,86.8867519 C27.6615242,86.5961536 27.5515503,86.4508546 27.404918,86.4508546 C27.2949441,86.4508546 27.1849702,86.5961536 27.0383379,86.8141025 C25.8652818,88.8482905 24.1056973,91.0277779 22.1994805,92.7713676 C21.9428743,92.9893161 21.6129522,93.0982907 21.319688,93.0982907 C20.91645,93.0982907 20.5132119,92.9166666 20.2566057,92.5897435 C20.0733159,92.3354699 20,92.0811967 20,91.7905984 C20,91.4273505 20.1832898,91.0277779 20.439896,90.8098291 C22.3827703,89.1752136 24.1790132,86.9957266 25.7186495,84.4893161 L25.7186495,84.4893161 Z M75.6061301,92.1901709 C75.0196017,92.1901709 74.6530217,91.7179489 74.6530217,91.0641027 C74.6530217,90.3739318 75.0196017,89.8653845 75.6061301,89.8653845 L83.2309963,89.8653845 C83.8175246,89.8653845 84.1841047,90.3739318 84.1841047,91.0641027 C84.1841047,91.7179489 83.8175246,92.1901709 83.2309963,92.1901709 L75.6061301,92.1901709 Z M73.5532814,107.555555 L89.3528842,107.555555 C91.295759,107.555555 92.212209,108.354701 92.212209,110.17094 L92.212209,113.767094 C92.212209,115.583333 91.295759,116.418803 89.3528842,116.418803 L73.4066491,116.418803 C71.4637748,116.418803 70.5473244,115.583333 70.5473244,113.767094 L70.5473244,110.24359 C70.5473244,108.354701 71.5004328,107.555555 73.5532814,107.555555 L73.5532814,107.555555 Z M74.2864416,114.166667 L88.4730918,114.166667 C89.169594,114.166667 89.4995161,113.985043 89.4995161,113.331196 L89.4995161,110.643162 C89.4995161,109.989316 89.169594,109.807692 88.4730918,109.807692 L74.2864416,109.807692 C73.5899394,109.807692 73.2600173,109.989316 73.2600173,110.643162 L73.2600173,113.331196 C73.2600173,113.985043 73.5899394,114.166667 74.2864416,114.166667 L74.2864416,114.166667 Z M80.1517233,86.3418804 C79.7851433,86.0149573 79.5285371,85.8696579 79.2719313,85.8696579 C78.9786672,85.8696579 78.722061,86.0512821 78.3921389,86.3418804 C75.0562597,89.6474357 69.557558,93.061966 64.5720687,95.0235041 C64.3521205,95.096154 64.1321723,95.1324788 63.9488825,95.1324788 C63.3990121,95.1324788 62.9591161,94.8055557 62.7391679,94.2970084 C62.629194,94.07906 62.592536,93.8611111 62.592536,93.6431623 C62.592536,93.0982907 62.8858002,92.6260682 63.4356701,92.4444445 C68.2012116,90.7371796 73.4433071,87.5405981 76.7791862,84.2350425 C77.4756884,83.5448715 78.3554809,83.2179484 79.1986149,83.2179484 C80.0784074,83.2179484 80.9948578,83.5811967 81.69136,84.2713676 C84.8806069,87.3226497 90.4892825,90.4102565 95.6214041,92.2628204 C96.2445903,92.4807693 96.5378545,92.9529913 96.5378545,93.4978633 C96.5378545,93.7158117 96.5011965,93.8974359 96.4645386,94.1153847 C96.2445903,94.7329058 95.7680364,95.0598289 95.218166,95.0598289 C95.0348762,95.0598289 94.8515859,95.0235041 94.6682961,94.9508546 C89.2062524,92.8440171 83.5975764,89.6474357 80.1517233,86.3418804 L80.1517233,86.3418804 Z M70.1440863,105.376068 C69.4475841,109.226496 67.9446054,112.895299 65.7451249,115.438034 C65.4518608,115.801282 65.0852807,115.946581 64.6820426,115.946581 C64.3154625,115.946581 63.9488825,115.837607 63.6556183,115.583333 C63.3623541,115.32906 63.1790639,114.929487 63.1790639,114.529915 C63.1790639,114.239316 63.2890382,113.912393 63.508986,113.621795 C66.8448652,109.735043 68.0912377,104.576923 68.1278957,96.5854701 C68.1278957,94.696581 69.15432,93.9337606 71.1338527,93.9337606 L87.7399316,93.9337606 C89.6828064,93.9337606 90.7458886,94.696581 90.7458886,96.5854701 L90.7458886,102.833333 C90.7458886,104.613248 89.7561223,105.376068 87.7399316,105.376068 L70.1440863,105.376068 Z M70.6206403,100.726496 C70.5839823,101.452991 70.5106664,102.324786 70.4006925,103.123932 L87.0434294,103.123932 C87.7765896,103.123932 88.1065117,102.942308 88.1065117,102.252137 L88.1065117,100.726496 L70.6206403,100.726496 Z M70.7672726,98.5470087 L88.1065117,98.5470087 L88.1065117,97.0576922 C88.1065117,96.3675212 87.7765896,96.1858975 87.0434294,96.1858975 L71.8670129,96.1858975 C71.1338527,96.1858975 70.8039306,96.3675212 70.8039306,97.0576922 L70.7672726,98.5470087 Z M125.420294,94.3333332 L125.420294,89.8290598 L118.601904,89.8290598 C117.905402,89.8290598 117.538822,89.3205126 117.538822,88.5940169 C117.538822,87.903846 117.905402,87.3589744 118.601904,87.3589744 L125.420294,87.3589744 L125.420294,84.2350425 C125.420294,83.5448715 125.933507,83.1816237 126.739983,83.1816237 C127.583117,83.1816237 128.132987,83.5448715 128.132987,84.2350425 L128.132987,87.3589744 L135.794512,87.3589744 C136.454356,87.3589744 136.784278,87.8675212 136.784278,88.5576922 C136.784278,89.3205126 136.454356,89.8290598 135.794512,89.8290598 L128.132987,89.8290598 L128.132987,94.3333332 L137.224174,94.3333332 C137.84736,94.3333332 138.250598,94.8055557 138.250598,95.5320513 C138.250598,96.2948718 137.84736,96.8397437 137.224174,96.8397437 L133.448399,96.8397437 L133.448399,100.90812 L137.150858,100.90812 C137.810702,100.90812 138.177282,101.416667 138.177282,102.143162 C138.177282,102.905983 137.810702,103.41453 137.150858,103.41453 L133.448399,103.41453 L133.448399,113.149573 C133.448399,115.619658 132.128711,116.564103 129.416018,116.564103 C127.949697,116.564103 126.813299,116.455128 125.823532,116.23718 C125.12703,116.09188 124.833766,115.655983 124.833766,115.038461 C124.833766,114.929487 124.833766,114.784188 124.870424,114.638889 C125.017056,113.948718 125.420294,113.58547 125.970165,113.58547 C126.080139,113.58547 126.190112,113.58547 126.300087,113.621795 C127.179879,113.839744 128.279619,113.912393 129.086096,113.912393 C130.442442,113.912393 130.772364,113.621795 130.772364,112.314102 L130.772364,103.41453 L117.318874,103.41453 C116.622371,103.41453 116.219133,102.905983 116.219133,102.143162 C116.219133,101.416667 116.622371,100.90812 117.318874,100.90812 L130.772364,100.90812 L130.772364,96.8397437 L117.282216,96.8397437 C116.585713,96.8397437 116.219133,96.2948718 116.219133,95.5683761 C116.219133,94.8418804 116.585713,94.3333332 117.282216,94.3333332 L125.420294,94.3333332 Z M115.302683,87.9764959 L115.302683,110.17094 C115.302683,112.241453 114.312917,113.076923 112.333384,113.076923 L108.337661,113.076923 C106.284812,113.076923 105.295046,112.241453 105.295046,110.17094 L105.295046,87.9764959 C105.295046,85.9059827 106.284812,85.0705128 108.337661,85.0705128 L112.333384,85.0705128 C114.312917,85.0705128 115.302683,85.9059827 115.302683,87.9764959 L115.302683,87.9764959 Z M107.971081,97.2029916 L112.626648,97.2029916 L112.626648,88.4850427 C112.626648,87.7222223 112.296726,87.5405981 111.600224,87.5405981 L109.034163,87.5405981 C108.301003,87.5405981 107.971081,87.7222223 107.971081,88.4850427 L107.971081,97.2029916 Z M107.971081,99.6367522 L107.971081,109.589744 C107.971081,110.388889 108.301003,110.534188 109.034163,110.534188 L111.600224,110.534188 C112.296726,110.534188 112.626648,110.388889 112.626648,109.589744 L112.626648,99.6367522 L107.971081,99.6367522 Z M121.791151,105.303419 C123.000866,106.393162 124.467186,108.100427 125.49361,109.517094 C125.786874,109.916667 125.896849,110.24359 125.896849,110.570513 C125.896849,110.970085 125.6769,111.297008 125.31032,111.623932 C125.017056,111.878205 124.687134,112.023504 124.320554,112.023504 C123.880658,112.023504 123.440762,111.805556 123.147498,111.369658 C122.157731,109.952991 120.728069,108.318376 119.628328,107.192308 C119.335064,106.901709 119.188432,106.574786 119.188432,106.284188 C119.188432,105.884615 119.408381,105.521367 119.774961,105.194444 C120.104883,104.940171 120.398147,104.831196 120.728069,104.831196 C121.094649,104.831196 121.424571,104.976496 121.791151,105.303419 L121.791151,105.303419 Z M151.113487,100.617521 C151.113487,99.1282049 151.223461,97.4572647 151.443409,95.8589744 C150.453643,97.4935899 149.20727,99.1645301 147.887582,100.544872 C147.594318,100.871795 147.227738,101.053419 146.8245,101.053419 C146.494578,101.053419 146.127997,100.90812 145.798076,100.617521 C145.468154,100.326923 145.284863,99.9636753 145.284863,99.5641027 C145.284863,99.2371796 145.431495,98.9102565 145.688101,98.6196581 C149.500535,94.8418804 152.763098,89.3931625 154.522682,84.162393 C154.705973,83.5811967 155.109211,83.2905984 155.695738,83.2905984 C155.879029,83.2905984 156.135635,83.3269231 156.392241,83.3995726 C157.052085,83.6175214 157.382007,84.017094 157.382007,84.5256408 C157.382007,84.7072649 157.345349,84.8525639 157.308691,85.034188 C156.465557,87.3952992 155.365816,89.7200856 154.00947,92.044872 L154.00947,115.728632 C154.00947,116.455128 153.422942,116.818376 152.54315,116.818376 C151.736673,116.818376 151.113487,116.455128 151.113487,115.728632 L151.113487,100.617521 Z M167.023064,93.0982907 L178.497022,91.9358973 L178.570338,91.9358973 C179.156866,91.9358973 179.523446,92.4444445 179.596762,93.1346155 L179.596762,93.2799144 C179.596762,93.9337606 179.340156,94.5149573 178.71697,94.5876068 L167.352986,95.7499998 C167.792883,98.8739318 168.452727,101.525641 169.332519,103.959402 C170.762181,107.846154 172.741714,110.861111 174.684589,112.459402 C175.087827,112.786325 175.417749,112.967949 175.711013,112.967949 C176.040935,112.967949 176.297541,112.713675 176.517489,112.205128 C176.884069,111.260684 177.177333,109.844017 177.287308,108.318376 C177.323966,107.700855 177.763862,107.301282 178.460364,107.301282 L178.753628,107.301282 C179.596762,107.373932 180,107.809829 180,108.5 L180,108.717949 C179.81671,111.00641 179.26684,113.331196 178.423706,114.675214 C177.837177,115.764958 176.884069,116.273504 175.857645,116.273504 C175.124485,116.273504 174.318009,115.982906 173.621506,115.474359 C170.762181,113.367521 168.416069,109.989316 166.7298,105.339744 C165.776692,102.905983 165.043532,99.7457264 164.493661,96.0405981 L157.052085,96.803419 L156.905453,96.803419 C156.245609,96.803419 155.879029,96.258547 155.879029,95.5683761 C155.842371,95.4594019 155.842371,95.3504272 155.842371,95.241453 C155.842371,94.6602563 156.135635,94.224359 156.722163,94.1517095 L164.163739,93.3888886 C163.870475,90.7735043 163.687185,87.903846 163.613869,84.8162392 C163.613869,83.9444445 164.237055,83.5085468 165.08019,83.5085468 C165.923324,83.5085468 166.619826,83.9444445 166.619826,84.8162392 C166.656484,87.903846 166.803116,90.6282049 167.023064,93.0982907 L167.023064,93.0982907 Z M171.861922,84.1987177 C173.291584,85.3247864 175.051169,86.9230767 176.334199,88.3760685 C176.554147,88.6303416 176.664121,88.9572647 176.664121,89.2478631 C176.664121,89.6111109 176.517489,89.9743588 176.224225,90.2649571 C175.894303,90.5555555 175.527723,90.7008549 175.161143,90.7008549 C174.83122,90.7008549 174.46464,90.5555555 174.208035,90.2286324 C173.034978,88.8846153 171.385367,87.2499998 169.992363,86.0876068 C169.662441,85.7970084 169.515809,85.5064101 169.515809,85.179487 C169.515809,84.8525639 169.662441,84.5256408 169.992363,84.2713676 C170.285627,83.9807693 170.615549,83.8717946 170.945471,83.8717946 C171.275394,83.8717946 171.568658,83.9807693 171.861922,84.1987177 L171.861922,84.1987177 Z M171.861922,84.1987177" id="鎌倉時代" fill="#FFFEF6"></path>
                </g>
            </g>
        </g>
    </g>
</svg>