<?xml version="1.0" encoding="UTF-8" standalone="no"?>
<svg width="800px" height="600px" viewBox="0 0 800 600" version="1.1" xmlns="http://www.w3.org/2000/svg" xmlns:xlink="http://www.w3.org/1999/xlink" xmlns:sketch="http://www.bohemiancoding.com/sketch/ns">
    <title>big-mic</title>
    <description>Created with Sketch (http://www.bohemiancoding.com/sketch)</description>
    <defs></defs>
    <g id="Page 1" fill="#D8D8D8" fill-rule="evenodd">
        <g id="big-mic">
            <path d="M0,0 L0,600 L800,600 L800,0 L0,0 Z M0,0" id="Rectangle 1" fill="#F9EA89"></path>
            <g id="Group" fill="#705B90">
                <path d="M398.504395,225 L402.495605,225 C413.542909,225 422.5,233.955135 422.5,245.001853 L422.5,270 L378.5,270 L378.5,245.001853 C378.5,233.958578 387.456273,225 398.504395,225 Z M422.5,280.533333 L422.5,294.998147 C422.5,306.041422 413.543727,315 402.495605,315 L398.504395,315 C387.457091,315 378.5,306.044865 378.5,294.998147 L378.5,280.533333 Z M422.5,280.533333" id="Rectangle 2" fill="#313541"></path>
                <path d="M379.50719,363 C377.29408,363 375.5,364.796521 375.5,366.995826 L375.5,371.004174 C375.5,373.211008 377.294268,375 379.50719,375 L421.49281,375 C423.70592,375 425.5,373.203479 425.5,371.004174 L425.5,366.995826 C425.5,364.788992 423.705732,363 421.49281,363 L379.50719,363 Z M379.50719,363" id="Rectangle 4" fill="#313541"></path>
                <path d="M397.506505,335 C395.293773,335 393.5,336.785246 393.5,338.990179 L393.5,367.009821 C393.5,369.213536 395.293946,371 397.506505,371 L402.493495,371 C404.706227,371 406.5,369.214754 406.5,367.009821 L406.5,338.990179 C406.5,336.786464 404.706054,335 402.493495,335 L397.506505,335 Z M397.506505,335" id="Rectangle 8" fill="#313541"></path>
                <path d="M433,294.995834 L433,286.005221 C433,283.793198 434.796521,282 436.995826,282 L441.004174,282 C443.211008,282 445,283.793445 445,286.005386 L445,294.99637 C445,319.847056 424.852814,340 400,340 C375.141722,340 355,319.851188 355,294.99637 L355,286.005386 C355,283.793272 356.796521,282 358.995826,282 L363.004174,282 C365.211008,282 367,283.793371 367,286.005221 L367,294.995834 C367,313.223532 381.770596,328 400,328 C418.225397,328 433,313.223499 433,294.995834 Z M433,294.995834" id="Rectangle 5" fill="#313541"></path>
            </g>
        </g>
    </g>
</svg>