<?xml version="1.0" encoding="UTF-8" standalone="no"?>
<svg width="200px" height="200px" viewBox="0 0 200 200" version="1.1" xmlns="http://www.w3.org/2000/svg" xmlns:xlink="http://www.w3.org/1999/xlink" xmlns:sketch="http://www.bohemiancoding.com/sketch/ns">
    <title>Artboard 2</title>
    <description>Created with Sketch (http://www.bohemiancoding.com/sketch)</description>
    <defs></defs>
    <g id="Page 1" fill="#D8D8D8" fill-rule="evenodd">
        <g id="Artboard 2">
            <path d="M-298,-199 L-298,401 L502,401 L502,-199 L-298,-199 L-298,-199 Z M-298,-199" id="Rectangle 99" fill="#E4A181"></path>
            <g id="handle of man">
                <g id="Group">
                    <path d="M59.8644321,118.264901 C51.0881184,118.264901 43.3173658,125.35126 42.508031,134.092076 L40,161.178808 L160,161.178808 L157.491969,134.092076 C156.682607,125.350968 148.910745,118.264901 140.135568,118.264901 L59.8644321,118.264901 L59.8644321,118.264901 Z M59.8644321,118.264901" id="Rectangle 104" fill="#262020"></path>
                    <path d="M86.2844061,100.359272 C86.2844061,100.359273 90.970507,110.334178 100,110.334179 C109.029493,110.334179 114.724105,100.359272 114.724105,100.359272 C126.305395,111.832327 144.900662,119.059603 144.900662,119.059603 L55.0993377,119.059603 C55.0993377,119.059603 74.5636064,111.970531 86.2844061,100.359272 L86.2844061,100.359272 Z M86.2844061,100.359272" id="Triangle 16" fill="#262020"></path>
                </g>
                <path d="M86.1003229,108.076735 C86.095875,126.279426 92.6784972,144.465232 94.4518803,149.280105 C94.4518803,149.280105 106.445525,146.380927 106.445877,146.380052 C109.139073,139.686155 114.701987,123.882574 114.701987,107.139073 C114.701987,100.555545 116.901386,91.4243068 100.397351,91.4243068 C83.8933155,91.4243068 86.0927152,100.555545 86.0927152,107.139073 C86.0927152,107.450045 86.095275,107.762635 86.1003229,108.076735 L86.1003229,108.076735 Z M86.1003229,108.076735" id="Oval 44" fill="#FFFEF6"></path>
                <path d="M100.397351,109.523179 C107.858682,109.523179 113.907285,104.897776 113.907285,99.192053 C113.907285,93.4863295 107.858682,88.8609272 100.397351,88.8609272 C92.9360204,88.8609272 86.8874172,93.4863295 86.8874172,99.192053 C86.8874172,104.897776 92.9360204,109.523179 100.397351,109.523179 L100.397351,109.523179 Z M100.397351,109.523179" id="Oval 45" fill="#D0AA85"></path>
                <path d="M82.1192053,86.4606752 C87.2188016,100.677463 94.0558469,105.549669 100.397351,105.549669 C108.718185,105.549669 114.425705,97.5995449 118.675497,86.4606752 C119.923623,83.1892901 120.264901,80.5987309 120.264901,76.1456954 C120.2649,59.9063282 111.369896,46.7417219 100.397351,46.7417219 C89.4248061,46.7417219 80.4443033,59.9068217 80.5298013,76.1456954 C80.5502069,80.021337 81.1125952,83.654422 82.1192053,86.4606752 L82.1192053,86.4606752 Z M82.1192053,86.4606752" id="Oval 43" fill="#E1C1A1"></path>
                <path d="M80.5298013,53.8940397 C80.5298013,45.1140736 87.6439775,38 96.4197587,38 L104.374943,38 C113.149598,38 120.264901,45.116004 120.264901,53.8940397 L120.264901,64.4114103 C126.596609,65.1397817 130.596026,66.2104225 130.596026,67.4039735 C130.596026,69.5984826 117.07562,71.3774834 100.397351,71.3774834 C83.7190819,71.3774834 70.1986755,69.5984826 70.1986755,67.4039735 C70.1986755,66.2104225 74.1980927,65.1397817 80.5298013,64.4114103 L80.5298013,53.8940397 Z M80.5298013,53.8940397" id="Rectangle 102" fill="#262020"></path>
                <path d="M100.397351,112.701987 C101.422137,112.701987 103.949293,116.571202 103.949293,120.046032 C103.949293,122.301218 103.26218,124.722523 102.254791,126.144416 C104.181352,129.07174 106.483241,135.474609 106.483241,142.902322 C106.483241,144.110877 106.471018,145.2923 106.449471,146.436035 C102.873978,154.502582 99.4905062,158.992213 99.4905062,158.992213 C99.4905062,158.992213 97.1588951,155.549867 94.4415738,149.276846 C94.3632615,147.187952 94.3114612,145.009735 94.3114612,142.902322 C94.3114612,135.433385 96.6389732,129.000698 98.5719531,126.095998 C97.6494797,124.668006 97.0704034,122.27582 97.0704034,120.046032 C97.0704034,116.571202 99.3725645,112.701987 100.397351,112.701987 L100.397351,112.701987 Z M100.397351,112.701987" id="Oval 46" fill="#9C2C22"></path>
            </g>
        </g>
    </g>
</svg>