<?xml version="1.0" encoding="UTF-8" standalone="no"?>
<svg width="800px" height="600px" viewBox="0 0 800 600" version="1.1" xmlns="http://www.w3.org/2000/svg" xmlns:xlink="http://www.w3.org/1999/xlink" xmlns:sketch="http://www.bohemiancoding.com/sketch/ns">
    <title>Username Quandary</title>
    <description>Created with Sketch (http://www.bohemiancoding.com/sketch)</description>
    <defs></defs>
    <g id="Large icons" fill="#D8D8D8" fill-rule="evenodd">
        <g id="Face copy 2">
            <path d="M0,0 L0,600 L800,600 L800,0 L0,0 Z M0,0" id="Rectangle 99" fill="#E4A181"></path>
            <g id="handle of man">
                <g id="Group">
                    <path d="M348.996077,323 C337.952549,323 328.174352,331.917002 327.155939,342.915862 L324,377 L475,377 L471.844061,342.915862 C470.825614,331.916635 461.046021,323 450.003923,323 L348.996077,323 Z M348.996077,323" id="Rectangle 104" fill="#262020"></path>
                    <path d="M382.241211,300.46875 C382.241211,300.468752 388.137888,313.020507 399.5,313.020508 C410.862112,313.020508 418.027832,300.46875 418.027832,300.46875 C432.600956,314.905678 456,324 456,324 L343,324 C343,324 367.492538,315.079585 382.241211,300.46875 Z M382.241211,300.46875" id="Triangle 16" fill="#262020"></path>
                </g>
                <path d="M382.009573,310.179891 C382,349.358398 398.868164,374.079102 398.868164,374.079102 C398.868164,374.079102 418,348.849609 418,309 C418,300.715728 420.767578,289.225586 400,289.225586 C379.232422,289.225586 382,300.715728 382,309 C382,309.391307 382.003221,309.784649 382.009573,310.179891 Z M382.009573,310.179891" id="Oval 44" fill="#FFFEF6"></path>
                <path d="M400,312 C409.388841,312 417,306.179702 417,299 C417,291.820298 409.388841,286 400,286 C390.611159,286 383,291.820298 383,299 C383,306.179702 390.611159,312 400,312 Z M400,312" id="Oval 45" fill="#D0AA85"></path>
                <path d="M377,282.979683 C383.416992,300.869141 392.020274,307 400,307 C410.470383,307 417.652345,296.996094 423.000001,282.979683 C424.570559,278.86319 425,275.603403 425,270 C424.999999,249.565463 413.807119,233 400,233 C386.192881,233 374.892415,249.566084 375,270 C375.025677,274.876849 375.733349,279.448481 377,282.979683 Z M377,282.979683" id="Oval 43" fill="#E1C1A1"></path>
                <path d="M375,242 C375,230.951876 383.952005,222 394.994863,222 L405.005137,222 C416.046578,222 425,230.954305 425,242 L425,255.234358 C432.9674,256.150892 438,257.498115 438,259 C438,261.761424 420.986822,264 400,264 C379.013178,264 362,261.761424 362,259 C362,257.498115 367.0326,256.150892 375,255.234358 Z M375,242" id="Rectangle 102" fill="#262020"></path>
                <path d="M396.17334,325.241257 C396.17334,320.868763 398.821289,316 400,316 C401.178711,316 404.085449,320.868763 404.085449,325.241257 C404.085449,328.079033 403.295131,331.125841 402.136431,332.915057 C404.352363,336.598606 407,344.65555 407,354.002088 C407,356.063049 406.97418,358.061306 406.930838,359.963797 C402.693955,369.159666 398.858887,374.248535 398.858887,374.248535 C398.858887,374.248535 396.317197,370.496033 393.20816,363.611642 C393.086283,360.513531 393,357.193298 393,354.002088 C393,344.603676 395.677108,336.509212 397.900424,332.854131 C396.839394,331.057241 396.17334,328.047074 396.17334,325.241257 Z M396.17334,325.241257" id="Oval 46" fill="#9C2C22"></path>
            </g>
        </g>
    </g>
</svg>