<?xml version="1.0" encoding="UTF-8" standalone="no"?>
<svg width="800px" height="600px" viewBox="0 0 800 600" version="1.1" xmlns="http://www.w3.org/2000/svg" xmlns:xlink="http://www.w3.org/1999/xlink" xmlns:sketch="http://www.bohemiancoding.com/sketch/ns">
    <title>Heart Flat</title>
    <description>Created with Sketch (http://www.bohemiancoding.com/sketch)</description>
    <defs></defs>
    <g id="Page 1" fill="#D8D8D8" fill-rule="evenodd">
        <g id="heart curved copy">
            <path d="M0,0 L0,600 L800,600 L800,0 L0,0 Z M0,0" id="Rectangle 1" fill="#EBEBEB"></path>
            <g id="Group">
                <path d="M265.026464,312.149285 C258.9262,301.049554 255.339324,288.398855 255.022879,274.947049 C255.007664,274.370735 255,273.795237 255,273.22067 C255,227.712648 292.064314,191 337.785467,191 C362.579501,191 384.827764,201.79632 400,218.901688 C415.172236,201.79632 437.420499,191 462.214533,191 C507.935686,191 545,227.712648 545,273 C545,273.795237 544.992336,274.370735 544.977121,274.947049 C544.660676,288.398857 541.073799,301.049558 534.973533,312.149291 C504.142015,376.336168 412.086195,438.999995 400,439 C387.913804,439.000005 295.857979,376.336167 265.026464,312.149285 Z M265.026464,312.149285" id="Path" fill="#C65766"></path>
            </g>
        </g>
    </g>
</svg>