<?xml version="1.0" encoding="UTF-8" standalone="no"?>
<svg width="800px" height="800px" viewBox="0 0 800 800" version="1.1" xmlns="http://www.w3.org/2000/svg" xmlns:xlink="http://www.w3.org/1999/xlink" xmlns:sketch="http://www.bohemiancoding.com/sketch/ns">
    <title>MinimusSVG</title>
    <description>Created with Sketch (http://www.bohemiancoding.com/sketch)</description>
    <defs>
        <linearGradient x1="50%" y1="0%" x2="50%" y2="100%" id="linearGradient-1">
            <stop stop-color="#39413D" offset="0%"></stop>
            <stop stop-color="#000000" offset="100%"></stop>
        </linearGradient>
        <linearGradient x1="50%" y1="0%" x2="50%" y2="100%" id="linearGradient-2">
            <stop stop-color="#1B2220" offset="0%"></stop>
            <stop stop-color="#141615" offset="100%"></stop>
        </linearGradient>
        <linearGradient x1="50%" y1="14.4228179%" x2="50%" y2="100%" id="linearGradient-3">
            <stop stop-color="#101111" offset="0%"></stop>
            <stop stop-color="#191A19" offset="53.4568921%"></stop>
            <stop stop-color="#1B1F1C" offset="100%"></stop>
        </linearGradient>
        <linearGradient x1="50%" y1="0%" x2="50%" y2="100%" id="linearGradient-4">
            <stop stop-color="#29305F" offset="0%"></stop>
            <stop stop-color="#20274C" offset="100%"></stop>
        </linearGradient>
        <linearGradient x1="47.5574583%" y1="30.1638158%" x2="47.5574583%" y2="100%" id="linearGradient-5">
            <stop stop-color="#FFFFFF" stop-opacity="0.2" offset="0%"></stop>
            <stop stop-color="#FFFFFF" stop-opacity="0.03" offset="100%"></stop>
        </linearGradient>
    </defs>
    <g id="Page 1" fill="#D8D8D8" fill-rule="evenodd">
        <g id="Artboard 1">
            <path d="M0,0 L0,800 L800,800 L800,0 L0,0 Z M0,0" id="bg" stroke="rgb(132,132,132)" stroke-width="1" fill="#78CBA4"></path>
            <g id="Ta Da!">
                <g id="Minimus Sketch">
                    <g id="base">
                        <path d="M297.007428,79.5 C274.911936,79.5 257,97.410681 257,119.509948 L257,703.490052 C257,725.586936 274.909836,743.5 297.007428,743.5 L530.992572,743.5 C553.088064,743.5 571,725.589319 571,703.490052 L571,119.509948 C571,97.4130638 553.090164,79.5 530.992572,79.5 L297.007428,79.5 Z M297.007428,79.5" id="antenna edging" fill="url(#linearGradient-1)"></path>
                        <path d="M301.004156,83.5 C278.910471,83.5 261,101.407997 261,123.50221 L261,699.49779 C261,721.590401 278.914843,739.5 301.004156,739.5 L526.995844,739.5 C549.089529,739.5 567,721.592003 567,699.49779 L567,123.50221 C567,101.409599 549.085157,83.5 526.995844,83.5 L301.004156,83.5 Z M301.004156,83.5" id="glass" fill="url(#linearGradient-2)"></path>
                        <path d="M279,173.5 L279,651.5 L549,651.5 L549,173.5 L279,173.5 Z M279,173.5" id="view port" stroke="rgb(0,0,0)" stroke-width="2" fill="#C6766F"></path>
                    </g>
                    <g id="edge buttons">
                        <path d="M254,234.5 L254,257.5 L257,257.5 L257,234.5 L254,234.5 Z M254,234.5" id="Rectangle 4 copy" fill="#000000"></path>
                        <path d="M254,290.5 L254,313.5 L257,313.5 L257,290.5 L254,290.5 Z M254,290.5" id="Rectangle 4 copy 2" fill="#000000"></path>
                        <path d="M254,171.5 L254,201.5 L257,201.5 L257,171.5 L254,171.5 Z M254,171.5" id="Rectangle 4" fill="#000000"></path>
                        <path d="M467,76.5 L467,79.5 L517,79.5 L517,76.5 L467,76.5 Z M467,76.5" id="Rectangle 8" fill="#000000"></path>
                    </g>
                    <path d="M414,728.5 C430.016259,728.5 443,715.516259 443,699.5 C443,683.483741 430.016259,670.5 414,670.5 C397.983741,670.5 385,683.483741 385,699.5 C385,715.516259 397.983741,728.5 414,728.5 Z M414,728.5" id="home" fill="url(#linearGradient-3)"></path>
                    <g id="top elements">
                        <path d="M391.492611,136.5 C389.563695,136.5 388,138.070937 388,140 L388,140 C388,141.932997 389.570424,143.5 391.492611,143.5 L436.507389,143.5 C438.436305,143.5 440,141.929063 440,140 L440,140 C440,138.067003 438.429576,136.5 436.507389,136.5 L391.492611,136.5 Z M391.492611,136.5" id="ear piece" opacity="0.443963068" fill="#060707"></path>
                        <g id="Camera">
                            <path d="M414,118.5 C417.313709,118.5 420,115.813709 420,112.5 C420,109.186291 417.313709,106.5 414,106.5 C410.686291,106.5 408,109.186291 408,112.5 C408,115.813709 410.686291,118.5 414,118.5 Z M414,118.5" id="Oval 2" fill="#1A1E1D"></path>
                            <path d="M414.5,115.5 C415.880712,115.5 417,114.380712 417,113 C417,111.619288 415.880712,110.5 414.5,110.5 C413.119288,110.5 412,111.619288 412,113 C412,114.380712 413.119288,115.5 414.5,115.5 Z M414.5,115.5" id="Oval 3" opacity="0.545170455" fill="url(#linearGradient-4)"></path>
                        </g>
                    </g>
                </g>
                <path d="M470,18.5 L470,722.5 L829,722.5 L829,18.5 L470,18.5 Z M470,18.5" id="overlay" opacity="0.2" fill="url(#linearGradient-5)" transform="translate(649.500000, 370.500000) rotate(-12.000000) translate(-649.500000, -370.500000)"></path>
            </g>
            <text id="Made with Sketch.app" opacity="0.9" fill="#FFFFFF" font-family="Brandon Grotesque" font-size="40" font-weight="normal" sketch:alignment="middle">
                <tspan x="328.66" y="423.200116" fill="rgb(0,0,0)">Sketch.app</tspan>
            </text>
        </g>
    </g>
</svg>