<?xml version="1.0" encoding="UTF-8" standalone="no"?>
<svg width="300px" height="341px" viewBox="0 0 300 341" version="1.1" xmlns="http://www.w3.org/2000/svg" xmlns:xlink="http://www.w3.org/1999/xlink" xmlns:sketch="http://www.bohemiancoding.com/sketch/ns">
    <title>ecrit.es-dribbble-alt4</title>
    <description>Created with Sketch (http://www.bohemiancoding.com/sketch)</description>
    <defs>
        <path d="M33,3 C16.4314575,3 3,16.4323053 3,33.0031586 L3,79.9970221 C3,82.2078058 4.79568082,84 7.0065556,84 L63,84 L63,33.0031586 C63,16.4328717 49.5721855,3 33,3 L33,3 Z M33,3" id="path-1"></path>
    </defs>
    <g id="Page 1" fill="#D8D8D8" fill-rule="evenodd">
        <g id="Artboard 1">
            <g id="Ecrit.es" fill="#AB6660">
                <path d="M34.0006337,3 L63.9924203,3 L98,3 L267.00694,3 C283.568031,3 297,16.4338624 297,33.0053715 L297,334.004417 C297,336.217734 295.209134,338 292.999989,338 L67.0000113,338 C64.7821824,338 63,336.211117 63,334.004417 L63,83 L8.0089921,83 C5.79383779,83 4,81.2115642 4,79.0054168 L4,33.0024202 C4,16.4352962 17.4317412,3 34.0006337,3 Z M34.0006337,3" id="Rectangle 1" stroke="rgb(229,138,127)" stroke-width="6" fill="#F7968D"></path>
                <use id="Rectangle 3" stroke="rgb(229,138,127)" stroke-width="6" fill="#BC635B" xlink:href="#path-1"></use>
                <use id="Rectangle 3-1" stroke="none" fill="none" xlink:href="#path-1"></use>
                <g id="Body" fill="#C6766F">
                    <path d="M107.497293,140.25 C106.946503,140.25 106.5,140.688918 106.5,141.253071 L106.5,162.246929 C106.5,162.80091 106.948161,163.25 107.497293,163.25 L252.502707,163.25 C253.053497,163.25 253.5,162.811082 253.5,162.246929 L253.5,141.253071 C253.5,140.69909 253.051839,140.25 252.502707,140.25 L107.497293,140.25 Z M107.497293,140.25" id="Rectangle 5" fill="#BC635B"></path>
                    <path d="M107.497293,190.25 C106.946503,190.25 106.5,190.688918 106.5,191.253071 L106.5,212.246929 C106.5,212.80091 106.948161,213.25 107.497293,213.25 L252.502707,213.25 C253.053497,213.25 253.5,212.811082 253.5,212.246929 L253.5,191.253071 C253.5,190.69909 253.051839,190.25 252.502707,190.25 L107.497293,190.25 Z M107.497293,190.25" id="Rectangle 5 copy 2" fill="#BC635B"></path>
                    <path d="M107.497293,240.25 C106.946503,240.25 106.5,240.688918 106.5,241.253071 L106.5,262.246929 C106.5,262.80091 106.948161,263.25 107.497293,263.25 L252.502707,263.25 C253.053497,263.25 253.5,262.811082 253.5,262.246929 L253.5,241.253071 C253.5,240.69909 253.051839,240.25 252.502707,240.25 L107.497293,240.25 Z M107.497293,240.25" id="Rectangle 5 copy 2" fill="#BC635B"></path>
                </g>
                <path d="M106.992062,77.25 C106.444161,77.25 106,77.6973652 106,78.2481537 L106,106.251846 C106,106.803111 106.440014,107.25 106.992062,107.25 L199.007938,107.25 C199.555839,107.25 200,106.802635 200,106.251846 L200,78.2481537 C200,77.6968886 199.559986,77.25 199.007938,77.25 L106.992062,77.25 Z M106.992062,77.25" id="Title" fill="#BC635B"></path>
            </g>
        </g>
    </g>
</svg>