<?xml version="1.0" encoding="UTF-8" standalone="no"?>
<svg width="800px" height="600px" viewBox="0 0 800 600" version="1.1" xmlns="http://www.w3.org/2000/svg" xmlns:xlink="http://www.w3.org/1999/xlink" xmlns:sketch="http://www.bohemiancoding.com/sketch/ns">
    <title>Outline</title>
    <description>Created with Sketch (http://www.bohemiancoding.com/sketch)</description>
    <defs></defs>
    <g id="Page 1" fill="#D8D8D8" fill-rule="evenodd">
        <g id="Artboard 1">
            <path d="M0,0 L0,600 L800,600 L800,0 L0,0 Z M0,0" id="Rectangle 67" fill="#394150"></path>
            <path d="M341.324095,314.583333 L341.324095,298.416667 C341.324095,297.5 342.069449,296.833333 342.89762,296.833333 L349.688621,296.833333 C350.516792,296.833333 351.262145,297.5 351.262145,298.416667 L351.262145,314.833333 C351.262145,319.25 353.498207,322 357.307793,322 C360.78611,322 363.436257,318.75 363.933159,315.75 L363.933159,298.416667 C363.933159,297.166667 364.430062,296.833333 365.755135,296.833333 L372.049234,296.833333 C372.877405,296.833333 373.622758,297.5 373.622758,298.416667 L373.622758,328.583333 C373.622758,329.416667 372.877405,330.166667 372.049234,330.166667 L368.985002,330.166667 C368.156831,330.166667 367.659928,329.583333 367.411477,328.916667 L366.417672,326.166667 C364.926964,327.5 361.862732,331 355.320183,331 C345.050864,331 341.324095,323.083333 341.324095,314.583333 Z M283.766221,301.083333 C283.766221,311.583333 292.296381,320.166667 302.731334,320.166667 C313.166286,320.166667 321.779263,311.583333 321.779263,301.083333 C321.779263,290.583333 313.166286,281.833333 302.731334,281.833333 C292.296381,281.833333 283.766221,290.583333 283.766221,301.083333 Z M385.299967,305.583333 L382.484187,305.583333 C381.656016,305.583333 380.993479,304.833333 380.993479,304 L380.993479,298.416667 C380.993479,297.5 381.656016,296.833333 382.484187,296.833333 L385.299967,296.833333 L385.299967,287.583333 C385.299967,286.75 386.045321,286 386.873492,286 L393.664493,285.916667 C394.492664,285.916667 395.155201,286.666667 395.155201,287.5 L395.155201,296.833333 L402.443104,296.833333 C403.354092,296.833333 404.016629,297.5 404.016629,298.416667 L404.016629,304 C404.016629,304.833333 403.354092,305.583333 402.443104,305.583333 L395.155201,305.583333 L395.155201,318.916667 C395.155201,321.25 396.397457,321.583333 397.72253,321.583333 C399.130421,321.583333 400.869579,321 401.780567,320.666667 C402.691555,320.333333 403.354092,320.75 403.602543,321.583333 L405.258885,326.833333 C405.590153,327.666667 405.176068,328.5 404.347897,328.833333 C403.933812,329.083333 398.550701,331 394.492664,331 C388.115748,331 385.299967,327 385.299967,320.25 Z M273,301.083333 C273,284.416667 286.167917,271 302.731334,271 C319.294751,271 332.545484,284.416667 332.545484,301.083333 C332.545484,317.75 319.294751,331 302.731334,331 C286.167917,331 273,317.75 273,301.083333 Z M412.132703,273.416667 C412.132703,272.583333 412.878057,271.833333 413.706228,271.833333 L420.662863,271.833333 C421.491034,271.833333 422.236387,272.583333 422.236387,273.416667 L422.236387,328.583333 C422.236387,329.416667 421.491034,330.166667 420.662863,330.166667 L413.706228,330.166667 C412.878057,330.166667 412.132703,329.416667 412.132703,328.583333 Z M437.060646,285 C433.913596,285 431.429084,282.416667 431.429084,279.25 C431.429084,276.083333 433.913596,273.5 437.060646,273.5 C440.290512,273.5 442.857842,276.083333 442.857842,279.25 C442.857842,282.416667 440.290512,285 437.060646,285 Z M432.174438,298.416667 C432.174438,297.5 432.919791,296.833333 433.747962,296.833333 L440.62178,296.833333 C441.449951,296.833333 442.195305,297.5 442.195305,298.416667 L442.195305,328.583333 C442.195305,329.416667 441.449951,330.166667 440.62178,330.166667 L433.747962,330.166667 C432.919791,330.166667 432.174438,329.416667 432.174438,328.583333 Z M452.133355,328.583333 L452.133355,298.416667 C452.133355,297.5 452.878709,296.833333 453.70688,296.833333 L456.853929,296.833333 C457.599283,296.833333 458.013368,297.25 458.261819,297.833333 L459.421259,300.916667 C460.663515,299.583333 464.721552,296 471.098468,296 C481.616237,296 485.839909,303.916667 485.839909,312.583333 L485.839909,328.583333 C485.839909,329.416667 485.094555,330.166667 484.266384,330.166667 L477.475383,330.166667 C476.564395,330.166667 475.901858,329.416667 475.901858,328.583333 L475.901858,312.083333 C475.901858,307.75 473.665797,305 469.690577,305 C465.384089,305 462.733942,308 461.905771,310.25 L461.905771,328.583333 C461.905771,329.75 461.408869,330.166667 459.835344,330.166667 L453.70688,330.166667 C452.878709,330.166667 452.133355,329.416667 452.133355,328.583333 Z M492.63091,313.5 C492.63091,304.083333 499.670362,296 509.525595,296 C518.055755,296 525.01239,302.5 525.01239,311.5 C525.01239,312.083333 524.929573,313.166667 524.846756,313.75 C524.763939,314.583333 524.018585,315.166667 523.273231,315.166667 L502.072057,315.166667 C502.320509,318.583333 505.219107,322.416667 510.022498,322.416667 C512.589827,322.416667 514.991523,321.416667 516.48223,320.333333 C517.310401,319.833333 518.055755,319.666667 518.635474,320.333333 L522.030975,324.25 C522.610694,324.833333 522.776329,325.75 521.948158,326.416667 C519.215194,329 514.991523,331 509.608412,331 C499.670362,331 492.63091,323.083333 492.63091,313.5 Z M502.817411,309.333333 L515.322791,309.333333 C515.07434,306.25 512.424193,303.666667 509.277144,303.666667 C505.96446,303.666667 503.231497,306.166667 502.817411,309.333333 Z M502.817411,309.333333" id="Outline" fill="#F2F2F2"></path>
        </g>
    </g>
</svg>