<?xml version="1.0" encoding="UTF-8" standalone="no"?>
<svg width="800px" height="600px" viewBox="0 0 800 600" version="1.1" xmlns="http://www.w3.org/2000/svg" xmlns:xlink="http://www.w3.org/1999/xlink" xmlns:sketch="http://www.bohemiancoding.com/sketch/ns">
    <title>heart</title>
    <description>Created with Sketch (http://www.bohemiancoding.com/sketch)</description>
    <defs></defs>
    <g id="Page 1" stroke="none" stroke-width="1" fill="none" fill-rule="evenodd">
        <g id="heart">
            <path d="M0,600 L800,600 L800,0 L0,0 L0,600 Z M0,600" id="Rectangle 1" fill="#C65766"></path>
            <path d="M306.914803,298.033989 C302.707724,290.379003 300.234016,281.654382 300.015779,272.377274 C300.005286,271.979817 300,271.582921 300,271.186668 C300,239.801826 325.561596,214.482758 357.093426,214.482758 C374.192759,214.482758 389.536389,221.928496 400,233.725302 C410.463611,221.928496 425.807241,214.482758 442.906574,214.482758 C474.438404,214.482758 500,239.801826 500,271.034482 C500,271.582921 499.994714,271.979817 499.984221,272.377274 C499.765984,281.654384 497.292275,290.379006 493.085195,298.033994 C471.822079,342.300805 408.335307,385.517238 400,385.517242 C391.664692,385.517245 328.177917,342.300804 306.914803,298.033989 L306.914803,298.033989 Z M306.914803,298.033989" id="Path" fill="#F2A7A7"></path>
        </g>
    </g>
</svg>