<?xml version="1.0" encoding="UTF-8" standalone="no"?>
<svg width="144px" height="144px" viewBox="0 0 144 144" version="1.1" xmlns="http://www.w3.org/2000/svg" xmlns:xlink="http://www.w3.org/1999/xlink" xmlns:sketch="http://www.bohemiancoding.com/sketch/ns">
    <title>Mini Purp</title>
    <description>Created with Sketch (http://www.bohemiancoding.com/sketch)</description>
    <defs></defs>
    <g id="Page 1" stroke="none" stroke-width="1" fill="none" fill-rule="evenodd">
        <g id="Mini Purp">
            <path d="M0,0 L0,144 L144,144 L144,0 L0,0 Z M0,0" id="Rectangle 2" fill="#9DE2CE"></path>
            <g id="icon copy" transform="translate(47.000000, 37.000000)" fill="#705B90">
                <g id="Small_Icons">
                    <g id="Artboard_2">
                        <path d="M35.8994318,4.89626008 L31.7934783,11.9671753 L41.2743123,17.4089247 L45.3804348,10.3375896 L35.8994318,4.89626008 L35.8994318,4.89626008 Z M28.8720359,16.5928814 L8.42391304,52.1869477 L17.8669262,57.6670631 L38.3152174,22.0730814 L28.8720359,16.5928814 L28.8720359,16.5928814 Z M40.0479301,0.978734849 L46.3528662,4.63275026 C49.8605455,6.66252434 51.0250593,11.0959494 49.0226307,14.5755621 L45.8275811,20.1199813 L43.1011813,24.8565429 L19.9260263,65.1264333 L5.68273778,74.5564201 C2.23573305,76.8359801 -0.228192433,75.3184401 0.0167779239,71.2731582 L1.03915678,54.186504 L24.2145643,13.9167824 L26.9409641,9.18022082 L30.1289448,3.63529506 C32.1381898,0.156104432 36.5687788,-1.03322753 40.0479301,0.978734849 L40.0479301,0.978734849 Z M5.16304348,69.09167 L15.2173913,62.3357736 L5.8856779,56.8510198 L5.16304348,69.09167 L5.16304348,69.09167 Z M5.16304348,69.09167" id="pencil_copy_2"></path>
                    </g>
                </g>
            </g>
        </g>
    </g>
</svg>