<?xml version="1.0" encoding="UTF-8" standalone="no"?>
<svg width="800px" height="600px" viewBox="0 0 800 600" version="1.1" xmlns="http://www.w3.org/2000/svg" xmlns:xlink="http://www.w3.org/1999/xlink" xmlns:sketch="http://www.bohemiancoding.com/sketch/ns">
    <title>Revision</title>
    <description>Created with Sketch (http://www.bohemiancoding.com/sketch)</description>
    <defs>
        <linearGradient x1="50%" y1="88.7514962%" x2="50%" y2="99.1755157%" id="linearGradient-1">
            <stop stop-color="#BDBBBB" offset="0%"></stop>
            <stop stop-color="#D6D6D6" offset="30.1105806%"></stop>
            <stop stop-color="#E8E7E7" offset="48.21397%"></stop>
            <stop stop-color="#D5D3D3" offset="64.5609487%"></stop>
            <stop stop-color="#C9C7C7" offset="100%"></stop>
        </linearGradient>
        <linearGradient x1="50%" y1="0%" x2="50%" y2="100%" id="linearGradient-2">
            <stop stop-color="#191919" offset="0%"></stop>
            <stop stop-color="#070707" offset="100%"></stop>
        </linearGradient>
        <linearGradient x1="50%" y1="0%" x2="50%" y2="100%" id="linearGradient-3">
            <stop stop-color="#D8D8D8" offset="0%"></stop>
            <stop stop-color="#D6D6D6" offset="100%"></stop>
        </linearGradient>
        <linearGradient x1="0%" y1="0%" x2="0%" y2="0%" id="linearGradient-4"></linearGradient>
        <linearGradient x1="68.0830144%" y1="28.6496167%" x2="95.9234891%" y2="37.0807354%" id="linearGradient-5">
            <stop stop-color="#FFFFFF" stop-opacity="0.05" offset="0%"></stop>
            <stop stop-color="#FFFFFF" stop-opacity="0" offset="100%"></stop>
        </linearGradient>
        <path d="M429.935825,51 L726.004855,51 C732.624237,51 738,56.37667 738,63.0091285 L738,484.7387 C738,491.372129 732.629591,496.747828 726.004855,496.747828 L508.533194,496.747828 Z M429.935825,51" id="path-6"></path>
        <linearGradient x1="50%" y1="0%" x2="50%" y2="100%" id="linearGradient-7">
            <stop stop-color="#F1F3EF" offset="0%"></stop>
            <stop stop-color="#E9E9E4" offset="100%"></stop>
        </linearGradient>
        <linearGradient x1="50%" y1="0%" x2="50%" y2="100%" id="linearGradient-8">
            <stop stop-color="#DEDED3" offset="0%"></stop>
            <stop stop-color="#EEEEE8" offset="100%"></stop>
        </linearGradient>
        <linearGradient x1="53.2534523%" y1="43.6996491%" x2="72.25737%" y2="55.2882012%" id="linearGradient-9">
            <stop stop-color="#FFFFFF" stop-opacity="0.05" offset="0%"></stop>
            <stop stop-color="#FFFFFF" stop-opacity="0" offset="100%"></stop>
        </linearGradient>
        <linearGradient x1="50%" y1="0%" x2="50%" y2="100%" id="linearGradient-10">
            <stop stop-color="#39413D" offset="0%"></stop>
            <stop stop-color="#000000" offset="100%"></stop>
        </linearGradient>
        <linearGradient x1="50%" y1="0%" x2="50%" y2="100%" id="linearGradient-11">
            <stop stop-color="#1B2220" offset="0%"></stop>
            <stop stop-color="#141615" offset="100%"></stop>
        </linearGradient>
        <linearGradient x1="50%" y1="14.4228182%" x2="50%" y2="100%" id="linearGradient-12">
            <stop stop-color="#101111" offset="0%"></stop>
            <stop stop-color="#191A19" offset="53.4568939%"></stop>
            <stop stop-color="#1B1F1C" offset="100%"></stop>
        </linearGradient>
        <linearGradient x1="50%" y1="0%" x2="50%" y2="100%" id="linearGradient-13">
            <stop stop-color="#29305F" offset="0%"></stop>
            <stop stop-color="#20274C" offset="100%"></stop>
        </linearGradient>
    </defs>
    <g id="Page 1" fill="#D8D8D8" fill-rule="evenodd">
        <g id="Dribbble 2x Sized">
            <path d="M0,0 L0,600 L800,600 L800,0 L0,0 Z M0,0" id="bg" fill="#00936E"></path>
            <g id="iMac copy">
                <g id="base">
                    <path d="M451.979731,492.958848 L459.992117,544.076827 C460.504867,547.348105 458.231261,550 454.916074,550 L310.083947,550 C306.767776,550 304.496701,547.338237 305.007905,544.076827 L313.02029,492.958848 Z M451.979731,492.958848" fill="url(#linearGradient-1)"></path>
                    <path d="M459.922887,546 C459.494501,548.331098 457.528054,550 454.893772,550 L310.139831,550 C307.510932,550 305.536845,548.327684 305.088862,546 Z M459.922887,546" id="Rectangle 14" fill="#F0EFEF"></path>
                    <path d="M314.857561,485 L312.773193,497 L452.186768,497 L450.223006,485 L314.857561,485 Z M314.857561,485" id="shadow" opacity="0.05" fill="#000000"></path>
                </g>
                <g id="upper">
                    <path d="M77.2433513,49.6872428 C69.5089582,49.6872428 63.2389937,55.9472283 63.2389937,63.6832344 L63.2389937,434.54321 L708.626834,434.54321 L708.626834,63.6832344 C708.626834,55.9534617 702.356022,49.6872428 694.622477,49.6872428 L77.2433513,49.6872428 Z M77.2433513,49.6872428" id="bezel" fill="url(#linearGradient-2)"></path>
                    <path d="M88.6425577,74.4279835 L88.6425577,409.802469 L683.22327,409.802469 L683.22327,74.4279835 L88.6425577,74.4279835 Z M88.6425577,74.4279835" id="panel" fill="#2A2A2A"></path>
                    <path d="M63.2389937,434.54321 L63.2389937,480.961282 C63.2389937,487.587355 68.6125534,492.958848 75.2367756,492.958848 L696.629053,492.958848 C703.255244,492.958848 708.626834,487.593997 708.626834,480.961282 L708.626834,434.54321 L63.2389937,434.54321 Z M63.2389937,434.54321" id="frame bottom" fill="url(#linearGradient-3)"></path>
                </g>
                <path d="M380.761779,455.637572 C381.602669,455.637572 382.617189,455.812167 383.805579,456.161598 C385.00497,456.511268 385.800897,456.685863 386.19336,456.685863 C386.69775,456.685863 387.521898,456.488662 388.665326,456.09402 C389.808754,455.699618 390.801032,455.502177 391.641682,455.502177 C393.020683,455.502177 394.248296,455.874213 395.324519,456.618286 C395.929835,457.046597 396.529651,457.627137 397.123726,458.359906 C396.226873,459.126585 395.571094,459.808611 395.156389,460.405986 C394.405185,461.488186 394.029703,462.683175 394.029703,463.990713 C394.029703,465.422344 394.427666,466.713047 395.223593,467.863065 C396.019521,469.012843 396.927614,469.739841 397.948113,470.044299 C397.52169,471.430958 396.815448,472.880625 395.828909,474.390896 C394.337981,476.656301 392.858054,477.789004 391.389607,477.789004 C390.806533,477.789004 389.999365,477.603827 388.968104,477.231069 C387.947844,476.858312 387.084712,476.673135 386.378471,476.673135 C385.67199,476.673135 384.848081,476.865526 383.906505,477.247904 C382.97593,477.642305 382.219225,477.839506 381.636151,477.839506 C379.876167,477.839506 378.149665,476.34126 376.456885,473.342364 C374.764105,470.376896 373.917715,467.468423 373.917715,464.616465 C373.917712,461.96724 374.562325,459.808611 375.851545,458.1401 C377.151886,456.471588 378.788679,455.637572 380.761755,455.637572 M391.355861,448.975309 C391.400584,449.121877 391.428805,449.251534 391.440046,449.364227 C391.451047,449.476993 391.456787,449.58971 391.456787,449.702427 C391.456787,450.423917 391.288657,451.212937 390.952397,452.069799 C390.615898,452.926421 390.083526,453.721237 389.354803,454.454006 C388.727006,455.073987 388.104709,455.490994 387.488153,455.70527 C387.095929,455.829362 386.501614,455.925077 385.705687,455.992654 C385.728168,454.279171 386.170855,452.796797 387.034226,451.545534 C387.908597,450.29427 389.349063,449.437528 391.355861,448.975429" id="branding" fill="#000000"></path>
                <g id="camera">
                    <path d="M382.5,66.8683128 C384.016757,66.8683128 385.246331,65.6375565 385.246331,64.1193416 C385.246331,62.6011266 384.016757,61.3703704 382.5,61.3703704 C380.983243,61.3703704 379.753669,62.6011266 379.753669,64.1193416 C379.753669,65.6375565 380.983243,66.8683128 382.5,66.8683128 Z M382.5,66.8683128" id="lens" fill="#141414"></path>
                    <path d="M382.5,65.4938272 C383.258378,65.4938272 383.873166,64.878449 383.873166,64.1193416 C383.873166,63.3602341 383.258378,62.744856 382.5,62.744856 C381.741622,62.744856 381.126834,63.3602341 381.126834,64.1193416 C381.126834,64.878449 381.741622,65.4938272 382.5,65.4938272 Z M382.5,65.4938272" id="aperture" fill-opacity="0.695714614" fill="#190E37"></path>
                </g>
            </g>
            <use id="glare" opacity="0.5" fill="none" xlink:href="#path-6"></use>
            <use id="glare-1" stroke="none" opacity="0.5" fill="url(#linearGradient-5)" xlink:href="#path-6"></use>
            <g id="iPad Minimus copy" fill="#000000">
                <g id="Page 1" fill="#D8D8D8">
                    <g id="Artboard 2">
                        <g id="Dribbble Shot">
                            <g id="base">
                                <path d="M504.481438,248.390076 C498.406874,248.390076 493.482468,253.31644 493.482468,259.391385 L493.482468,538.35923 C493.482468,544.435085 498.414296,549.360538 504.481438,549.360538 L715.391395,549.360538 C721.465958,549.360538 726.390364,544.434175 726.390364,538.35923 L726.390364,259.391385 C726.390364,253.31553 721.458537,248.390076 715.391395,248.390076 L504.481438,248.390076 L504.481438,248.390076 Z M504.481438,248.390076" id="Base" fill="url(#linearGradient-7)"></path>
                                <path d="M516.773257,274.803748 L516.773257,522.946867 L703.099575,522.946867 L703.099575,274.803748 L516.773257,274.803748 L516.773257,274.803748 Z M516.773257,274.803748" id="screen" stroke="rgb(0,0,0)" stroke-width="2" fill="#2A2A2A"></path>
                            </g>
                            <g id="home button">
                                <path d="M609.936416,543.544684 C613.889155,543.544684 617.093482,540.344122 617.093482,536.39603 C617.093482,532.447937 613.889155,529.247375 609.936416,529.247375 C605.983678,529.247375 602.77935,532.447937 602.77935,536.39603 C602.77935,540.344122 605.983678,543.544684 609.936416,543.544684 L609.936416,543.544684 Z M609.936416,543.544684" id="home" fill="url(#linearGradient-8)"></path>
                                <path d="M608.767729,533.851594 C608.00627,533.851594 607.388986,534.46543 607.388986,535.228716 L607.388986,537.563344 C607.388986,538.323907 608.003545,538.940466 608.767729,538.940466 L611.105103,538.940466 C611.866562,538.940466 612.483846,538.326629 612.483846,537.563344 L612.483846,535.228716 C612.483846,534.468152 611.869287,533.851594 611.105103,533.851594 L608.767729,533.851594 L608.767729,533.851594 Z M608.767729,533.851594" id="home icon" stroke="rgb(164,166,168)" stroke-width="1" opacity="0.5"></path>
                            </g>
                            <g id="camera">
                                <path d="M609.936416,263.899021 C610.874354,263.899021 611.634703,263.139566 611.634703,262.20273 C611.634703,261.265895 610.874354,260.50644 609.936416,260.50644 C608.998478,260.50644 608.238129,261.265895 608.238129,262.20273 C608.238129,263.139566 608.998478,263.899021 609.936416,263.899021 L609.936416,263.899021 Z M609.936416,263.899021" id="frame" fill="#D4D4D4"></path>
                                <path d="M609.936416,262.929712 C610.338389,262.929712 610.664253,262.604231 610.664253,262.20273 C610.664253,261.801229 610.338389,261.475749 609.936416,261.475749 C609.534443,261.475749 609.208579,261.801229 609.208579,262.20273 C609.208579,262.604231 609.534443,262.929712 609.936416,262.929712 L609.936416,262.929712 Z M609.936416,262.929712" id="aperture" opacity="0.8" fill="#444EAA"></path>
                            </g>
                            <path d="M636.909186,248.390076 L668.848434,248.390076 C703.045777,248.390076 730.757388,276.107897 730.757388,310.299562 L730.757388,487.69338 C730.757388,521.889367 703.039805,549.602866 668.848434,549.602866 L666.735534,549.602866 L614.374241,252.618798 C621.357524,249.888681 628.95832,248.390076 636.909186,248.390076 L636.909186,248.390076 Z M636.909186,248.390076" id="Rectangle 5" opacity="0.6" fill="url(#linearGradient-9)"></path>
                        </g>
                    </g>
                </g>
            </g>
            <g id="MinimusSVG copy" fill="#000000">
                <g id="Page 1" fill="#D8D8D8">
                    <g id="Artboard 1">
                        <g id="Ta Da!">
                            <g id="Minimus Sketch">
                                <g id="base">
                                    <path d="M702.572758,387.076251 C697.140899,387.076251 692.737507,391.453354 692.737507,396.854084 L692.737507,539.570085 C692.737507,544.970233 697.140383,549.347918 702.572758,549.347918 L760.094644,549.347918 C765.526503,549.347918 769.929895,544.970815 769.929895,539.570085 L769.929895,396.854084 C769.929895,391.453936 765.527019,387.076251 760.094644,387.076251 L702.572758,387.076251 L702.572758,387.076251 Z M702.572758,387.076251" id="antenna edging" fill="url(#linearGradient-10)"></path>
                                    <path d="M703.555296,388.053792 C698.123881,388.053792 693.720849,392.430238 693.720849,397.829733 L693.720849,538.594436 C693.720849,543.993539 698.124956,548.370377 703.555296,548.370377 L759.112105,548.370377 C764.54352,548.370377 768.946552,543.993931 768.946552,538.594436 L768.946552,397.829733 C768.946552,392.43063 764.542446,388.053792 759.112105,388.053792 L703.555296,388.053792 L703.555296,388.053792 Z M703.555296,388.053792" id="glass" fill="url(#linearGradient-11)"></path>
                                    <path d="M698.145891,410.048445 L698.145891,526.864494 L764.521511,526.864494 L764.521511,410.048445 L698.145891,410.048445 L698.145891,410.048445 Z M698.145891,410.048445" id="view port" stroke="rgb(0,0,0)" stroke-width="2" fill="#2A2A2A"></path>
                                </g>
                                <g id="edge buttons">
                                    <path d="M692,424.955932 L692,430.576788 L692.737507,430.576788 L692.737507,424.955932 L692,424.955932 L692,424.955932 Z M692,424.955932" id="Rectangle 4 copy" fill="#000000"></path>
                                    <path d="M692,438.641495 L692,444.262351 L692.737507,444.262351 L692.737507,438.641495 L692,438.641495 L692,438.641495 Z M692,438.641495" id="Rectangle 4 copy 2" fill="#000000"></path>
                                    <path d="M692,409.559675 L692,416.891226 L692.737507,416.891226 L692.737507,409.559675 L692,409.559675 L692,409.559675 Z M692,409.559675" id="Rectangle 4" fill="#000000"></path>
                                    <path d="M744.362989,386.343096 L744.362989,387.076251 L756.654771,387.076251 L756.654771,386.343096 L744.362989,386.343096 L744.362989,386.343096 Z M744.362989,386.343096" id="Rectangle 8" fill="#000000"></path>
                                </g>
                                <path d="M731.333701,545.682142 C735.271068,545.682142 738.462934,542.50911 738.462934,538.594976 C738.462934,534.680842 735.271068,531.50781 731.333701,531.50781 C727.396334,531.50781 724.204468,534.680842 724.204468,538.594976 C724.204468,542.50911 727.396334,545.682142 731.333701,545.682142 L731.333701,545.682142 Z M731.333701,545.682142" id="home" fill="url(#linearGradient-12)"></path>
                                <g id="top elements">
                                    <path d="M725.800583,401.006199 C725.326386,401.006199 724.941975,401.390112 724.941975,401.861546 L724.941975,401.861546 C724.941975,402.333942 725.328041,402.716894 725.800583,402.716894 L736.866819,402.716894 C737.341015,402.716894 737.725427,402.33298 737.725427,401.861546 L737.725427,401.861546 C737.725427,401.389151 737.339361,401.006199 736.866819,401.006199 L725.800583,401.006199 L725.800583,401.006199 Z M725.800583,401.006199" id="ear piece" opacity="0.443963068" fill="#060707"></path>
                                    <g id="Camera">
                                        <path d="M731.333701,396.607268 C732.148329,396.607268 732.808715,395.950779 732.808715,395.140958 C732.808715,394.331137 732.148329,393.674647 731.333701,393.674647 C730.519073,393.674647 729.858687,394.331137 729.858687,395.140958 C729.858687,395.950779 730.519073,396.607268 731.333701,396.607268 L731.333701,396.607268 Z M731.333701,396.607268" id="Oval 2" fill="#1A1E1D"></path>
                                        <path d="M731.456619,395.874113 C731.796047,395.874113 732.071208,395.600576 732.071208,395.26315 C732.071208,394.925725 731.796047,394.652188 731.456619,394.652188 C731.117191,394.652188 730.84203,394.925725 730.84203,395.26315 C730.84203,395.600576 731.117191,395.874113 731.456619,395.874113 L731.456619,395.874113 Z M731.456619,395.874113" id="Oval 3" opacity="0.545170455" fill="url(#linearGradient-13)"></path>
                                    </g>
                                </g>
                            </g>
                        </g>
                    </g>
                </g>
            </g>
        </g>
    </g>
</svg>