<?xml version="1.0" encoding="UTF-8" standalone="no"?>
<svg width="114px" height="114px" viewBox="0 0 114 114" version="1.1" xmlns="http://www.w3.org/2000/svg" xmlns:xlink="http://www.w3.org/1999/xlink" xmlns:sketch="http://www.bohemiancoding.com/sketch/ns">
    <title>stopwatch mini</title>
    <description>Created with Sketch (http://www.bohemiancoding.com/sketch)</description>
    <defs></defs>
    <g id="Page 2" stroke="none" stroke-width="1" fill="none" fill-rule="evenodd" sketch:type="MSPage">
        <g id="stopwatch mini" sketch:type="MSArtboardGroup">
            <rect d="M0,0 L0,114 L114,114 L114,0 L0,0 Z M0,0" id="Rectangle 7" fill="#8BD685" sketch:type="MSShapeGroup" x="0" y="0" width="114" height="114"></rect>
            <path d="M57,88.6490066 C72.2741259,88.6490066 84.65625,76.2286154 84.65625,60.9072848 C84.65625,45.5859541 72.2741259,33.1655629 57,33.1655629 C41.7258741,33.1655629 29.34375,45.5859541 29.34375,60.9072848 C29.34375,76.2286154 41.7258741,88.6490066 57,88.6490066 Z M57,91 C40.4314567,91 27,77.5270333 27,60.9072848 C27,44.2875362 40.4314567,30.8145695 57,30.8145695 C73.5685433,30.8145695 87,44.2875362 87,60.9072848 C87,77.5270333 73.5685433,91 57,91 Z M53.2590617,20 L60.7409383,20 C61.0101814,20 61.21875,20.2106986 61.21875,20.4706085 L61.21875,27.0525703 C61.21875,27.3061381 61.0048264,27.5231788 60.7409383,27.5231788 L53.2590617,27.5231788 C52.9898186,27.5231788 52.78125,27.3124802 52.78125,27.0525703 L52.78125,20.4706085 C52.78125,20.2170407 52.9951736,20 53.2590617,20 Z M57,63.7284768 C55.4466991,63.7284768 54.1875,62.4653862 54.1875,60.9072848 C54.1875,59.6789212 54.9701306,58.6339158 56.0625,58.2466239 L56.0625,36.9271523 L57.9375,36.9271523 L57.9375,58.2466239 C59.0298694,58.6339158 59.8125,59.6789212 59.8125,60.9072848 C59.8125,62.4653862 58.5533009,63.7284768 57,63.7284768 Z M78.2029405,28.4688072 L82.6952653,31.8540167 L79.2995937,36.360225 L74.807269,32.9750155 Z M78.2029405,28.4688072" id="stop dog" fill="#F6F2EB" sketch:type="MSShapeGroup"></path>
        </g>
    </g>
</svg>