<?xml version="1.0" encoding="UTF-8" standalone="no"?>
<svg width="200px" height="200px" viewBox="0 0 200 200" version="1.1" xmlns="http://www.w3.org/2000/svg" xmlns:xlink="http://www.w3.org/1999/xlink" xmlns:sketch="http://www.bohemiancoding.com/sketch/ns">
    <title>Face 1</title>
    <description>Created with Sketch (http://www.bohemiancoding.com/sketch)</description>
    <defs>
        <path d="M24,87 C27.3137087,87 30,84.3137087 30,81 C30,77.6862913 27.3137087,75 24,75 C20.6862913,75 18,77.6862913 18,81 C18,84.3137087 20.6862913,87 24,87 Z M24,87" id="path-1"></path>
        <path d="M63,94 C66.3137087,94 69,91.3137087 69,88 C69,84.6862913 66.3137087,82 63,82 C59.6862913,82 57,84.6862913 57,88 C57,91.3137087 59.6862913,94 63,94 Z M63,94" id="path-2"></path>
    </defs>
    <g id="Page 1" stroke="none" stroke-width="1" fill="none" fill-rule="evenodd">
        <g id="Face 1">
            <g id="face" transform="translate(41.000000, 21.000000)">
                <path d="M22,43 C22,43 14.3249439,63.908463 10,73.9999993 C5.67505643,84.0915358 3,80.9999986 3,90.9999993 C2.99999958,101 12.3747695,142.145174 20,154.999999 C27.6252309,167.854824 78.9999997,136.999999 83,131.999999 C87,126.999999 113,103.353224 113,82.9999993 C112.999999,62.6467741 106.315385,38.9002297 106.315385,38.9002297 L22,43 Z M22,43" id="Rectangle 1" fill="#EFB655"></path>
                <path d="M82.999997,21 C64.0938287,19.5133185 35.0000008,0 35.0000008,0 C35.0000008,0 37.5991264,14.9339158 33,18 C28.4008739,21.0660846 10,7 10,7 L13.9999999,24 C13.9999999,24 0.322883188,22.3730354 0.99999968,27 C2.34665244,36.2021286 24.0000006,43 24.0000006,43 C24.0000006,43 67.0000006,40.5 78.0000006,47 C82.4007461,49.6004401 75.5920646,69.0781515 83.0000006,73 C100.000001,81.9999999 85.3601692,105.644815 89.0000006,108 C92.6398321,110.355185 98.999997,86 98.999997,86 L88.999997,125 C88.999997,125 97.9999933,123 103.999997,113 C110,103 125.999997,58 113.999997,41 C104.931412,28.152841 106.220052,22.8259034 82.999997,21 Z M82.999997,21" id="Rectangle 2" fill="#3D1F09"></path>
                <path d="M93.6903043,121.232465 C93.6903043,122.336873 94.4831177,122.818755 95.449238,122.277908 C95.449238,122.277908 107.690303,116.402714 107.690304,107.569763 C107.690306,98.7368125 101.422291,87.232172 93.6903043,87.232172 L93.6903043,121.232465 Z M93.6903043,121.232465" id="Oval 1" fill="#EFB656" transform="translate(100.690304, 105.232172) rotate(-345.000000) translate(-100.690304, -105.232172) "></path>
                <path d="M99.2600211,99.0884482 C98.1554516,99.0884482 97.2600211,99.9758815 97.2600211,101.088063 L97.2600211,107.088833 C97.2600211,108.19319 98.1477507,109.088448 99.2600211,109.088448 L99.2600211,109.088448 C100.364591,109.088448 101.260021,108.201015 101.260021,107.088833 L101.260021,101.088063 C101.260021,99.9837063 100.372291,99.0884482 99.2600211,99.0884482 L99.2600211,99.0884482 Z M99.2600211,99.0884482" id="Rectangle 5" fill="#D79F41" transform="translate(99.260021, 104.088448) rotate(-345.000000) translate(-99.260021, -104.088448) "></path>
                <path d="M19,127.96432 C19,127.96432 24.8099943,142 34.7474118,142 C44.880225,142 67.7860993,122.506 55.4351881,127.96432 C43.0842777,133.42264 19,127.96432 19,127.96432 Z M19,127.96432" id="Rectangle 3" fill="#FFFFFF" transform="translate(39.000000, 134.500000) rotate(-358.000000) translate(-39.000000, -134.500000) "></path>
                <path d="M26.7309071,115.982494 C26.4593339,116.46332 26.693618,116.853106 27.240638,116.853106 L43.6216948,116.853106 C44.1747846,116.853106 44.6231525,116.405367 44.6231525,115.843281 L44.6231525,85.3137127 C44.6231525,84.7560013 44.4038848,84.6921052 44.1314256,85.1745 L26.7309071,115.982494 Z M26.7309071,115.982494" id="Rectangle 4" fill="#D79F40" transform="translate(35.623152, 100.853106) rotate(-354.000000) translate(-35.623152, -100.853106) "></path>
                <use id="Oval 2" fill="#4A3628" xlink:href="#path-1"></use>
                <use id="Oval 2-1" xlink:href="#path-1"></use>
                <use id="Oval 3" fill="#4A3628" xlink:href="#path-2"></use>
                <use id="Oval 3-1" xlink:href="#path-2"></use>
                <path d="M17.991155,66 C16.8914705,66 16,66.8877296 16,68 L16,68 C16,69.1045695 16.8896739,70 17.991155,70 L36.008845,70 C37.1085295,70 38,69.1122704 38,68 L38,68 C38,66.8954305 37.1103261,66 36.008845,66 L17.991155,66 Z M17.991155,66" id="Rectangle 6" fill="#493628"></path>
                <path d="M59.991155,74 C58.8914705,74 58,74.8877296 58,76 L58,76 C58,77.1045695 58.8896739,78 59.991155,78 L78.008845,78 C79.1085295,78 80,77.1122704 80,76 L80,76 C80,74.8954305 79.1103261,74 78.008845,74 L59.991155,74 Z M59.991155,74" id="Rectangle 6 copy" fill="#493628" transform="translate(69.000000, 76.000000) rotate(-338.000000) translate(-69.000000, -76.000000) "></path>
            </g>
        </g>
    </g>
</svg>