<?xml version="1.0" encoding="UTF-8" standalone="no"?>
<svg width="400px" height="300px" viewBox="0 0 400 300" version="1.1" xmlns="http://www.w3.org/2000/svg" xmlns:xlink="http://www.w3.org/1999/xlink" xmlns:sketch="http://www.bohemiancoding.com/sketch/ns">
    <title>mockup</title>
    <description>Created with Sketch (http://www.bohemiancoding.com/sketch)</description>
    <defs>
        <path d="M130.75,76.5 L130.75,360.5 L290.75,360.5 L290.75,76.5 L130.75,76.5 Z M130.75,76.5" id="path-1" fill-rule="evenodd"></path>
        <mask id="mask-2">
            <use xlink:href="#path-1" fill="white"></use>
        </mask>
    </defs>
    <g id="Page 1" fill="#D8D8D8" fill-rule="evenodd">
        <path d="M-4,-5 L-4,301 L410,301 L410,-5 L-4,-5 Z M-4,-5" id="Rectangle 14" stroke="rgb(132,132,132)" stroke-width="1" fill="#BC5B4C"></path>
        <g id="iPhone" fill="#E0E0E0">
            <path d="M116.008081,144.75 C115.451333,144.75 115,145.199949 115,145.756845 L115,157.743155 C115,158.29922 115.45352,158.75 116.008081,158.75 L121.241919,158.75 C121.798667,158.75 122.25,158.300051 122.25,157.743155 L122.25,145.756845 C122.25,145.20078 121.79648,144.75 121.241919,144.75 L116.008081,144.75 Z M116.008081,144.75" id="left-button3" fill="#D9D8D0"></path>
            <path d="M116.008081,112 C115.451333,112 115,112.449949 115,113.006845 L115,124.993155 C115,125.54922 115.45352,126 116.008081,126 L121.241919,126 C121.798667,126 122.25,125.550051 122.25,124.993155 L122.25,113.006845 C122.25,112.45078 121.79648,112 121.241919,112 L116.008081,112 Z M116.008081,112" id="left-button2" fill="#D9D8D0"></path>
            <path d="M116.008081,74.75 C115.451333,74.75 115,75.2001728 115,75.7410169 L115,91.2589831 C115,91.8063066 115.45352,92.25 116.008081,92.25 L121.241919,92.25 C121.798667,92.25 122.25,91.7998272 122.25,91.2589831 L122.25,75.7410169 C122.25,75.1936934 121.79648,74.75 121.241919,74.75 L116.008081,74.75 Z M116.008081,74.75" id="left-button1" fill="#D9D8D0"></path>
            <path d="M243.005625,18 C242.450234,18 242,18.4437166 242,18.9998075 L242,22.0001925 C242,22.5523709 242.446545,23 243.005625,23 L271.744375,23 C272.299766,23 272.75,22.5562834 272.75,22.0001925 L272.75,18.9998075 C272.75,18.4476291 272.303455,18 271.744375,18 L243.005625,18 Z M243.005625,18" id="top-button" fill="#D9D8D0"></path>
            <path d="M144.993652,20.25 C129.809327,20.25 117.5,32.5593523 117.5,47.7511427 L117.5,387.748857 C117.5,402.937319 129.808911,415.25 144.993652,415.25 L276.506348,415.25 C291.690673,415.25 304,402.940648 304,387.748857 L304,47.7511427 C304,32.562681 291.691089,20.25 276.506348,20.25 L144.993652,20.25 Z M144.993652,20.25" id="iphone" fill="#E9EAE4"></path>
            <path d="M130.759552,75 C129.92585,75 129.25,75.6775187 129.25,76.5097494 L129.25,360.490251 C129.25,361.324062 129.923916,362 130.759552,362 L290.740448,362 C291.57415,362 292.25,361.322481 292.25,360.490251 L292.25,76.5097494 C292.25,75.6759378 291.576084,75 290.740448,75 L130.759552,75 Z M130.759552,75" id="screen-border" fill-opacity="0.609346278" fill="#ABA99F"></path>
            <use id="screen" xlink:href="#path-1" fill="#C5C3BA"></use>
            <g id="Splash Screen!" fill="#D8D8D8" mask="url(#mask-2)">
                <path d="M131,75 L131,375 L306,375 L306,75 L131,75 Z M131,75" id="screen" fill="#BC5B4C"></path>
                <path d="M210.399391,252.910291 C210.593083,253.105 210.908978,253.103132 211.100811,252.910291 L229.127879,234.788531 L230.964167,232.942597 C231.217673,232.687759 231.629855,232.685071 231.882431,232.938974 L235.562216,236.638088 C235.813206,236.890396 235.813178,237.305271 235.558611,237.561175 L233.722323,239.407109 L211.101747,262.146507 C210.907538,262.341736 210.591139,262.340204 210.398455,262.146507 L187.777879,239.407109 L185.94159,237.561175 C185.688084,237.306337 185.68541,236.891991 185.937986,236.638088 L189.617771,232.938974 C189.868761,232.686665 190.281468,232.686693 190.536035,232.942597 L192.372323,234.788531 L210.399391,252.910291 Z M210.399391,252.910291" id="Rectangle 193" opacity="0.65" fill="#FFFEF6"></path>
                <g id="Peck">
                    <path d="M159.622,164.184 C159.622,163.624 160.07,163.12 160.686,163.12 L173.454,163.12 C180.342,163.12 185.998,168.72 185.998,175.496 C185.998,182.44 180.342,188.096 173.51,188.096 L165.39,188.096 L165.39,201.256 C165.39,201.816 164.886,202.32 164.326,202.32 L160.686,202.32 C160.07,202.32 159.622,201.816 159.622,201.256 Z M165.39,182.608 L173.118,182.608 C176.982,182.608 180.23,179.472 180.23,175.44 C180.23,171.632 176.982,168.72 173.118,168.72 L165.39,168.72 Z M188.182,191.12 C188.182,184.792 192.662,179.36 199.382,179.36 C205.206,179.36 209.686,183.728 209.686,189.72 C209.686,190.112 209.63,190.84 209.574,191.232 C209.518,191.792 209.07,192.184 208.566,192.184 L193.334,192.184 C193.502,195.208 196.134,198.176 199.774,198.176 C201.79,198.176 203.638,197.28 204.758,196.552 C205.43,196.16 205.822,195.936 206.27,196.496 L207.838,198.624 C208.23,199.072 208.398,199.52 207.726,200.08 C206.102,201.48 203.19,202.88 199.438,202.88 C192.662,202.88 188.182,197.56 188.182,191.12 Z M193.614,188.656 L204.478,188.656 C204.31,185.968 202.07,183.672 199.326,183.672 C196.302,183.672 193.95,185.856 193.614,188.656 Z M213.382,191.176 C213.382,184.568 218.926,179.36 225.142,179.36 C228.558,179.36 231.19,180.76 233.262,183.336 C233.654,183.84 233.542,184.512 233.038,184.904 L231.19,186.584 C230.518,187.2 230.126,186.752 229.678,186.36 C228.67,185.24 227.046,184.232 225.198,184.232 C221.558,184.232 218.702,187.312 218.702,191.12 C218.702,194.984 221.502,198.064 225.142,198.064 C227.998,198.064 229.174,196.608 230.35,195.488 C230.854,194.984 231.358,194.984 231.862,195.376 L233.374,196.608 C233.934,197.056 234.158,197.616 233.766,198.176 C231.974,201.032 228.95,202.88 225.086,202.88 C218.814,202.88 213.382,197.896 213.382,191.176 Z M239.366,164.184 C239.366,163.624 239.87,163.12 240.43,163.12 L243.678,163.12 C244.238,163.12 244.742,163.624 244.742,164.184 L244.742,188.432 L253.478,180.592 C253.87,180.256 254.318,179.92 254.878,179.92 L258.798,179.92 C259.75,179.92 259.918,180.984 259.414,181.432 L250.118,189.888 L261.094,200.864 C261.598,201.368 261.43,202.32 260.478,202.32 L255.886,202.32 C255.494,202.32 255.046,202.096 254.878,201.872 L244.742,191.456 L244.742,201.256 C244.742,201.816 244.238,202.32 243.678,202.32 L240.43,202.32 C239.87,202.32 239.366,201.816 239.366,201.256 Z M239.366,164.184" fill="#EBCDC2"></path>
                </g>
            </g>
            <path d="M210.75,43.25 C212.821068,43.25 214.5,41.5710679 214.5,39.5 C214.5,37.4289321 212.821068,35.75 210.75,35.75 C208.678932,35.75 207,37.4289321 207,39.5 C207,41.5710679 208.678932,43.25 210.75,43.25 Z M210.75,43.25" id="camera" fill="#C5C3BA" mask="url(#mask-2)"></path>
            <path d="M210.75,41 C211.578427,41 212.25,40.3284272 212.25,39.5 C212.25,38.6715728 211.578427,38 210.75,38 C209.921573,38 209.25,38.6715728 209.25,39.5 C209.25,40.3284272 209.921573,41 210.75,41 Z M210.75,41" id="camera-inner" fill-opacity="0.609346278" fill="#ABA99F" mask="url(#mask-2)"></path>
            <path d="M197.754524,50.75 C195.404815,50.75 193.5,52.6575659 193.5,55 L193.5,55 C193.5,57.3472102 195.400842,59.25 197.754524,59.25 L223.245476,59.25 C225.595185,59.25 227.5,57.3424341 227.5,55 L227.5,55 C227.5,52.6527898 225.599158,50.75 223.245476,50.75 L197.754524,50.75 Z M197.754524,50.75" id="speaker" fill="#DDD5D5" mask="url(#mask-2)"></path>
            <path d="M197.745943,52.5 C196.367472,52.5 195.25,53.6096621 195.25,55 L195.25,55 C195.25,56.3807119 196.371683,57.5 197.745943,57.5 L223.254057,57.5 C224.632528,57.5 225.75,56.3903379 225.75,55 L225.75,55 C225.75,53.6192881 224.628317,52.5 223.254057,52.5 L197.745943,52.5 Z M197.745943,52.5" id="speaker-inner" fill-opacity="0.609346278" fill="#ABA99F" mask="url(#mask-2)"></path>
        </g>
    </g>
</svg>