<?xml version="1.0" encoding="UTF-8" standalone="no"?>
<svg width="200px" height="200px" viewBox="0 0 200 200" version="1.1" xmlns="http://www.w3.org/2000/svg" xmlns:xlink="http://www.w3.org/1999/xlink" xmlns:sketch="http://www.bohemiancoding.com/sketch/ns">
    <title>dotted</title>
    <description>Created with Sketch (http://www.bohemiancoding.com/sketch)</description>
    <defs>
        <path d="M100,200 C155.228478,200 200,155.228478 200,100 C200,44.7715223 155.228478,0 100,0 C44.7715223,0 0,44.7715223 0,100 C0,155.228478 44.7715223,200 100,200 Z M100,200" id="path-1" fill-rule="evenodd"></path>
        <path d="M70,63 L70,228 L188,228 L188,63 L70,63 Z M70,63" id="path-2" fill-rule="evenodd"></path>
        <mask id="mask-3">
            <use xlink:href="#path-2" fill="white"></use>
        </mask>
        <mask id="mask-4">
            <use xlink:href="#path-1" fill="white"></use>
        </mask>
    </defs>
    <g id="Page 1" fill="#D8D8D8" fill-rule="evenodd">
        <g id="Artboard 3">
            <use id="Oval 16" xlink:href="#path-1" fill="#BA9FE6"></use>
            <g id="Group" mask="url(#mask-4)">
                <g id="Dot paper">
                    <use id="Rectangle 19" xlink:href="#path-2" fill="#F5F5F5"></use>
                    <g id="Group" mask="url(#mask-3)">
                        <g>
                            <path d="M79,74 C79.5522848,74 80,73.5522848 80,73 C80,72.4477152 79.5522848,72 79,72 C78.4477152,72 78,72.4477152 78,73 C78,73.5522848 78.4477152,74 79,74 Z M79,74" id="Oval 17" fill="#D2D2D2"></path>
                            <path d="M159,194 C159.552285,194 160,193.552285 160,193 C160,192.447715 159.552285,192 159,192 C158.447715,192 158,192.447715 158,193 C158,193.552285 158.447715,194 159,194 Z M159,194" id="Oval 17" fill="#D2D2D2"></path>
                            <path d="M149,194 C149.552285,194 150,193.552285 150,193 C150,192.447715 149.552285,192 149,192 C148.447715,192 148,192.447715 148,193 C148,193.552285 148.447715,194 149,194 Z M149,194" id="Oval 17" fill="#D2D2D2"></path>
                            <path d="M139,194 C139.552285,194 140,193.552285 140,193 C140,192.447715 139.552285,192 139,192 C138.447715,192 138,192.447715 138,193 C138,193.552285 138.447715,194 139,194 Z M139,194" id="Oval 17" fill="#D2D2D2"></path>
                            <path d="M129,194 C129.552285,194 130,193.552285 130,193 C130,192.447715 129.552285,192 129,192 C128.447715,192 128,192.447715 128,193 C128,193.552285 128.447715,194 129,194 Z M129,194" id="Oval 17" fill="#D2D2D2"></path>
                            <path d="M119,194 C119.552285,194 120,193.552285 120,193 C120,192.447715 119.552285,192 119,192 C118.447715,192 118,192.447715 118,193 C118,193.552285 118.447715,194 119,194 Z M119,194" id="Oval 17" fill="#D2D2D2"></path>
                            <path d="M109,194 C109.552285,194 110,193.552285 110,193 C110,192.447715 109.552285,192 109,192 C108.447715,192 108,192.447715 108,193 C108,193.552285 108.447715,194 109,194 Z M109,194" id="Oval 17" fill="#D2D2D2"></path>
                            <path d="M99,194 C99.5522848,194 100,193.552285 100,193 C100,192.447715 99.5522848,192 99,192 C98.4477152,192 98,192.447715 98,193 C98,193.552285 98.4477152,194 99,194 Z M99,194" id="Oval 17" fill="#D2D2D2"></path>
                            <path d="M89,194 C89.5522848,194 90,193.552285 90,193 C90,192.447715 89.5522848,192 89,192 C88.4477152,192 88,192.447715 88,193 C88,193.552285 88.4477152,194 89,194 Z M89,194" id="Oval 17" fill="#D2D2D2"></path>
                            <path d="M79,194 C79.5522848,194 80,193.552285 80,193 C80,192.447715 79.5522848,192 79,192 C78.4477152,192 78,192.447715 78,193 C78,193.552285 78.4477152,194 79,194 Z M79,194" id="Oval 17" fill="#D2D2D2"></path>
                            <path d="M159,184 C159.552285,184 160,183.552285 160,183 C160,182.447715 159.552285,182 159,182 C158.447715,182 158,182.447715 158,183 C158,183.552285 158.447715,184 159,184 Z M159,184" id="Oval 17" fill="#D2D2D2"></path>
                            <path d="M149,184 C149.552285,184 150,183.552285 150,183 C150,182.447715 149.552285,182 149,182 C148.447715,182 148,182.447715 148,183 C148,183.552285 148.447715,184 149,184 Z M149,184" id="Oval 17" fill="#D2D2D2"></path>
                            <path d="M139,184 C139.552285,184 140,183.552285 140,183 C140,182.447715 139.552285,182 139,182 C138.447715,182 138,182.447715 138,183 C138,183.552285 138.447715,184 139,184 Z M139,184" id="Oval 17" fill="#D2D2D2"></path>
                            <path d="M129,184 C129.552285,184 130,183.552285 130,183 C130,182.447715 129.552285,182 129,182 C128.447715,182 128,182.447715 128,183 C128,183.552285 128.447715,184 129,184 Z M129,184" id="Oval 17" fill="#D2D2D2"></path>
                            <path d="M119,184 C119.552285,184 120,183.552285 120,183 C120,182.447715 119.552285,182 119,182 C118.447715,182 118,182.447715 118,183 C118,183.552285 118.447715,184 119,184 Z M119,184" id="Oval 17" fill="#D2D2D2"></path>
                            <path d="M109,184 C109.552285,184 110,183.552285 110,183 C110,182.447715 109.552285,182 109,182 C108.447715,182 108,182.447715 108,183 C108,183.552285 108.447715,184 109,184 Z M109,184" id="Oval 17" fill="#D2D2D2"></path>
                            <path d="M99,184 C99.5522848,184 100,183.552285 100,183 C100,182.447715 99.5522848,182 99,182 C98.4477152,182 98,182.447715 98,183 C98,183.552285 98.4477152,184 99,184 Z M99,184" id="Oval 17" fill="#D2D2D2"></path>
                            <path d="M89,184 C89.5522848,184 90,183.552285 90,183 C90,182.447715 89.5522848,182 89,182 C88.4477152,182 88,182.447715 88,183 C88,183.552285 88.4477152,184 89,184 Z M89,184" id="Oval 17" fill="#D2D2D2"></path>
                            <path d="M79,184 C79.5522848,184 80,183.552285 80,183 C80,182.447715 79.5522848,182 79,182 C78.4477152,182 78,182.447715 78,183 C78,183.552285 78.4477152,184 79,184 Z M79,184" id="Oval 17" fill="#D2D2D2"></path>
                            <path d="M159,174 C159.552285,174 160,173.552285 160,173 C160,172.447715 159.552285,172 159,172 C158.447715,172 158,172.447715 158,173 C158,173.552285 158.447715,174 159,174 Z M159,174" id="Oval 17" fill="#D2D2D2"></path>
                            <path d="M149,174 C149.552285,174 150,173.552285 150,173 C150,172.447715 149.552285,172 149,172 C148.447715,172 148,172.447715 148,173 C148,173.552285 148.447715,174 149,174 Z M149,174" id="Oval 17" fill="#D2D2D2"></path>
                            <path d="M139,174 C139.552285,174 140,173.552285 140,173 C140,172.447715 139.552285,172 139,172 C138.447715,172 138,172.447715 138,173 C138,173.552285 138.447715,174 139,174 Z M139,174" id="Oval 17" fill="#D2D2D2"></path>
                            <path d="M129,174 C129.552285,174 130,173.552285 130,173 C130,172.447715 129.552285,172 129,172 C128.447715,172 128,172.447715 128,173 C128,173.552285 128.447715,174 129,174 Z M129,174" id="Oval 17" fill="#D2D2D2"></path>
                            <path d="M119,174 C119.552285,174 120,173.552285 120,173 C120,172.447715 119.552285,172 119,172 C118.447715,172 118,172.447715 118,173 C118,173.552285 118.447715,174 119,174 Z M119,174" id="Oval 17" fill="#D2D2D2"></path>
                            <path d="M109,174 C109.552285,174 110,173.552285 110,173 C110,172.447715 109.552285,172 109,172 C108.447715,172 108,172.447715 108,173 C108,173.552285 108.447715,174 109,174 Z M109,174" id="Oval 17" fill="#D2D2D2"></path>
                            <path d="M99,174 C99.5522848,174 100,173.552285 100,173 C100,172.447715 99.5522848,172 99,172 C98.4477152,172 98,172.447715 98,173 C98,173.552285 98.4477152,174 99,174 Z M99,174" id="Oval 17" fill="#D2D2D2"></path>
                            <path d="M89,174 C89.5522848,174 90,173.552285 90,173 C90,172.447715 89.5522848,172 89,172 C88.4477152,172 88,172.447715 88,173 C88,173.552285 88.4477152,174 89,174 Z M89,174" id="Oval 17" fill="#D2D2D2"></path>
                            <path d="M79,174 C79.5522848,174 80,173.552285 80,173 C80,172.447715 79.5522848,172 79,172 C78.4477152,172 78,172.447715 78,173 C78,173.552285 78.4477152,174 79,174 Z M79,174" id="Oval 17" fill="#D2D2D2"></path>
                            <path d="M159,164 C159.552285,164 160,163.552285 160,163 C160,162.447715 159.552285,162 159,162 C158.447715,162 158,162.447715 158,163 C158,163.552285 158.447715,164 159,164 Z M159,164" id="Oval 17" fill="#D2D2D2"></path>
                            <path d="M149,164 C149.552285,164 150,163.552285 150,163 C150,162.447715 149.552285,162 149,162 C148.447715,162 148,162.447715 148,163 C148,163.552285 148.447715,164 149,164 Z M149,164" id="Oval 17" fill="#D2D2D2"></path>
                            <path d="M139,164 C139.552285,164 140,163.552285 140,163 C140,162.447715 139.552285,162 139,162 C138.447715,162 138,162.447715 138,163 C138,163.552285 138.447715,164 139,164 Z M139,164" id="Oval 17" fill="#D2D2D2"></path>
                            <path d="M129,164 C129.552285,164 130,163.552285 130,163 C130,162.447715 129.552285,162 129,162 C128.447715,162 128,162.447715 128,163 C128,163.552285 128.447715,164 129,164 Z M129,164" id="Oval 17" fill="#D2D2D2"></path>
                            <path d="M119,164 C119.552285,164 120,163.552285 120,163 C120,162.447715 119.552285,162 119,162 C118.447715,162 118,162.447715 118,163 C118,163.552285 118.447715,164 119,164 Z M119,164" id="Oval 17" fill="#D2D2D2"></path>
                            <path d="M109,164 C109.552285,164 110,163.552285 110,163 C110,162.447715 109.552285,162 109,162 C108.447715,162 108,162.447715 108,163 C108,163.552285 108.447715,164 109,164 Z M109,164" id="Oval 17" fill="#D2D2D2"></path>
                            <path d="M99,164 C99.5522848,164 100,163.552285 100,163 C100,162.447715 99.5522848,162 99,162 C98.4477152,162 98,162.447715 98,163 C98,163.552285 98.4477152,164 99,164 Z M99,164" id="Oval 17" fill="#D2D2D2"></path>
                            <path d="M89,164 C89.5522848,164 90,163.552285 90,163 C90,162.447715 89.5522848,162 89,162 C88.4477152,162 88,162.447715 88,163 C88,163.552285 88.4477152,164 89,164 Z M89,164" id="Oval 17" fill="#D2D2D2"></path>
                            <path d="M79,164 C79.5522848,164 80,163.552285 80,163 C80,162.447715 79.5522848,162 79,162 C78.4477152,162 78,162.447715 78,163 C78,163.552285 78.4477152,164 79,164 Z M79,164" id="Oval 17" fill="#D2D2D2"></path>
                            <path d="M159,154 C159.552285,154 160,153.552285 160,153 C160,152.447715 159.552285,152 159,152 C158.447715,152 158,152.447715 158,153 C158,153.552285 158.447715,154 159,154 Z M159,154" id="Oval 17" fill="#D2D2D2"></path>
                            <path d="M149,154 C149.552285,154 150,153.552285 150,153 C150,152.447715 149.552285,152 149,152 C148.447715,152 148,152.447715 148,153 C148,153.552285 148.447715,154 149,154 Z M149,154" id="Oval 17" fill="#D2D2D2"></path>
                            <path d="M139,154 C139.552285,154 140,153.552285 140,153 C140,152.447715 139.552285,152 139,152 C138.447715,152 138,152.447715 138,153 C138,153.552285 138.447715,154 139,154 Z M139,154" id="Oval 17" fill="#D2D2D2"></path>
                            <path d="M129,154 C129.552285,154 130,153.552285 130,153 C130,152.447715 129.552285,152 129,152 C128.447715,152 128,152.447715 128,153 C128,153.552285 128.447715,154 129,154 Z M129,154" id="Oval 17" fill="#D2D2D2"></path>
                            <path d="M119,154 C119.552285,154 120,153.552285 120,153 C120,152.447715 119.552285,152 119,152 C118.447715,152 118,152.447715 118,153 C118,153.552285 118.447715,154 119,154 Z M119,154" id="Oval 17" fill="#D2D2D2"></path>
                            <path d="M109,154 C109.552285,154 110,153.552285 110,153 C110,152.447715 109.552285,152 109,152 C108.447715,152 108,152.447715 108,153 C108,153.552285 108.447715,154 109,154 Z M109,154" id="Oval 17" fill="#D2D2D2"></path>
                            <path d="M99,154 C99.5522848,154 100,153.552285 100,153 C100,152.447715 99.5522848,152 99,152 C98.4477152,152 98,152.447715 98,153 C98,153.552285 98.4477152,154 99,154 Z M99,154" id="Oval 17" fill="#D2D2D2"></path>
                            <path d="M89,154 C89.5522848,154 90,153.552285 90,153 C90,152.447715 89.5522848,152 89,152 C88.4477152,152 88,152.447715 88,153 C88,153.552285 88.4477152,154 89,154 Z M89,154" id="Oval 17" fill="#D2D2D2"></path>
                            <path d="M79,154 C79.5522848,154 80,153.552285 80,153 C80,152.447715 79.5522848,152 79,152 C78.4477152,152 78,152.447715 78,153 C78,153.552285 78.4477152,154 79,154 Z M79,154" id="Oval 17" fill="#D2D2D2"></path>
                            <path d="M159,144 C159.552285,144 160,143.552285 160,143 C160,142.447715 159.552285,142 159,142 C158.447715,142 158,142.447715 158,143 C158,143.552285 158.447715,144 159,144 Z M159,144" id="Oval 17" fill="#D2D2D2"></path>
                            <path d="M149,144 C149.552285,144 150,143.552285 150,143 C150,142.447715 149.552285,142 149,142 C148.447715,142 148,142.447715 148,143 C148,143.552285 148.447715,144 149,144 Z M149,144" id="Oval 17" fill="#D2D2D2"></path>
                            <path d="M139,144 C139.552285,144 140,143.552285 140,143 C140,142.447715 139.552285,142 139,142 C138.447715,142 138,142.447715 138,143 C138,143.552285 138.447715,144 139,144 Z M139,144" id="Oval 17" fill="#D2D2D2"></path>
                            <path d="M129,144 C129.552285,144 130,143.552285 130,143 C130,142.447715 129.552285,142 129,142 C128.447715,142 128,142.447715 128,143 C128,143.552285 128.447715,144 129,144 Z M129,144" id="Oval 17" fill="#D2D2D2"></path>
                            <path d="M119,144 C119.552285,144 120,143.552285 120,143 C120,142.447715 119.552285,142 119,142 C118.447715,142 118,142.447715 118,143 C118,143.552285 118.447715,144 119,144 Z M119,144" id="Oval 17" fill="#D2D2D2"></path>
                            <path d="M109,144 C109.552285,144 110,143.552285 110,143 C110,142.447715 109.552285,142 109,142 C108.447715,142 108,142.447715 108,143 C108,143.552285 108.447715,144 109,144 Z M109,144" id="Oval 17" fill="#D2D2D2"></path>
                            <path d="M99,144 C99.5522848,144 100,143.552285 100,143 C100,142.447715 99.5522848,142 99,142 C98.4477152,142 98,142.447715 98,143 C98,143.552285 98.4477152,144 99,144 Z M99,144" id="Oval 17" fill="#D2D2D2"></path>
                            <path d="M89,144 C89.5522848,144 90,143.552285 90,143 C90,142.447715 89.5522848,142 89,142 C88.4477152,142 88,142.447715 88,143 C88,143.552285 88.4477152,144 89,144 Z M89,144" id="Oval 17" fill="#D2D2D2"></path>
                            <path d="M79,144 C79.5522848,144 80,143.552285 80,143 C80,142.447715 79.5522848,142 79,142 C78.4477152,142 78,142.447715 78,143 C78,143.552285 78.4477152,144 79,144 Z M79,144" id="Oval 17" fill="#D2D2D2"></path>
                            <path d="M159,134 C159.552285,134 160,133.552285 160,133 C160,132.447715 159.552285,132 159,132 C158.447715,132 158,132.447715 158,133 C158,133.552285 158.447715,134 159,134 Z M159,134" id="Oval 17" fill="#D2D2D2"></path>
                            <path d="M149,134 C149.552285,134 150,133.552285 150,133 C150,132.447715 149.552285,132 149,132 C148.447715,132 148,132.447715 148,133 C148,133.552285 148.447715,134 149,134 Z M149,134" id="Oval 17" fill="#D2D2D2"></path>
                            <path d="M139,134 C139.552285,134 140,133.552285 140,133 C140,132.447715 139.552285,132 139,132 C138.447715,132 138,132.447715 138,133 C138,133.552285 138.447715,134 139,134 Z M139,134" id="Oval 17" fill="#D2D2D2"></path>
                            <path d="M129,134 C129.552285,134 130,133.552285 130,133 C130,132.447715 129.552285,132 129,132 C128.447715,132 128,132.447715 128,133 C128,133.552285 128.447715,134 129,134 Z M129,134" id="Oval 17" fill="#D2D2D2"></path>
                            <path d="M119,134 C119.552285,134 120,133.552285 120,133 C120,132.447715 119.552285,132 119,132 C118.447715,132 118,132.447715 118,133 C118,133.552285 118.447715,134 119,134 Z M119,134" id="Oval 17" fill="#D2D2D2"></path>
                            <path d="M109,134 C109.552285,134 110,133.552285 110,133 C110,132.447715 109.552285,132 109,132 C108.447715,132 108,132.447715 108,133 C108,133.552285 108.447715,134 109,134 Z M109,134" id="Oval 17" fill="#D2D2D2"></path>
                            <path d="M99,134 C99.5522848,134 100,133.552285 100,133 C100,132.447715 99.5522848,132 99,132 C98.4477152,132 98,132.447715 98,133 C98,133.552285 98.4477152,134 99,134 Z M99,134" id="Oval 17" fill="#D2D2D2"></path>
                            <path d="M89,134 C89.5522848,134 90,133.552285 90,133 C90,132.447715 89.5522848,132 89,132 C88.4477152,132 88,132.447715 88,133 C88,133.552285 88.4477152,134 89,134 Z M89,134" id="Oval 17" fill="#D2D2D2"></path>
                            <path d="M79,134 C79.5522848,134 80,133.552285 80,133 C80,132.447715 79.5522848,132 79,132 C78.4477152,132 78,132.447715 78,133 C78,133.552285 78.4477152,134 79,134 Z M79,134" id="Oval 17" fill="#D2D2D2"></path>
                            <path d="M159,124 C159.552285,124 160,123.552285 160,123 C160,122.447715 159.552285,122 159,122 C158.447715,122 158,122.447715 158,123 C158,123.552285 158.447715,124 159,124 Z M159,124" id="Oval 17" fill="#D2D2D2"></path>
                            <path d="M149,124 C149.552285,124 150,123.552285 150,123 C150,122.447715 149.552285,122 149,122 C148.447715,122 148,122.447715 148,123 C148,123.552285 148.447715,124 149,124 Z M149,124" id="Oval 17" fill="#D2D2D2"></path>
                            <path d="M139,124 C139.552285,124 140,123.552285 140,123 C140,122.447715 139.552285,122 139,122 C138.447715,122 138,122.447715 138,123 C138,123.552285 138.447715,124 139,124 Z M139,124" id="Oval 17" fill="#D2D2D2"></path>
                            <path d="M129,124 C129.552285,124 130,123.552285 130,123 C130,122.447715 129.552285,122 129,122 C128.447715,122 128,122.447715 128,123 C128,123.552285 128.447715,124 129,124 Z M129,124" id="Oval 17" fill="#D2D2D2"></path>
                            <path d="M119,124 C119.552285,124 120,123.552285 120,123 C120,122.447715 119.552285,122 119,122 C118.447715,122 118,122.447715 118,123 C118,123.552285 118.447715,124 119,124 Z M119,124" id="Oval 17" fill="#D2D2D2"></path>
                            <path d="M109,124 C109.552285,124 110,123.552285 110,123 C110,122.447715 109.552285,122 109,122 C108.447715,122 108,122.447715 108,123 C108,123.552285 108.447715,124 109,124 Z M109,124" id="Oval 17" fill="#D2D2D2"></path>
                            <path d="M99,124 C99.5522848,124 100,123.552285 100,123 C100,122.447715 99.5522848,122 99,122 C98.4477152,122 98,122.447715 98,123 C98,123.552285 98.4477152,124 99,124 Z M99,124" id="Oval 17" fill="#D2D2D2"></path>
                            <path d="M89,124 C89.5522848,124 90,123.552285 90,123 C90,122.447715 89.5522848,122 89,122 C88.4477152,122 88,122.447715 88,123 C88,123.552285 88.4477152,124 89,124 Z M89,124" id="Oval 17" fill="#D2D2D2"></path>
                            <path d="M79,124 C79.5522848,124 80,123.552285 80,123 C80,122.447715 79.5522848,122 79,122 C78.4477152,122 78,122.447715 78,123 C78,123.552285 78.4477152,124 79,124 Z M79,124" id="Oval 17" fill="#D2D2D2"></path>
                            <path d="M159,114 C159.552285,114 160,113.552285 160,113 C160,112.447715 159.552285,112 159,112 C158.447715,112 158,112.447715 158,113 C158,113.552285 158.447715,114 159,114 Z M159,114" id="Oval 17" fill="#D2D2D2"></path>
                            <path d="M149,114 C149.552285,114 150,113.552285 150,113 C150,112.447715 149.552285,112 149,112 C148.447715,112 148,112.447715 148,113 C148,113.552285 148.447715,114 149,114 Z M149,114" id="Oval 17" fill="#D2D2D2"></path>
                            <path d="M139,114 C139.552285,114 140,113.552285 140,113 C140,112.447715 139.552285,112 139,112 C138.447715,112 138,112.447715 138,113 C138,113.552285 138.447715,114 139,114 Z M139,114" id="Oval 17" fill="#D2D2D2"></path>
                            <path d="M129,114 C129.552285,114 130,113.552285 130,113 C130,112.447715 129.552285,112 129,112 C128.447715,112 128,112.447715 128,113 C128,113.552285 128.447715,114 129,114 Z M129,114" id="Oval 17" fill="#D2D2D2"></path>
                            <path d="M119,114 C119.552285,114 120,113.552285 120,113 C120,112.447715 119.552285,112 119,112 C118.447715,112 118,112.447715 118,113 C118,113.552285 118.447715,114 119,114 Z M119,114" id="Oval 17" fill="#D2D2D2"></path>
                            <path d="M109,114 C109.552285,114 110,113.552285 110,113 C110,112.447715 109.552285,112 109,112 C108.447715,112 108,112.447715 108,113 C108,113.552285 108.447715,114 109,114 Z M109,114" id="Oval 17" fill="#D2D2D2"></path>
                            <path d="M99,114 C99.5522848,114 100,113.552285 100,113 C100,112.447715 99.5522848,112 99,112 C98.4477152,112 98,112.447715 98,113 C98,113.552285 98.4477152,114 99,114 Z M99,114" id="Oval 17" fill="#D2D2D2"></path>
                            <path d="M89,114 C89.5522848,114 90,113.552285 90,113 C90,112.447715 89.5522848,112 89,112 C88.4477152,112 88,112.447715 88,113 C88,113.552285 88.4477152,114 89,114 Z M89,114" id="Oval 17" fill="#D2D2D2"></path>
                            <path d="M79,114 C79.5522848,114 80,113.552285 80,113 C80,112.447715 79.5522848,112 79,112 C78.4477152,112 78,112.447715 78,113 C78,113.552285 78.4477152,114 79,114 Z M79,114" id="Oval 17" fill="#D2D2D2"></path>
                            <path d="M159,104 C159.552285,104 160,103.552285 160,103 C160,102.447715 159.552285,102 159,102 C158.447715,102 158,102.447715 158,103 C158,103.552285 158.447715,104 159,104 Z M159,104" id="Oval 17" fill="#D2D2D2"></path>
                            <path d="M149,104 C149.552285,104 150,103.552285 150,103 C150,102.447715 149.552285,102 149,102 C148.447715,102 148,102.447715 148,103 C148,103.552285 148.447715,104 149,104 Z M149,104" id="Oval 17" fill="#D2D2D2"></path>
                            <path d="M139,104 C139.552285,104 140,103.552285 140,103 C140,102.447715 139.552285,102 139,102 C138.447715,102 138,102.447715 138,103 C138,103.552285 138.447715,104 139,104 Z M139,104" id="Oval 17" fill="#D2D2D2"></path>
                            <path d="M129,104 C129.552285,104 130,103.552285 130,103 C130,102.447715 129.552285,102 129,102 C128.447715,102 128,102.447715 128,103 C128,103.552285 128.447715,104 129,104 Z M129,104" id="Oval 17" fill="#D2D2D2"></path>
                            <path d="M119,104 C119.552285,104 120,103.552285 120,103 C120,102.447715 119.552285,102 119,102 C118.447715,102 118,102.447715 118,103 C118,103.552285 118.447715,104 119,104 Z M119,104" id="Oval 17" fill="#D2D2D2"></path>
                            <path d="M109,104 C109.552285,104 110,103.552285 110,103 C110,102.447715 109.552285,102 109,102 C108.447715,102 108,102.447715 108,103 C108,103.552285 108.447715,104 109,104 Z M109,104" id="Oval 17" fill="#D2D2D2"></path>
                            <path d="M99,104 C99.5522848,104 100,103.552285 100,103 C100,102.447715 99.5522848,102 99,102 C98.4477152,102 98,102.447715 98,103 C98,103.552285 98.4477152,104 99,104 Z M99,104" id="Oval 17" fill="#D2D2D2"></path>
                            <path d="M89,104 C89.5522848,104 90,103.552285 90,103 C90,102.447715 89.5522848,102 89,102 C88.4477152,102 88,102.447715 88,103 C88,103.552285 88.4477152,104 89,104 Z M89,104" id="Oval 17" fill="#D2D2D2"></path>
                            <path d="M79,104 C79.5522848,104 80,103.552285 80,103 C80,102.447715 79.5522848,102 79,102 C78.4477152,102 78,102.447715 78,103 C78,103.552285 78.4477152,104 79,104 Z M79,104" id="Oval 17" fill="#D2D2D2"></path>
                            <path d="M159,94 C159.552285,94 160,93.5522848 160,93 C160,92.4477152 159.552285,92 159,92 C158.447715,92 158,92.4477152 158,93 C158,93.5522848 158.447715,94 159,94 Z M159,94" id="Oval 17" fill="#D2D2D2"></path>
                            <path d="M149,94 C149.552285,94 150,93.5522848 150,93 C150,92.4477152 149.552285,92 149,92 C148.447715,92 148,92.4477152 148,93 C148,93.5522848 148.447715,94 149,94 Z M149,94" id="Oval 17" fill="#D2D2D2"></path>
                            <path d="M139,94 C139.552285,94 140,93.5522848 140,93 C140,92.4477152 139.552285,92 139,92 C138.447715,92 138,92.4477152 138,93 C138,93.5522848 138.447715,94 139,94 Z M139,94" id="Oval 17" fill="#D2D2D2"></path>
                            <path d="M129,94 C129.552285,94 130,93.5522848 130,93 C130,92.4477152 129.552285,92 129,92 C128.447715,92 128,92.4477152 128,93 C128,93.5522848 128.447715,94 129,94 Z M129,94" id="Oval 17" fill="#D2D2D2"></path>
                            <path d="M119,94 C119.552285,94 120,93.5522848 120,93 C120,92.4477152 119.552285,92 119,92 C118.447715,92 118,92.4477152 118,93 C118,93.5522848 118.447715,94 119,94 Z M119,94" id="Oval 17" fill="#D2D2D2"></path>
                            <path d="M109,94 C109.552285,94 110,93.5522848 110,93 C110,92.4477152 109.552285,92 109,92 C108.447715,92 108,92.4477152 108,93 C108,93.5522848 108.447715,94 109,94 Z M109,94" id="Oval 17" fill="#D2D2D2"></path>
                            <path d="M99,94 C99.5522848,94 100,93.5522848 100,93 C100,92.4477152 99.5522848,92 99,92 C98.4477152,92 98,92.4477152 98,93 C98,93.5522848 98.4477152,94 99,94 Z M99,94" id="Oval 17" fill="#D2D2D2"></path>
                            <path d="M89,94 C89.5522848,94 90,93.5522848 90,93 C90,92.4477152 89.5522848,92 89,92 C88.4477152,92 88,92.4477152 88,93 C88,93.5522848 88.4477152,94 89,94 Z M89,94" id="Oval 17" fill="#D2D2D2"></path>
                            <path d="M79,94 C79.5522848,94 80,93.5522848 80,93 C80,92.4477152 79.5522848,92 79,92 C78.4477152,92 78,92.4477152 78,93 C78,93.5522848 78.4477152,94 79,94 Z M79,94" id="Oval 17" fill="#D2D2D2"></path>
                            <path d="M159,84 C159.552285,84 160,83.5522848 160,83 C160,82.4477152 159.552285,82 159,82 C158.447715,82 158,82.4477152 158,83 C158,83.5522848 158.447715,84 159,84 Z M159,84" id="Oval 17" fill="#D2D2D2"></path>
                            <path d="M149,84 C149.552285,84 150,83.5522848 150,83 C150,82.4477152 149.552285,82 149,82 C148.447715,82 148,82.4477152 148,83 C148,83.5522848 148.447715,84 149,84 Z M149,84" id="Oval 17" fill="#D2D2D2"></path>
                            <path d="M139,84 C139.552285,84 140,83.5522848 140,83 C140,82.4477152 139.552285,82 139,82 C138.447715,82 138,82.4477152 138,83 C138,83.5522848 138.447715,84 139,84 Z M139,84" id="Oval 17" fill="#D2D2D2"></path>
                            <path d="M129,84 C129.552285,84 130,83.5522848 130,83 C130,82.4477152 129.552285,82 129,82 C128.447715,82 128,82.4477152 128,83 C128,83.5522848 128.447715,84 129,84 Z M129,84" id="Oval 17" fill="#D2D2D2"></path>
                            <path d="M119,84 C119.552285,84 120,83.5522848 120,83 C120,82.4477152 119.552285,82 119,82 C118.447715,82 118,82.4477152 118,83 C118,83.5522848 118.447715,84 119,84 Z M119,84" id="Oval 17" fill="#D2D2D2"></path>
                            <path d="M109,84 C109.552285,84 110,83.5522848 110,83 C110,82.4477152 109.552285,82 109,82 C108.447715,82 108,82.4477152 108,83 C108,83.5522848 108.447715,84 109,84 Z M109,84" id="Oval 17" fill="#D2D2D2"></path>
                            <path d="M99,84 C99.5522848,84 100,83.5522848 100,83 C100,82.4477152 99.5522848,82 99,82 C98.4477152,82 98,82.4477152 98,83 C98,83.5522848 98.4477152,84 99,84 Z M99,84" id="Oval 17" fill="#D2D2D2"></path>
                            <path d="M89,84 C89.5522848,84 90,83.5522848 90,83 C90,82.4477152 89.5522848,82 89,82 C88.4477152,82 88,82.4477152 88,83 C88,83.5522848 88.4477152,84 89,84 Z M89,84" id="Oval 17" fill="#D2D2D2"></path>
                            <path d="M79,84 C79.5522848,84 80,83.5522848 80,83 C80,82.4477152 79.5522848,82 79,82 C78.4477152,82 78,82.4477152 78,83 C78,83.5522848 78.4477152,84 79,84 Z M79,84" id="Oval 17" fill="#D2D2D2"></path>
                            <path d="M159,74 C159.552285,74 160,73.5522848 160,73 C160,72.4477152 159.552285,72 159,72 C158.447715,72 158,72.4477152 158,73 C158,73.5522848 158.447715,74 159,74 Z M159,74" id="Oval 17" fill="#D2D2D2"></path>
                            <path d="M149,74 C149.552285,74 150,73.5522848 150,73 C150,72.4477152 149.552285,72 149,72 C148.447715,72 148,72.4477152 148,73 C148,73.5522848 148.447715,74 149,74 Z M149,74" id="Oval 17" fill="#D2D2D2"></path>
                            <path d="M139,74 C139.552285,74 140,73.5522848 140,73 C140,72.4477152 139.552285,72 139,72 C138.447715,72 138,72.4477152 138,73 C138,73.5522848 138.447715,74 139,74 Z M139,74" id="Oval 17" fill="#D2D2D2"></path>
                            <path d="M129,74 C129.552285,74 130,73.5522848 130,73 C130,72.4477152 129.552285,72 129,72 C128.447715,72 128,72.4477152 128,73 C128,73.5522848 128.447715,74 129,74 Z M129,74" id="Oval 17" fill="#D2D2D2"></path>
                            <path d="M119,74 C119.552285,74 120,73.5522848 120,73 C120,72.4477152 119.552285,72 119,72 C118.447715,72 118,72.4477152 118,73 C118,73.5522848 118.447715,74 119,74 Z M119,74" id="Oval 17" fill="#D2D2D2"></path>
                            <path d="M109,74 C109.552285,74 110,73.5522848 110,73 C110,72.4477152 109.552285,72 109,72 C108.447715,72 108,72.4477152 108,73 C108,73.5522848 108.447715,74 109,74 Z M109,74" id="Oval 17" fill="#D2D2D2"></path>
                            <path d="M99,74 C99.5522848,74 100,73.5522848 100,73 C100,72.4477152 99.5522848,72 99,72 C98.4477152,72 98,72.4477152 98,73 C98,73.5522848 98.4477152,74 99,74 Z M99,74" id="Oval 17" fill="#D2D2D2"></path>
                            <path d="M89,74 C89.5522848,74 90,73.5522848 90,73 C90,72.4477152 89.5522848,72 89,72 C88.4477152,72 88,72.4477152 88,73 C88,73.5522848 88.4477152,74 89,74 Z M89,74" id="Oval 17" fill="#D2D2D2"></path>
                        </g>
                        <g id="Group copy">
                            <path d="M169,74 C169.552285,74 170,73.5522848 170,73 C170,72.4477152 169.552285,72 169,72 C168.447715,72 168,72.4477152 168,73 C168,73.5522848 168.447715,74 169,74 Z M169,74" id="Oval 17" fill="#D2D2D2"></path>
                            <path d="M199,194 C199.552285,194 200,193.552285 200,193 C200,192.447715 199.552285,192 199,192 C198.447715,192 198,192.447715 198,193 C198,193.552285 198.447715,194 199,194 Z M199,194" id="Oval 17" fill="#D2D2D2"></path>
                            <path d="M189,194 C189.552285,194 190,193.552285 190,193 C190,192.447715 189.552285,192 189,192 C188.447715,192 188,192.447715 188,193 C188,193.552285 188.447715,194 189,194 Z M189,194" id="Oval 17" fill="#D2D2D2"></path>
                            <path d="M179,194 C179.552285,194 180,193.552285 180,193 C180,192.447715 179.552285,192 179,192 C178.447715,192 178,192.447715 178,193 C178,193.552285 178.447715,194 179,194 Z M179,194" id="Oval 17" fill="#D2D2D2"></path>
                            <path d="M169,194 C169.552285,194 170,193.552285 170,193 C170,192.447715 169.552285,192 169,192 C168.447715,192 168,192.447715 168,193 C168,193.552285 168.447715,194 169,194 Z M169,194" id="Oval 17" fill="#D2D2D2"></path>
                            <path d="M199,184 C199.552285,184 200,183.552285 200,183 C200,182.447715 199.552285,182 199,182 C198.447715,182 198,182.447715 198,183 C198,183.552285 198.447715,184 199,184 Z M199,184" id="Oval 17" fill="#D2D2D2"></path>
                            <path d="M189,184 C189.552285,184 190,183.552285 190,183 C190,182.447715 189.552285,182 189,182 C188.447715,182 188,182.447715 188,183 C188,183.552285 188.447715,184 189,184 Z M189,184" id="Oval 17" fill="#D2D2D2"></path>
                            <path d="M179,184 C179.552285,184 180,183.552285 180,183 C180,182.447715 179.552285,182 179,182 C178.447715,182 178,182.447715 178,183 C178,183.552285 178.447715,184 179,184 Z M179,184" id="Oval 17" fill="#D2D2D2"></path>
                            <path d="M169,184 C169.552285,184 170,183.552285 170,183 C170,182.447715 169.552285,182 169,182 C168.447715,182 168,182.447715 168,183 C168,183.552285 168.447715,184 169,184 Z M169,184" id="Oval 17" fill="#D2D2D2"></path>
                            <path d="M199,174 C199.552285,174 200,173.552285 200,173 C200,172.447715 199.552285,172 199,172 C198.447715,172 198,172.447715 198,173 C198,173.552285 198.447715,174 199,174 Z M199,174" id="Oval 17" fill="#D2D2D2"></path>
                            <path d="M189,174 C189.552285,174 190,173.552285 190,173 C190,172.447715 189.552285,172 189,172 C188.447715,172 188,172.447715 188,173 C188,173.552285 188.447715,174 189,174 Z M189,174" id="Oval 17" fill="#D2D2D2"></path>
                            <path d="M179,174 C179.552285,174 180,173.552285 180,173 C180,172.447715 179.552285,172 179,172 C178.447715,172 178,172.447715 178,173 C178,173.552285 178.447715,174 179,174 Z M179,174" id="Oval 17" fill="#D2D2D2"></path>
                            <path d="M169,174 C169.552285,174 170,173.552285 170,173 C170,172.447715 169.552285,172 169,172 C168.447715,172 168,172.447715 168,173 C168,173.552285 168.447715,174 169,174 Z M169,174" id="Oval 17" fill="#D2D2D2"></path>
                            <path d="M199,164 C199.552285,164 200,163.552285 200,163 C200,162.447715 199.552285,162 199,162 C198.447715,162 198,162.447715 198,163 C198,163.552285 198.447715,164 199,164 Z M199,164" id="Oval 17" fill="#D2D2D2"></path>
                            <path d="M189,164 C189.552285,164 190,163.552285 190,163 C190,162.447715 189.552285,162 189,162 C188.447715,162 188,162.447715 188,163 C188,163.552285 188.447715,164 189,164 Z M189,164" id="Oval 17" fill="#D2D2D2"></path>
                            <path d="M179,164 C179.552285,164 180,163.552285 180,163 C180,162.447715 179.552285,162 179,162 C178.447715,162 178,162.447715 178,163 C178,163.552285 178.447715,164 179,164 Z M179,164" id="Oval 17" fill="#D2D2D2"></path>
                            <path d="M169,164 C169.552285,164 170,163.552285 170,163 C170,162.447715 169.552285,162 169,162 C168.447715,162 168,162.447715 168,163 C168,163.552285 168.447715,164 169,164 Z M169,164" id="Oval 17" fill="#D2D2D2"></path>
                            <path d="M199,154 C199.552285,154 200,153.552285 200,153 C200,152.447715 199.552285,152 199,152 C198.447715,152 198,152.447715 198,153 C198,153.552285 198.447715,154 199,154 Z M199,154" id="Oval 17" fill="#D2D2D2"></path>
                            <path d="M189,154 C189.552285,154 190,153.552285 190,153 C190,152.447715 189.552285,152 189,152 C188.447715,152 188,152.447715 188,153 C188,153.552285 188.447715,154 189,154 Z M189,154" id="Oval 17" fill="#D2D2D2"></path>
                            <path d="M179,154 C179.552285,154 180,153.552285 180,153 C180,152.447715 179.552285,152 179,152 C178.447715,152 178,152.447715 178,153 C178,153.552285 178.447715,154 179,154 Z M179,154" id="Oval 17" fill="#D2D2D2"></path>
                            <path d="M169,154 C169.552285,154 170,153.552285 170,153 C170,152.447715 169.552285,152 169,152 C168.447715,152 168,152.447715 168,153 C168,153.552285 168.447715,154 169,154 Z M169,154" id="Oval 17" fill="#D2D2D2"></path>
                            <path d="M199,144 C199.552285,144 200,143.552285 200,143 C200,142.447715 199.552285,142 199,142 C198.447715,142 198,142.447715 198,143 C198,143.552285 198.447715,144 199,144 Z M199,144" id="Oval 17" fill="#D2D2D2"></path>
                            <path d="M189,144 C189.552285,144 190,143.552285 190,143 C190,142.447715 189.552285,142 189,142 C188.447715,142 188,142.447715 188,143 C188,143.552285 188.447715,144 189,144 Z M189,144" id="Oval 17" fill="#D2D2D2"></path>
                            <path d="M179,144 C179.552285,144 180,143.552285 180,143 C180,142.447715 179.552285,142 179,142 C178.447715,142 178,142.447715 178,143 C178,143.552285 178.447715,144 179,144 Z M179,144" id="Oval 17" fill="#D2D2D2"></path>
                            <path d="M169,144 C169.552285,144 170,143.552285 170,143 C170,142.447715 169.552285,142 169,142 C168.447715,142 168,142.447715 168,143 C168,143.552285 168.447715,144 169,144 Z M169,144" id="Oval 17" fill="#D2D2D2"></path>
                            <path d="M199,134 C199.552285,134 200,133.552285 200,133 C200,132.447715 199.552285,132 199,132 C198.447715,132 198,132.447715 198,133 C198,133.552285 198.447715,134 199,134 Z M199,134" id="Oval 17" fill="#D2D2D2"></path>
                            <path d="M189,134 C189.552285,134 190,133.552285 190,133 C190,132.447715 189.552285,132 189,132 C188.447715,132 188,132.447715 188,133 C188,133.552285 188.447715,134 189,134 Z M189,134" id="Oval 17" fill="#D2D2D2"></path>
                            <path d="M179,134 C179.552285,134 180,133.552285 180,133 C180,132.447715 179.552285,132 179,132 C178.447715,132 178,132.447715 178,133 C178,133.552285 178.447715,134 179,134 Z M179,134" id="Oval 17" fill="#D2D2D2"></path>
                            <path d="M169,134 C169.552285,134 170,133.552285 170,133 C170,132.447715 169.552285,132 169,132 C168.447715,132 168,132.447715 168,133 C168,133.552285 168.447715,134 169,134 Z M169,134" id="Oval 17" fill="#D2D2D2"></path>
                            <path d="M199,124 C199.552285,124 200,123.552285 200,123 C200,122.447715 199.552285,122 199,122 C198.447715,122 198,122.447715 198,123 C198,123.552285 198.447715,124 199,124 Z M199,124" id="Oval 17" fill="#D2D2D2"></path>
                            <path d="M189,124 C189.552285,124 190,123.552285 190,123 C190,122.447715 189.552285,122 189,122 C188.447715,122 188,122.447715 188,123 C188,123.552285 188.447715,124 189,124 Z M189,124" id="Oval 17" fill="#D2D2D2"></path>
                            <path d="M179,124 C179.552285,124 180,123.552285 180,123 C180,122.447715 179.552285,122 179,122 C178.447715,122 178,122.447715 178,123 C178,123.552285 178.447715,124 179,124 Z M179,124" id="Oval 17" fill="#D2D2D2"></path>
                            <path d="M169,124 C169.552285,124 170,123.552285 170,123 C170,122.447715 169.552285,122 169,122 C168.447715,122 168,122.447715 168,123 C168,123.552285 168.447715,124 169,124 Z M169,124" id="Oval 17" fill="#D2D2D2"></path>
                            <path d="M199,114 C199.552285,114 200,113.552285 200,113 C200,112.447715 199.552285,112 199,112 C198.447715,112 198,112.447715 198,113 C198,113.552285 198.447715,114 199,114 Z M199,114" id="Oval 17" fill="#D2D2D2"></path>
                            <path d="M189,114 C189.552285,114 190,113.552285 190,113 C190,112.447715 189.552285,112 189,112 C188.447715,112 188,112.447715 188,113 C188,113.552285 188.447715,114 189,114 Z M189,114" id="Oval 17" fill="#D2D2D2"></path>
                            <path d="M179,114 C179.552285,114 180,113.552285 180,113 C180,112.447715 179.552285,112 179,112 C178.447715,112 178,112.447715 178,113 C178,113.552285 178.447715,114 179,114 Z M179,114" id="Oval 17" fill="#D2D2D2"></path>
                            <path d="M169,114 C169.552285,114 170,113.552285 170,113 C170,112.447715 169.552285,112 169,112 C168.447715,112 168,112.447715 168,113 C168,113.552285 168.447715,114 169,114 Z M169,114" id="Oval 17" fill="#D2D2D2"></path>
                            <path d="M199,104 C199.552285,104 200,103.552285 200,103 C200,102.447715 199.552285,102 199,102 C198.447715,102 198,102.447715 198,103 C198,103.552285 198.447715,104 199,104 Z M199,104" id="Oval 17" fill="#D2D2D2"></path>
                            <path d="M189,104 C189.552285,104 190,103.552285 190,103 C190,102.447715 189.552285,102 189,102 C188.447715,102 188,102.447715 188,103 C188,103.552285 188.447715,104 189,104 Z M189,104" id="Oval 17" fill="#D2D2D2"></path>
                            <path d="M179,104 C179.552285,104 180,103.552285 180,103 C180,102.447715 179.552285,102 179,102 C178.447715,102 178,102.447715 178,103 C178,103.552285 178.447715,104 179,104 Z M179,104" id="Oval 17" fill="#D2D2D2"></path>
                            <path d="M169,104 C169.552285,104 170,103.552285 170,103 C170,102.447715 169.552285,102 169,102 C168.447715,102 168,102.447715 168,103 C168,103.552285 168.447715,104 169,104 Z M169,104" id="Oval 17" fill="#D2D2D2"></path>
                            <path d="M199,94 C199.552285,94 200,93.5522848 200,93 C200,92.4477152 199.552285,92 199,92 C198.447715,92 198,92.4477152 198,93 C198,93.5522848 198.447715,94 199,94 Z M199,94" id="Oval 17" fill="#D2D2D2"></path>
                            <path d="M189,94 C189.552285,94 190,93.5522848 190,93 C190,92.4477152 189.552285,92 189,92 C188.447715,92 188,92.4477152 188,93 C188,93.5522848 188.447715,94 189,94 Z M189,94" id="Oval 17" fill="#D2D2D2"></path>
                            <path d="M179,94 C179.552285,94 180,93.5522848 180,93 C180,92.4477152 179.552285,92 179,92 C178.447715,92 178,92.4477152 178,93 C178,93.5522848 178.447715,94 179,94 Z M179,94" id="Oval 17" fill="#D2D2D2"></path>
                            <path d="M169,94 C169.552285,94 170,93.5522848 170,93 C170,92.4477152 169.552285,92 169,92 C168.447715,92 168,92.4477152 168,93 C168,93.5522848 168.447715,94 169,94 Z M169,94" id="Oval 17" fill="#D2D2D2"></path>
                            <path d="M199,84 C199.552285,84 200,83.5522848 200,83 C200,82.4477152 199.552285,82 199,82 C198.447715,82 198,82.4477152 198,83 C198,83.5522848 198.447715,84 199,84 Z M199,84" id="Oval 17" fill="#D2D2D2"></path>
                            <path d="M189,84 C189.552285,84 190,83.5522848 190,83 C190,82.4477152 189.552285,82 189,82 C188.447715,82 188,82.4477152 188,83 C188,83.5522848 188.447715,84 189,84 Z M189,84" id="Oval 17" fill="#D2D2D2"></path>
                            <path d="M179,84 C179.552285,84 180,83.5522848 180,83 C180,82.4477152 179.552285,82 179,82 C178.447715,82 178,82.4477152 178,83 C178,83.5522848 178.447715,84 179,84 Z M179,84" id="Oval 17" fill="#D2D2D2"></path>
                            <path d="M169,84 C169.552285,84 170,83.5522848 170,83 C170,82.4477152 169.552285,82 169,82 C168.447715,82 168,82.4477152 168,83 C168,83.5522848 168.447715,84 169,84 Z M169,84" id="Oval 17" fill="#D2D2D2"></path>
                            <path d="M199,74 C199.552285,74 200,73.5522848 200,73 C200,72.4477152 199.552285,72 199,72 C198.447715,72 198,72.4477152 198,73 C198,73.5522848 198.447715,74 199,74 Z M199,74" id="Oval 17" fill="#D2D2D2"></path>
                            <path d="M189,74 C189.552285,74 190,73.5522848 190,73 C190,72.4477152 189.552285,72 189,72 C188.447715,72 188,72.4477152 188,73 C188,73.5522848 188.447715,74 189,74 Z M189,74" id="Oval 17" fill="#D2D2D2"></path>
                            <path d="M179,74 C179.552285,74 180,73.5522848 180,73 C180,72.4477152 179.552285,72 179,72 C178.447715,72 178,72.4477152 178,73 C178,73.5522848 178.447715,74 179,74 Z M179,74" id="Oval 17" fill="#D2D2D2"></path>
                        </g>
                    </g>
                </g>
            </g>
            <g id="Group" mask="url(#mask-4)"></g>
            <g id="pen" fill="#D4D4D4" mask="url(#mask-4)">
                <path d="M44.3279228,46 L51.6720772,46 C52.4044018,46 53,46.5941772 53,47.327132 L53,161 L51,161 L51,163 L53,163 L53,164.672868 C53,165.410939 52.4054687,166 51.6720772,166 L44.3279228,166 C43.5955982,166 43,165.405823 43,164.672868 L43,163 L45,163 L45,161 L43,161 L43,47.327132 C43,46.5890614 43.5945313,46 44.3279228,46 Z M44.3279228,46" id="Rectangle 12" fill="#96D7CB"></path>
                <g id="cap" fill="#D8D8D8">
                    <path d="M43,81 L43,83 L53,83 L53,81 L43,81 Z M43,81" id="Rectangle copy" fill="#DBDADD"></path>
                    <path d="M53,51 L53,53 L59,53 L59,51 L53,51 Z M53,51" id="Rectangle 18" fill="#DBDADD"></path>
                    <path d="M57,53 L57,79 L59,79 L59,53 L57,53 Z M57,53" id="Rectangle 19" fill="#DBDADD"></path>
                    <path d="M53,79 L59,79 L59,85 L53,85 Z M54,81 L54,83 L57,83 L57,81 Z M54,81" id="Rectangle 20" fill="#DBDADD"></path>
                </g>
                <path d="M43.9953976,46 C43.4456547,46 43,46.4378814 43,47.0029293 L43,53 L53,53 L53,47.0029293 C53,46.4490268 52.5443356,46 52.0046024,46 L43.9953976,46 Z M43.9953976,46" id="Rectangle 35" fill="#DBDADD"></path>
            </g>
        </g>
    </g>
</svg>