<?xml version="1.0" encoding="UTF-8" standalone="no"?>
<svg width="200px" height="200px" viewBox="0 0 200 200" version="1.1" xmlns="http://www.w3.org/2000/svg" xmlns:xlink="http://www.w3.org/1999/xlink" xmlns:sketch="http://www.bohemiancoding.com/sketch/ns">
    <title>mockup</title>
    <description>Created with Sketch (http://www.bohemiancoding.com/sketch)</description>
    <defs>
        <path d="M100,200 C155.228478,200 200,155.228478 200,100 C200,44.7715223 155.228478,0 100,0 C44.7715223,0 0,44.7715223 0,100 C0,155.228478 44.7715223,200 100,200 Z M100,200" id="path-1" fill-rule="evenodd"></path>
        <mask id="mask-2">
            <use xlink:href="#path-1" fill="white"></use>
        </mask>
    </defs>
    <g id="Page 1" fill="#D8D8D8" fill-rule="evenodd">
        <g id="Artboard 2">
            <g id="Group">
                <use id="Oval 9" xlink:href="#path-1" fill="#71BFB1"></use>
                <g id="Group copy" mask="url(#mask-2)">
                    <g id="brows">
                        <g id="Group">
                            <path d="M37.5009573,40.1877551 C36.6720015,40.1877551 36,40.8610355 36,41.6816323 L36,54.1469388 L176,54.1469388 L176,41.6816323 C176,40.8565867 175.328803,40.1877551 174.499043,40.1877551 L37.5009573,40.1877551 Z M37.5009573,40.1877551" id="nav" fill="#D4D4D4"></path>
                            <g>
                                <path d="M44.4,48.5632653 C45.1731987,48.5632653 45.8,47.9382914 45.8,47.1673469 C45.8,46.3964025 45.1731987,45.7714286 44.4,45.7714286 C43.6268013,45.7714286 43,46.3964025 43,47.1673469 C43,47.9382914 43.6268013,48.5632653 44.4,48.5632653 Z M44.4,48.5632653" id="Oval 1" fill="#F3F0F0"></path>
                                <path d="M50,48.5632653 C50.7731987,48.5632653 51.4,47.9382914 51.4,47.1673469 C51.4,46.3964025 50.7731987,45.7714286 50,45.7714286 C49.2268013,45.7714286 48.6,46.3964025 48.6,47.1673469 C48.6,47.9382914 49.2268013,48.5632653 50,48.5632653 Z M50,48.5632653" id="Oval 1 copy" fill="#F3F0F0"></path>
                                <path d="M55.6,48.5632653 C56.3731987,48.5632653 57,47.9382914 57,47.1673469 C57,46.3964025 56.3731987,45.7714286 55.6,45.7714286 C54.8268013,45.7714286 54.2,46.3964025 54.2,47.1673469 C54.2,47.9382914 54.8268013,48.5632653 55.6,48.5632653 Z M55.6,48.5632653" id="Oval 1 copy 2" fill="#F3F0F0"></path>
                            </g>
                            <path d="M36,54.1469388 L36,263.534694 L176,263.534694 L176,54.1469388 L36,54.1469388 Z M36,54.1469388" id="Rectangle 4" fill="#F5F5F5"></path>
                            <g></g>
                            <path d="M36,54.1469388 L36,111.379592 L176,111.379592 L176,54.1469388 L36,54.1469388 Z M36,54.1469388" id="Rectangle 5" fill="#4A4A4A"></path>
                            <path d="M54.2038588,135.820408 C53.428529,135.820408 52.8,136.439293 52.8,137.215001 L52.8,140.009488 C52.8,140.779701 53.424847,141.404082 54.2038588,141.404082 L157.796141,141.404082 C158.571471,141.404082 159.2,140.785197 159.2,140.009488 L159.2,137.215001 C159.2,136.444789 158.575153,135.820408 157.796141,135.820408 L54.2038588,135.820408 Z M54.2038588,135.820408" id="Rectangle 6 copy" fill="#D4D4D4"></path>
                            <path d="M54.2038588,146.987755 C53.428529,146.987755 52.8,147.60664 52.8,148.382348 L52.8,151.176835 C52.8,151.947048 53.424847,152.571429 54.2038588,152.571429 L157.796141,152.571429 C158.571471,152.571429 159.2,151.952544 159.2,151.176835 L159.2,148.382348 C159.2,147.612136 158.575153,146.987755 157.796141,146.987755 L54.2038588,146.987755 Z M54.2038588,146.987755" id="Rectangle 6 copy 2" fill="#D4D4D4"></path>
                            <path d="M54.2038588,158.155102 C53.428529,158.155102 52.8,158.773987 52.8,159.549695 L52.8,162.344182 C52.8,163.114395 53.424847,163.738776 54.2038588,163.738776 L157.796141,163.738776 C158.571471,163.738776 159.2,163.119891 159.2,162.344182 L159.2,159.549695 C159.2,158.779483 158.575153,158.155102 157.796141,158.155102 L54.2038588,158.155102 Z M54.2038588,158.155102" id="Rectangle 6 copy 3" fill="#D4D4D4"></path>
                            <path d="M54.2038588,169.322449 C53.428529,169.322449 52.8,169.941334 52.8,170.717042 L52.8,173.511529 C52.8,174.281742 53.424847,174.906122 54.2038588,174.906122 L157.796141,174.906122 C158.571471,174.906122 159.2,174.287238 159.2,173.511529 L159.2,170.717042 C159.2,169.94683 158.575153,169.322449 157.796141,169.322449 L54.2038588,169.322449 Z M54.2038588,169.322449" id="Rectangle 6 copy 4" fill="#D4D4D4"></path>
                        </g>
                    </g>
                    <g id="Group"></g>
                </g>
                <g mask="url(#mask-2)">
                    <g id="brows">
                        <g id="Group">
                            <path d="M71.5009573,64.1877551 C70.6720015,64.1877551 70,64.8610355 70,65.6816323 L70,78.1469388 L210,78.1469388 L210,65.6816323 C210,64.8565867 209.328803,64.1877551 208.499043,64.1877551 L71.5009573,64.1877551 Z M71.5009573,64.1877551" id="nav" fill="#D4D4D4"></path>
                            <g>
                                <path d="M78.4,72.5632653 C79.1731987,72.5632653 79.8,71.9382914 79.8,71.1673469 C79.8,70.3964025 79.1731987,69.7714286 78.4,69.7714286 C77.6268013,69.7714286 77,70.3964025 77,71.1673469 C77,71.9382914 77.6268013,72.5632653 78.4,72.5632653 Z M78.4,72.5632653" id="Oval 1" fill="#F3F0F0"></path>
                                <path d="M84,72.5632653 C84.7731987,72.5632653 85.4,71.9382914 85.4,71.1673469 C85.4,70.3964025 84.7731987,69.7714286 84,69.7714286 C83.2268013,69.7714286 82.6,70.3964025 82.6,71.1673469 C82.6,71.9382914 83.2268013,72.5632653 84,72.5632653 Z M84,72.5632653" id="Oval 1 copy" fill="#F3F0F0"></path>
                                <path d="M89.6,72.5632653 C90.3731987,72.5632653 91,71.9382914 91,71.1673469 C91,70.3964025 90.3731987,69.7714286 89.6,69.7714286 C88.8268013,69.7714286 88.2,70.3964025 88.2,71.1673469 C88.2,71.9382914 88.8268013,72.5632653 89.6,72.5632653 Z M89.6,72.5632653" id="Oval 1 copy 2" fill="#F3F0F0"></path>
                            </g>
                            <path d="M70,78.1469388 L70,287.534694 L210,287.534694 L210,78.1469388 L70,78.1469388 Z M70,78.1469388" id="Rectangle 4" fill="#F5F5F5"></path>
                            <g></g>
                            <path d="M70,78.1469388 L70,135.379592 L210,135.379592 L210,78.1469388 L70,78.1469388 Z M70,78.1469388" id="Rectangle 5" fill="#EC9E92"></path>
                            <path d="M88.2038588,189.820408 C87.428529,189.820408 86.8,190.439293 86.8,191.215001 L86.8,194.009488 C86.8,194.779701 87.424847,195.404082 88.2038588,195.404082 L191.796141,195.404082 C192.571471,195.404082 193.2,194.785197 193.2,194.009488 L193.2,191.215001 C193.2,190.444789 192.575153,189.820408 191.796141,189.820408 L88.2038588,189.820408 Z M88.2038588,189.820408" id="Rectangle 6 copy" fill="#D4D4D4"></path>
                            <g>
                                <path d="M97.3,174.465306 C103.09899,174.465306 107.8,169.778002 107.8,163.995918 C107.8,158.213835 103.09899,153.526531 97.3,153.526531 C91.5010098,153.526531 86.8,158.213835 86.8,163.995918 C86.8,169.778002 91.5010098,174.465306 97.3,174.465306 Z M97.3,174.465306" id="Oval 10" fill="#EC9E92"></path>
                                <path d="M140.7,174.465306 C146.49899,174.465306 151.2,169.778002 151.2,163.995918 C151.2,158.213835 146.49899,153.526531 140.7,153.526531 C134.90101,153.526531 130.2,158.213835 130.2,163.995918 C130.2,169.778002 134.90101,174.465306 140.7,174.465306 Z M140.7,174.465306" id="Oval 10 copy" fill="#EC9E92"></path>
                                <path d="M184.1,174.465306 C189.89899,174.465306 194.6,169.778002 194.6,163.995918 C194.6,158.213835 189.89899,153.526531 184.1,153.526531 C178.30101,153.526531 173.6,158.213835 173.6,163.995918 C173.6,169.778002 178.30101,174.465306 184.1,174.465306 Z M184.1,174.465306" id="Oval 10 copy 2" fill="#EC9E92"></path>
                            </g>
                        </g>
                    </g>
                    <g></g>
                </g>
            </g>
        </g>
    </g>
</svg>