<?xml version="1.0" encoding="UTF-8" standalone="no"?>
<svg width="800px" height="400px" viewBox="0 0 800 400" version="1.1" xmlns="http://www.w3.org/2000/svg" xmlns:xlink="http://www.w3.org/1999/xlink" xmlns:sketch="http://www.bohemiancoding.com/sketch/ns">
    <title>Artboard 1</title>
    <description>Created with Sketch (http://www.bohemiancoding.com/sketch)</description>
    <defs></defs>
    <g id="Page 1" stroke="none" stroke-width="1" fill="none" fill-rule="evenodd" sketch:type="MSPage">
        <g id="Artboard 1" sketch:type="MSArtboardGroup">
            <rect d="M0,0 L0,400 L800,400 L800,0 L0,0 Z M0,0" id="Rectangle 1" fill="#D3EFFF" sketch:type="MSShapeGroup" x="0" y="0" width="800" height="400"></rect>
            <g sketch:type="MSLayerGroup" transform="translate(-33.000000, 33.000000)" id="Page 1">
                <g sketch:type="MSShapeGroup">
                    <g id="Artboard 1">
                        <g id="Group">
                            <path d="M413.5,533 C512.082833,533 592,453.30669 592,355 C592,256.69331 512.082833,177 413.5,177 C314.917167,177 235,256.69331 235,355 C235,453.30669 314.917167,533 413.5,533 L413.5,533 Z M413.5,533" id="Oval 1 copy 3" fill="#8EB1CF"></path>
                            <path d="M106.5,341 C147.092931,341 180,308.092931 180,267.5 C180,226.907069 147.092931,194 106.5,194 C65.9070689,194 33,226.907069 33,267.5 C33,308.092931 65.9070689,341 106.5,341 L106.5,341 Z M106.5,341" id="Oval 1 copy 4" fill="#D8D8D8"></path>
                            <path d="M178.5,535 C277.082833,535 357,455.30669 357,357 C357,258.69331 277.082833,179 178.5,179 C79.9171673,179 0,258.69331 0,357 C0,455.30669 79.9171673,535 178.5,535 L178.5,535 Z M178.5,535" id="Oval 1 copy 4" fill="#EC9E92"></path>
                            <path d="M119.5,232 C183.841177,232 236,180.065034 236,116 C236,51.9349659 183.841177,0 119.5,0 C55.1588235,0 3,51.9349659 3,116 C3,180.065034 55.1588235,232 119.5,232 L119.5,232 Z M119.5,232" id="Oval 1" fill="#FFF376"></path>
                            <path d="M655.5,646 C743.589422,646 815,574.589422 815,486.5 C815,398.410578 743.589422,327 655.5,327 C567.410578,327 496,398.410578 496,486.5 C496,574.589422 567.410578,646 655.5,646 L655.5,646 Z M655.5,646" id="Oval 1 copy" fill="#FFF376"></path>
                            <path d="M269,204 C318.70563,204 359,163.70563 359,114 C359,64.2943701 318.70563,24 269,24 C219.29437,24 179,64.2943701 179,114 C179,163.70563 219.29437,204 269,204 L269,204 Z M269,204" id="Oval 1 copy 2" fill="#D8D8D8"></path>
                            <path d="M269,204 C318.70563,204 359,163.70563 359,114 C359,64.2943701 318.70563,24 269,24 C219.29437,24 179,64.2943701 179,114 C179,163.70563 219.29437,204 269,204 L269,204 Z M269,204" id="Oval 1 copy 3" fill="#8EB1CF"></path>
                            <path d="M668.5,53 C671.537566,53 674,50.5375662 674,47.5 C674,44.4624338 671.537566,42 668.5,42 C665.462434,42 663,44.4624338 663,47.5 C663,50.5375662 665.462434,53 668.5,53 L668.5,53 Z M668.5,53" id="Oval 1 copy 4" fill="#8EB1CF"></path>
                            <path d="M633.5,223 C653.10611,223 669,207.10611 669,187.5 C669,167.89389 653.10611,152 633.5,152 C613.89389,152 598,167.89389 598,187.5 C598,207.10611 613.89389,223 633.5,223 L633.5,223 Z M633.5,223" id="Oval 1 copy 4" fill="#EC9E92"></path>
                            <path d="M303,250 C328.957384,250 350,228.957384 350,203 C350,177.042616 328.957384,156 303,156 C277.042616,156 256,177.042616 256,203 C256,228.957384 277.042616,250 303,250 L303,250 Z M303,250" id="Oval 1 copy 5" fill="#CFFD8C"></path>
                            <path d="M620,99 C627.179702,99 633,93.1797019 633,86 C633,78.8202979 627.179702,73 620,73 C612.820298,73 607,78.8202979 607,86 C607,93.1797019 612.820298,99 620,99 L620,99 Z M620,99" id="Oval 1 copy 6" fill="#CFFD8C"></path>
                            <path d="M456,266 C464.284272,266 471,259.284272 471,251 C471,242.715728 464.284272,236 456,236 C447.715728,236 441,242.715728 441,251 C441,259.284272 447.715728,266 456,266 L456,266 Z M456,266" id="Oval 1 copy 4" fill="#DFA139"></path>
                            <path d="M693.5,112 C699.29899,112 704,107.29899 704,101.5 C704,95.7010098 699.29899,91 693.5,91 C687.70101,91 683,95.7010098 683,101.5 C683,107.29899 687.70101,112 693.5,112 L693.5,112 Z M693.5,112" id="Oval 1 copy 5" fill="#FBE500"></path>
                            <path d="M534,204 C542.284272,204 549,197.284272 549,189 C549,180.715728 542.284272,174 534,174 C525.715728,174 519,180.715728 519,189 C519,197.284272 525.715728,204 534,204 L534,204 Z M534,204" id="Oval 1 copy 5" fill="#D8D8D8"></path>
                            <path d="M534,204 C542.284272,204 549,197.284272 549,189 C549,180.715728 542.284272,174 534,174 C525.715728,174 519,180.715728 519,189 C519,197.284272 525.715728,204 534,204 L534,204 Z M534,204" id="Oval 1 copy 6" fill="#96D7CB"></path>
                            <path d="M546,430 C582.450795,430 612,400.674653 612,364.5 C612,328.325347 582.450795,299 546,299 C509.549205,299 480,328.325347 480,364.5 C480,400.674653 509.549205,430 546,430 L546,430 Z M546,430" id="Oval 1 copy 7" fill="#EC9E92"></path>
                            <path d="M447,203 C466.329967,203 482,187.329967 482,168 C482,148.670033 466.329967,133 447,133 C427.670033,133 412,148.670033 412,168 C412,187.329967 427.670033,203 447,203 L447,203 Z M447,203" id="Oval 1 copy 5" fill="#FFF376"></path>
                            <path d="M701.5,70 C705.642136,70 709,66.6421359 709,62.5 C709,58.3578641 705.642136,55 701.5,55 C697.357864,55 694,58.3578641 694,62.5 C694,66.6421359 697.357864,70 701.5,70 L701.5,70 Z M701.5,70" id="Oval 1 copy 6" fill="#BA9FE6"></path>
                            <path d="M297.5,536 C361.841176,536 414,483.841176 414,419.5 C414,355.158824 361.841176,303 297.5,303 C233.158824,303 181,355.158824 181,419.5 C181,483.841176 233.158824,536 297.5,536 L297.5,536 Z M297.5,536" id="Oval 1 copy 4" fill="#CFFD8C"></path>
                            <path d="M73,272 C100.061954,272 122,250.061954 122,223 C122,195.938046 100.061954,174 73,174 C45.9380459,174 24,195.938046 24,223 C24,250.061954 45.9380459,272 73,272 L73,272 Z M73,272" id="Oval 1 copy 5" fill="#8EB1CF"></path>
                            <path d="M168,451 C208.869074,451 242,417.869074 242,377 C242,336.130926 208.869074,303 168,303 C127.130926,303 94,336.130926 94,377 C94,417.869074 127.130926,451 168,451 L168,451 Z M168,451" id="Oval 1 copy 3" fill="#FFF376"></path>
                        </g>
                    </g>
                </g>
            </g>
            <path d="M253.077957,240.854972 L195.495446,240.854972 C187.297935,240.854972 180.5,234.846685 180.5,226.635359 C180.5,220.226519 183.099211,215.219613 187.697814,209.812155 L248.479353,139.114641 C254.277592,132.305249 258.676256,128.700276 267.673524,128.700276 C275.871034,128.700276 282.46903,135.109116 282.46903,143.320442 L282.46903,215.820442 L289.866783,215.820442 C296.864658,215.820442 302.462958,221.428177 302.462958,228.437845 C302.462958,235.447514 296.864658,240.854972 289.866783,240.854972 L282.46903,240.854972 L282.46903,257.678177 C282.46903,265.889503 275.871034,272.298343 267.673524,272.298343 C259.476014,272.298343 253.077957,265.889503 253.077957,257.678177 Z M215.889252,215.820442 L253.077957,215.820442 L253.077957,172.160221 Z M400.699787,273.5 C363.311143,273.5 338.718612,242.05663 338.718612,201.400552 L338.718612,201 C338.718612,160.343923 363.910961,128.5 401.099666,128.5 C438.088432,128.5 463.080841,159.94337 463.080841,200.599448 L463.080841,201 C463.080841,241.656077 438.088432,273.5 400.699787,273.5 Z M401.099666,245.661602 C419.694019,245.661602 431.490436,226.835635 431.490436,201.400552 L431.490436,201 C431.490436,175.564917 419.094201,156.338398 400.699787,156.338398 C382.305374,156.338398 370.309018,174.964088 370.309018,200.599448 L370.309018,201 C370.309018,226.635359 382.505313,245.661602 401.099666,245.661602 Z M570.114999,240.854972 L512.532488,240.854972 C504.334978,240.854972 497.537042,234.846685 497.537042,226.635359 C497.537042,220.226519 500.136253,215.219613 504.734856,209.812155 L565.516396,139.114641 C571.314635,132.305249 575.713299,128.700276 584.710566,128.700276 C592.908076,128.700276 599.506073,135.109116 599.506073,143.320442 L599.506073,215.820442 L606.903826,215.820442 C613.9017,215.820442 619.5,221.428177 619.5,228.437845 C619.5,235.447514 613.9017,240.854972 606.903826,240.854972 L599.506073,240.854972 L599.506073,257.678177 C599.506073,265.889503 592.908076,272.298343 584.710566,272.298343 C576.513056,272.298343 570.114999,265.889503 570.114999,257.678177 Z M532.926294,215.820442 L570.114999,215.820442 L570.114999,172.160221 Z M532.926294,215.820442" id="404" fill="#FFFFFF" sketch:type="MSShapeGroup"></path>
        </g>
    </g>
</svg>