<?xml version="1.0" encoding="UTF-8" standalone="no"?>
<svg width="900px" height="570px" viewBox="0 0 900 570" version="1.1" xmlns="http://www.w3.org/2000/svg" xmlns:xlink="http://www.w3.org/1999/xlink" xmlns:sketch="http://www.bohemiancoding.com/sketch/ns">
    <title>Artboard 1</title>
    <description>Created with Sketch (http://www.bohemiancoding.com/sketch)</description>
    <defs></defs>
    <g id="Page 1" fill="#D8D8D8" fill-rule="evenodd">
        <g id="Artboard 1">
            <g id="Group">
                <path d="M477.5,656 C607.01078,656 712,551.01078 712,421.5 C712,291.98922 607.01078,187 477.5,187 C347.98922,187 243,291.98922 243,421.5 C243,551.01078 347.98922,656 477.5,656 Z M477.5,656" id="Oval 1 copy 3" fill="#CEE9F7"></path>
                <path d="M73.5,402 C126.795481,402 170,358.795481 170,305.5 C170,252.204519 126.795481,209 73.5,209 C20.204519,209 -23,252.204519 -23,305.5 C-23,358.795481 20.204519,402 73.5,402 Z M73.5,402" id="Oval 1 copy 4"></path>
                <path d="M168.5,659 C298.01078,659 403,554.01078 403,424.5 C403,294.98922 298.01078,190 168.5,190 C38.9892198,190 -66,294.98922 -66,424.5 C-66,554.01078 38.9892198,659 168.5,659 Z M168.5,659" id="Oval 1 copy 4" fill="#EC9E92"></path>
                <path d="M91,260 C175.499571,260 244,191.499571 244,107 C244,22.5004291 175.499571,-46 91,-46 C6.50042909,-46 -62,22.5004291 -62,107 C-62,191.499571 6.50042909,260 91,260 Z M91,260" id="Oval 1" fill="#FBE500"></path>
                <path d="M775,849 C890.979803,849 985,754.979803 985,639 C985,523.020197 890.979803,429 775,429 C659.020197,429 565,523.020197 565,639 C565,754.979803 659.020197,849 775,849 Z M775,849" id="Oval 1 copy" fill="#FBE500"></path>
                <path d="M288.5,222 C353.945746,222 407,168.945746 407,103.5 C407,38.0542539 353.945746,-15 288.5,-15 C223.054254,-15 170,38.0542539 170,103.5 C170,168.945746 223.054254,222 288.5,222 Z M288.5,222" id="Oval 1 copy 2"></path>
                <path d="M288.5,222 C353.945746,222 407,168.945746 407,103.5 C407,38.0542539 353.945746,-15 288.5,-15 C223.054254,-15 170,38.0542539 170,103.5 C170,168.945746 223.054254,222 288.5,222 Z M288.5,222" id="Oval 1 copy 3" fill="#CEEAF7"></path>
                <path d="M813,23 C816.865993,23 820,19.8659934 820,16 C820,12.1340066 816.865993,9 813,9 C809.134007,9 806,12.1340066 806,16 C806,19.8659934 809.134007,23 813,23 Z M813,23" id="Oval 1 copy 4" fill="#CEEAF7"></path>
                <path d="M767,248 C792.957385,248 814,226.957385 814,201 C814,175.042615 792.957385,154 767,154 C741.042615,154 720,175.042615 720,201 C720,226.957385 741.042615,248 767,248 Z M767,248" id="Oval 1 copy 4" fill="#EC9E92"></path>
                <path d="M333,283 C367.241656,283 395,255.241656 395,221 C395,186.758344 367.241656,159 333,159 C298.758344,159 271,186.758344 271,221 C271,255.241656 298.758344,283 333,283 Z M333,283" id="Oval 1 copy 5" fill="#CFFD8C"></path>
                <path d="M750,110 C759.388841,110 767,102.388841 767,93 C767,83.6111588 759.388841,76 750,76 C740.611159,76 733,83.6111588 733,93 C733,102.388841 740.611159,110 750,110 Z M750,110" id="Oval 1 copy 6" fill="#CFFD8C"></path>
                <path d="M534,305 C545.045696,305 554,296.045696 554,285 C554,273.954304 545.045696,265 534,265 C522.954304,265 514,273.954304 514,285 C514,296.045696 522.954304,305 534,305 Z M534,305" id="Oval 1 copy 4" fill="#DFA139"></path>
                <path d="M846.5,101 C853.955844,101 860,94.9558445 860,87.5 C860,80.0441555 853.955844,74 846.5,74 C839.044156,74 833,80.0441555 833,87.5 C833,94.9558445 839.044156,101 846.5,101 Z M846.5,101" id="Oval 1 copy 5" fill="#FBE500"></path>
                <path d="M637,223 C648.045696,223 657,214.045696 657,203 C657,191.954304 648.045696,183 637,183 C625.954304,183 617,191.954304 617,203 C617,214.045696 625.954304,223 637,223 Z M637,223" id="Oval 1 copy 5"></path>
                <path d="M637,223 C648.045696,223 657,214.045696 657,203 C657,191.954304 648.045696,183 637,183 C625.954304,183 617,191.954304 617,203 C617,214.045696 625.954304,223 637,223 Z M637,223" id="Oval 1 copy 6" fill="#96D7CB"></path>
                <path d="M651.5,520 C699.272633,520 738,481.272633 738,433.5 C738,385.727367 699.272633,347 651.5,347 C603.727367,347 565,385.727367 565,433.5 C565,481.272633 603.727367,520 651.5,520 Z M651.5,520" id="Oval 1 copy 7" fill="#EC9E92"></path>
                <path d="M522,221 C547.4051,221 568,200.4051 568,175 C568,149.5949 547.4051,129 522,129 C496.5949,129 476,149.5949 476,175 C476,200.4051 496.5949,221 522,221 Z M522,221" id="Oval 1 copy 5" fill="#FBE500"></path>
                <path d="M857,46 C862.522848,46 867,41.5228478 867,36 C867,30.4771522 862.522848,26 857,26 C851.477152,26 847,30.4771522 847,36 C847,41.5228478 851.477152,46 857,46 Z M857,46" id="Oval 1 copy 6" fill="#BA9FE6"></path>
                <path d="M325.5,660 C410.275713,660 479,591.275713 479,506.5 C479,421.724287 410.275713,353 325.5,353 C240.724287,353 172,421.724287 172,506.5 C172,591.275713 240.724287,660 325.5,660 Z M325.5,660" id="Oval 1 copy 4" fill="#CFFD8C"></path>
                <path d="M30.5,312 C66.1223681,312 95,283.122368 95,247.5 C95,211.877632 66.1223681,183 30.5,183 C-5.12236813,183 -34,211.877632 -34,247.5 C-34,283.122368 -5.12236813,312 30.5,312 Z M30.5,312" id="Oval 1 copy 5" fill="#CEE9F7"></path>
                <path d="M154.5,548 C208.347766,548 252,504.347766 252,450.5 C252,396.652234 208.347766,353 154.5,353 C100.652234,353 57,396.652234 57,450.5 C57,504.347766 100.652234,548 154.5,548 Z M154.5,548" id="Oval 1 copy 3" fill="#FBE500"></path>
            </g>
        </g>
    </g>
</svg>