<?xml version="1.0" encoding="UTF-8" standalone="no"?>
<svg width="20px" height="20px" viewBox="0 0 20 20" version="1.1" xmlns="http://www.w3.org/2000/svg" xmlns:xlink="http://www.w3.org/1999/xlink" xmlns:sketch="http://www.bohemiancoding.com/sketch/ns">
    <title>Artboard 1</title>
    <description>Created with Sketch (http://www.bohemiancoding.com/sketch)</description>
    <defs></defs>
    <g id="Social" fill="#D8D8D8" fill-rule="evenodd">
        <g id="Twitter">
            <path d="M17.4313725,5.40961098 C17.0549001,5.98627291 16.5634017,6.50953236 15.9568627,6.97940503 L15.9568627,7.36384439 C15.9568627,8.3676633 15.773858,9.37680652 15.4078431,10.3913043 C15.0418282,11.4058022 14.5032715,12.3241759 13.7921569,13.1464531 C13.0810422,13.9687303 12.2026196,14.6414924 11.1568627,15.1647597 C10.1111059,15.688027 8.90850353,15.9496568 7.54901961,15.9496568 C5.87580863,15.9496568 4.35948392,15.5011486 3,14.604119 C3.10457569,14.6254768 3.21960722,14.6361556 3.34509804,14.6361556 L3.72156863,14.6361556 C4.41176816,14.6361556 5.0705851,14.5240286 5.69803922,14.2997712 C6.32549333,14.0755138 6.89019357,13.7604902 7.39215686,13.3546911 C6.74378761,13.3333332 6.16862996,13.1304367 5.66666667,12.7459954 C5.16470337,12.3615541 4.81960878,11.8596522 4.63137255,11.2402746 C4.7150331,11.2829903 4.79869239,11.3043478 4.88235294,11.3043478 L5.16470588,11.3043478 C5.43660267,11.3043478 5.69803796,11.2723115 5.94901961,11.208238 C5.27973522,11.058733 4.72026369,10.7116732 4.27058824,10.1670481 C3.82091278,9.62242291 3.59607843,8.97635767 3.59607843,8.22883295 L3.59607843,8.19679634 C3.9725509,8.41037483 4.4117622,8.53852 4.91372549,8.5812357 C4.51633788,8.30358366 4.19738682,7.94584506 3.95686275,7.50800915 C3.71633867,7.07017325 3.59607843,6.58428947 3.59607843,6.05034325 C3.59607843,5.53775487 3.73202478,5.03585295 4.00392157,4.54462243 C4.73595137,5.46300993 5.62483137,6.20518405 6.67058824,6.77116705 C7.7163451,7.33715005 8.86666039,7.64149483 10.1215686,7.68421053 C10.0588232,7.49198989 10.027451,7.26773584 10.027451,7.01144165 C10.027451,6.60564252 10.1058816,6.21586762 10.2627451,5.84210526 C10.4196086,5.46834291 10.6287569,5.14797998 10.8901961,4.88100686 C11.1516353,4.61403375 11.4653576,4.40045847 11.8313725,4.2402746 C12.1973875,4.08009073 12.5895404,4 13.0078431,4 C13.8653638,4 14.5764678,4.30968416 15.1411765,4.92906178 C15.4967338,4.86498824 15.8261423,4.77421874 16.1294118,4.65675057 C16.4326813,4.5392824 16.7307175,4.39511908 17.0235294,4.22425629 C16.814378,4.92906531 16.3856242,5.48436105 15.7372549,5.89016018 C16.3228787,5.80472879 16.887579,5.64454732 17.4313725,5.40961098 C17.4313725,5.40961098 16.887579,5.64454732 17.4313725,5.40961098 L17.4313725,5.40961098 L17.4313725,5.40961098 Z M17.4313725,5.40961098" id="" fill="#000000"></path>
        </g>
    </g>
</svg>